<mxfile host="app.diagrams.net" modified="2021-02-03T02:33:39.779Z" agent="5.0 (Windows NT 10.0; Win64; x64) AppleWebKit/537.36 (KHTML, like Gecko) Chrome/88.0.4324.104 Safari/537.36" etag="dhA33LlFsnVA58SF_Kf2" version="14.2.3" type="github" pages="8">
  <diagram id="0eQlh3KjC3DB8EdoU1Py" name="Week1 Homework #1">
    <mxGraphModel dx="602" dy="723" grid="1" gridSize="10" guides="1" tooltips="1" connect="1" arrows="1" fold="1" page="1" pageScale="1" pageWidth="850" pageHeight="1100" math="0" shadow="0">
      <root>
        <mxCell id="2WcqRtUFZPWb7lBNNPEP-0" />
        <mxCell id="2WcqRtUFZPWb7lBNNPEP-1" parent="2WcqRtUFZPWb7lBNNPEP-0" />
        <mxCell id="2WcqRtUFZPWb7lBNNPEP-28" style="edgeStyle=orthogonalEdgeStyle;rounded=0;orthogonalLoop=1;jettySize=auto;html=1;startArrow=ERmandOne;startFill=0;endArrow=ERoneToMany;endFill=0;strokeWidth=3;" edge="1" parent="2WcqRtUFZPWb7lBNNPEP-1" source="2WcqRtUFZPWb7lBNNPEP-2">
          <mxGeometry relative="1" as="geometry">
            <mxPoint x="240" y="300" as="targetPoint" />
          </mxGeometry>
        </mxCell>
        <mxCell id="2WcqRtUFZPWb7lBNNPEP-2" value="Primary Guardian" style="shape=table;startSize=30;container=1;collapsible=1;childLayout=tableLayout;fixedRows=1;rowLines=0;fontStyle=1;align=center;resizeLast=1;" vertex="1" parent="2WcqRtUFZPWb7lBNNPEP-1">
          <mxGeometry x="335" y="220" width="180" height="160" as="geometry" />
        </mxCell>
        <mxCell id="2WcqRtUFZPWb7lBNNPEP-3" value="" style="shape=partialRectangle;collapsible=0;dropTarget=0;pointerEvents=0;fillColor=none;top=0;left=0;bottom=1;right=0;points=[[0,0.5],[1,0.5]];portConstraint=eastwest;" vertex="1" parent="2WcqRtUFZPWb7lBNNPEP-2">
          <mxGeometry y="30" width="180" height="30" as="geometry" />
        </mxCell>
        <mxCell id="2WcqRtUFZPWb7lBNNPEP-4" value="PK" style="shape=partialRectangle;connectable=0;fillColor=none;top=0;left=0;bottom=0;right=0;fontStyle=1;overflow=hidden;" vertex="1" parent="2WcqRtUFZPWb7lBNNPEP-3">
          <mxGeometry width="35" height="30" as="geometry" />
        </mxCell>
        <mxCell id="2WcqRtUFZPWb7lBNNPEP-5" value="UniqueID" style="shape=partialRectangle;connectable=0;fillColor=none;top=0;left=0;bottom=0;right=0;align=left;spacingLeft=6;fontStyle=5;overflow=hidden;" vertex="1" parent="2WcqRtUFZPWb7lBNNPEP-3">
          <mxGeometry x="35" width="145" height="30" as="geometry" />
        </mxCell>
        <mxCell id="2WcqRtUFZPWb7lBNNPEP-6" value="" style="shape=partialRectangle;collapsible=0;dropTarget=0;pointerEvents=0;fillColor=none;top=0;left=0;bottom=0;right=0;points=[[0,0.5],[1,0.5]];portConstraint=eastwest;" vertex="1" parent="2WcqRtUFZPWb7lBNNPEP-2">
          <mxGeometry y="60" width="180" height="30" as="geometry" />
        </mxCell>
        <mxCell id="2WcqRtUFZPWb7lBNNPEP-7" value="" style="shape=partialRectangle;connectable=0;fillColor=none;top=0;left=0;bottom=0;right=0;editable=1;overflow=hidden;" vertex="1" parent="2WcqRtUFZPWb7lBNNPEP-6">
          <mxGeometry width="35" height="30" as="geometry" />
        </mxCell>
        <mxCell id="2WcqRtUFZPWb7lBNNPEP-8" value="Row 1" style="shape=partialRectangle;connectable=0;fillColor=none;top=0;left=0;bottom=0;right=0;align=left;spacingLeft=6;overflow=hidden;" vertex="1" parent="2WcqRtUFZPWb7lBNNPEP-6">
          <mxGeometry x="35" width="145" height="30" as="geometry" />
        </mxCell>
        <mxCell id="2WcqRtUFZPWb7lBNNPEP-9" value="" style="shape=partialRectangle;collapsible=0;dropTarget=0;pointerEvents=0;fillColor=none;top=0;left=0;bottom=0;right=0;points=[[0,0.5],[1,0.5]];portConstraint=eastwest;" vertex="1" parent="2WcqRtUFZPWb7lBNNPEP-2">
          <mxGeometry y="90" width="180" height="30" as="geometry" />
        </mxCell>
        <mxCell id="2WcqRtUFZPWb7lBNNPEP-10" value="" style="shape=partialRectangle;connectable=0;fillColor=none;top=0;left=0;bottom=0;right=0;editable=1;overflow=hidden;" vertex="1" parent="2WcqRtUFZPWb7lBNNPEP-9">
          <mxGeometry width="35" height="30" as="geometry" />
        </mxCell>
        <mxCell id="2WcqRtUFZPWb7lBNNPEP-11" value="Row 2" style="shape=partialRectangle;connectable=0;fillColor=none;top=0;left=0;bottom=0;right=0;align=left;spacingLeft=6;overflow=hidden;" vertex="1" parent="2WcqRtUFZPWb7lBNNPEP-9">
          <mxGeometry x="35" width="145" height="30" as="geometry" />
        </mxCell>
        <mxCell id="2WcqRtUFZPWb7lBNNPEP-12" value="" style="shape=partialRectangle;collapsible=0;dropTarget=0;pointerEvents=0;fillColor=none;top=0;left=0;bottom=0;right=0;points=[[0,0.5],[1,0.5]];portConstraint=eastwest;" vertex="1" parent="2WcqRtUFZPWb7lBNNPEP-2">
          <mxGeometry y="120" width="180" height="30" as="geometry" />
        </mxCell>
        <mxCell id="2WcqRtUFZPWb7lBNNPEP-13" value="" style="shape=partialRectangle;connectable=0;fillColor=none;top=0;left=0;bottom=0;right=0;editable=1;overflow=hidden;" vertex="1" parent="2WcqRtUFZPWb7lBNNPEP-12">
          <mxGeometry width="35" height="30" as="geometry" />
        </mxCell>
        <mxCell id="2WcqRtUFZPWb7lBNNPEP-14" value="Row 3" style="shape=partialRectangle;connectable=0;fillColor=none;top=0;left=0;bottom=0;right=0;align=left;spacingLeft=6;overflow=hidden;" vertex="1" parent="2WcqRtUFZPWb7lBNNPEP-12">
          <mxGeometry x="35" width="145" height="30" as="geometry" />
        </mxCell>
        <mxCell id="2WcqRtUFZPWb7lBNNPEP-15" value="Student" style="shape=table;startSize=30;container=1;collapsible=1;childLayout=tableLayout;fixedRows=1;rowLines=0;fontStyle=1;align=center;resizeLast=1;" vertex="1" parent="2WcqRtUFZPWb7lBNNPEP-1">
          <mxGeometry x="50" y="220" width="180" height="160" as="geometry" />
        </mxCell>
        <mxCell id="2WcqRtUFZPWb7lBNNPEP-16" value="" style="shape=partialRectangle;collapsible=0;dropTarget=0;pointerEvents=0;fillColor=none;top=0;left=0;bottom=1;right=0;points=[[0,0.5],[1,0.5]];portConstraint=eastwest;" vertex="1" parent="2WcqRtUFZPWb7lBNNPEP-15">
          <mxGeometry y="30" width="180" height="30" as="geometry" />
        </mxCell>
        <mxCell id="2WcqRtUFZPWb7lBNNPEP-17" value="PK" style="shape=partialRectangle;connectable=0;fillColor=none;top=0;left=0;bottom=0;right=0;fontStyle=1;overflow=hidden;" vertex="1" parent="2WcqRtUFZPWb7lBNNPEP-16">
          <mxGeometry width="30" height="30" as="geometry" />
        </mxCell>
        <mxCell id="2WcqRtUFZPWb7lBNNPEP-18" value="UniqueID" style="shape=partialRectangle;connectable=0;fillColor=none;top=0;left=0;bottom=0;right=0;align=left;spacingLeft=6;fontStyle=5;overflow=hidden;" vertex="1" parent="2WcqRtUFZPWb7lBNNPEP-16">
          <mxGeometry x="30" width="150" height="30" as="geometry" />
        </mxCell>
        <mxCell id="2WcqRtUFZPWb7lBNNPEP-19" value="" style="shape=partialRectangle;collapsible=0;dropTarget=0;pointerEvents=0;fillColor=none;top=0;left=0;bottom=0;right=0;points=[[0,0.5],[1,0.5]];portConstraint=eastwest;" vertex="1" parent="2WcqRtUFZPWb7lBNNPEP-15">
          <mxGeometry y="60" width="180" height="30" as="geometry" />
        </mxCell>
        <mxCell id="2WcqRtUFZPWb7lBNNPEP-20" value="" style="shape=partialRectangle;connectable=0;fillColor=none;top=0;left=0;bottom=0;right=0;editable=1;overflow=hidden;" vertex="1" parent="2WcqRtUFZPWb7lBNNPEP-19">
          <mxGeometry width="30" height="30" as="geometry" />
        </mxCell>
        <mxCell id="2WcqRtUFZPWb7lBNNPEP-21" value="Row 1" style="shape=partialRectangle;connectable=0;fillColor=none;top=0;left=0;bottom=0;right=0;align=left;spacingLeft=6;overflow=hidden;" vertex="1" parent="2WcqRtUFZPWb7lBNNPEP-19">
          <mxGeometry x="30" width="150" height="30" as="geometry" />
        </mxCell>
        <mxCell id="2WcqRtUFZPWb7lBNNPEP-22" value="" style="shape=partialRectangle;collapsible=0;dropTarget=0;pointerEvents=0;fillColor=none;top=0;left=0;bottom=0;right=0;points=[[0,0.5],[1,0.5]];portConstraint=eastwest;" vertex="1" parent="2WcqRtUFZPWb7lBNNPEP-15">
          <mxGeometry y="90" width="180" height="30" as="geometry" />
        </mxCell>
        <mxCell id="2WcqRtUFZPWb7lBNNPEP-23" value="" style="shape=partialRectangle;connectable=0;fillColor=none;top=0;left=0;bottom=0;right=0;editable=1;overflow=hidden;" vertex="1" parent="2WcqRtUFZPWb7lBNNPEP-22">
          <mxGeometry width="30" height="30" as="geometry" />
        </mxCell>
        <mxCell id="2WcqRtUFZPWb7lBNNPEP-24" value="Row 2" style="shape=partialRectangle;connectable=0;fillColor=none;top=0;left=0;bottom=0;right=0;align=left;spacingLeft=6;overflow=hidden;" vertex="1" parent="2WcqRtUFZPWb7lBNNPEP-22">
          <mxGeometry x="30" width="150" height="30" as="geometry" />
        </mxCell>
        <mxCell id="2WcqRtUFZPWb7lBNNPEP-25" value="" style="shape=partialRectangle;collapsible=0;dropTarget=0;pointerEvents=0;fillColor=none;top=0;left=0;bottom=0;right=0;points=[[0,0.5],[1,0.5]];portConstraint=eastwest;" vertex="1" parent="2WcqRtUFZPWb7lBNNPEP-15">
          <mxGeometry y="120" width="180" height="30" as="geometry" />
        </mxCell>
        <mxCell id="2WcqRtUFZPWb7lBNNPEP-26" value="" style="shape=partialRectangle;connectable=0;fillColor=none;top=0;left=0;bottom=0;right=0;editable=1;overflow=hidden;" vertex="1" parent="2WcqRtUFZPWb7lBNNPEP-25">
          <mxGeometry width="30" height="30" as="geometry" />
        </mxCell>
        <mxCell id="2WcqRtUFZPWb7lBNNPEP-27" value="Row 3" style="shape=partialRectangle;connectable=0;fillColor=none;top=0;left=0;bottom=0;right=0;align=left;spacingLeft=6;overflow=hidden;" vertex="1" parent="2WcqRtUFZPWb7lBNNPEP-25">
          <mxGeometry x="30" width="150" height="30" as="geometry" />
        </mxCell>
      </root>
    </mxGraphModel>
  </diagram>
  <diagram id="SmN3OKRMNpGOcO76C02d" name="Week1 Homework #2">
    <mxGraphModel dx="602" dy="723" grid="1" gridSize="10" guides="1" tooltips="1" connect="1" arrows="1" fold="1" page="1" pageScale="1" pageWidth="850" pageHeight="1100" math="0" shadow="0">
      <root>
        <mxCell id="kYANuF1UKCEqwfAnyzHH-0" />
        <mxCell id="kYANuF1UKCEqwfAnyzHH-1" parent="kYANuF1UKCEqwfAnyzHH-0" />
        <mxCell id="kYANuF1UKCEqwfAnyzHH-28" style="edgeStyle=orthogonalEdgeStyle;rounded=0;orthogonalLoop=1;jettySize=auto;html=1;entryX=0.006;entryY=-0.167;entryDx=0;entryDy=0;entryPerimeter=0;startArrow=ERoneToMany;startFill=0;endArrow=ERmandOne;endFill=0;strokeWidth=3;" edge="1" parent="kYANuF1UKCEqwfAnyzHH-1" source="kYANuF1UKCEqwfAnyzHH-2" target="kYANuF1UKCEqwfAnyzHH-22">
          <mxGeometry relative="1" as="geometry" />
        </mxCell>
        <mxCell id="kYANuF1UKCEqwfAnyzHH-2" value="Airport" style="shape=table;startSize=30;container=1;collapsible=1;childLayout=tableLayout;fixedRows=1;rowLines=0;fontStyle=1;align=center;resizeLast=1;" vertex="1" parent="kYANuF1UKCEqwfAnyzHH-1">
          <mxGeometry x="110" y="100" width="180" height="160" as="geometry" />
        </mxCell>
        <mxCell id="kYANuF1UKCEqwfAnyzHH-3" value="" style="shape=partialRectangle;collapsible=0;dropTarget=0;pointerEvents=0;fillColor=none;top=0;left=0;bottom=1;right=0;points=[[0,0.5],[1,0.5]];portConstraint=eastwest;" vertex="1" parent="kYANuF1UKCEqwfAnyzHH-2">
          <mxGeometry y="30" width="180" height="30" as="geometry" />
        </mxCell>
        <mxCell id="kYANuF1UKCEqwfAnyzHH-4" value="PK" style="shape=partialRectangle;connectable=0;fillColor=none;top=0;left=0;bottom=0;right=0;fontStyle=1;overflow=hidden;" vertex="1" parent="kYANuF1UKCEqwfAnyzHH-3">
          <mxGeometry width="30" height="30" as="geometry" />
        </mxCell>
        <mxCell id="kYANuF1UKCEqwfAnyzHH-5" value="UniqueID" style="shape=partialRectangle;connectable=0;fillColor=none;top=0;left=0;bottom=0;right=0;align=left;spacingLeft=6;fontStyle=5;overflow=hidden;" vertex="1" parent="kYANuF1UKCEqwfAnyzHH-3">
          <mxGeometry x="30" width="150" height="30" as="geometry" />
        </mxCell>
        <mxCell id="kYANuF1UKCEqwfAnyzHH-6" value="" style="shape=partialRectangle;collapsible=0;dropTarget=0;pointerEvents=0;fillColor=none;top=0;left=0;bottom=0;right=0;points=[[0,0.5],[1,0.5]];portConstraint=eastwest;" vertex="1" parent="kYANuF1UKCEqwfAnyzHH-2">
          <mxGeometry y="60" width="180" height="30" as="geometry" />
        </mxCell>
        <mxCell id="kYANuF1UKCEqwfAnyzHH-7" value="" style="shape=partialRectangle;connectable=0;fillColor=none;top=0;left=0;bottom=0;right=0;editable=1;overflow=hidden;" vertex="1" parent="kYANuF1UKCEqwfAnyzHH-6">
          <mxGeometry width="30" height="30" as="geometry" />
        </mxCell>
        <mxCell id="kYANuF1UKCEqwfAnyzHH-8" value="Row 1" style="shape=partialRectangle;connectable=0;fillColor=none;top=0;left=0;bottom=0;right=0;align=left;spacingLeft=6;overflow=hidden;" vertex="1" parent="kYANuF1UKCEqwfAnyzHH-6">
          <mxGeometry x="30" width="150" height="30" as="geometry" />
        </mxCell>
        <mxCell id="kYANuF1UKCEqwfAnyzHH-9" value="" style="shape=partialRectangle;collapsible=0;dropTarget=0;pointerEvents=0;fillColor=none;top=0;left=0;bottom=0;right=0;points=[[0,0.5],[1,0.5]];portConstraint=eastwest;" vertex="1" parent="kYANuF1UKCEqwfAnyzHH-2">
          <mxGeometry y="90" width="180" height="30" as="geometry" />
        </mxCell>
        <mxCell id="kYANuF1UKCEqwfAnyzHH-10" value="" style="shape=partialRectangle;connectable=0;fillColor=none;top=0;left=0;bottom=0;right=0;editable=1;overflow=hidden;" vertex="1" parent="kYANuF1UKCEqwfAnyzHH-9">
          <mxGeometry width="30" height="30" as="geometry" />
        </mxCell>
        <mxCell id="kYANuF1UKCEqwfAnyzHH-11" value="Row 2" style="shape=partialRectangle;connectable=0;fillColor=none;top=0;left=0;bottom=0;right=0;align=left;spacingLeft=6;overflow=hidden;" vertex="1" parent="kYANuF1UKCEqwfAnyzHH-9">
          <mxGeometry x="30" width="150" height="30" as="geometry" />
        </mxCell>
        <mxCell id="kYANuF1UKCEqwfAnyzHH-12" value="" style="shape=partialRectangle;collapsible=0;dropTarget=0;pointerEvents=0;fillColor=none;top=0;left=0;bottom=0;right=0;points=[[0,0.5],[1,0.5]];portConstraint=eastwest;" vertex="1" parent="kYANuF1UKCEqwfAnyzHH-2">
          <mxGeometry y="120" width="180" height="30" as="geometry" />
        </mxCell>
        <mxCell id="kYANuF1UKCEqwfAnyzHH-13" value="" style="shape=partialRectangle;connectable=0;fillColor=none;top=0;left=0;bottom=0;right=0;editable=1;overflow=hidden;" vertex="1" parent="kYANuF1UKCEqwfAnyzHH-12">
          <mxGeometry width="30" height="30" as="geometry" />
        </mxCell>
        <mxCell id="kYANuF1UKCEqwfAnyzHH-14" value="Row 3" style="shape=partialRectangle;connectable=0;fillColor=none;top=0;left=0;bottom=0;right=0;align=left;spacingLeft=6;overflow=hidden;" vertex="1" parent="kYANuF1UKCEqwfAnyzHH-12">
          <mxGeometry x="30" width="150" height="30" as="geometry" />
        </mxCell>
        <mxCell id="kYANuF1UKCEqwfAnyzHH-15" value="City" style="shape=table;startSize=30;container=1;collapsible=1;childLayout=tableLayout;fixedRows=1;rowLines=0;fontStyle=1;align=center;resizeLast=1;" vertex="1" parent="kYANuF1UKCEqwfAnyzHH-1">
          <mxGeometry x="440" y="100" width="180" height="160" as="geometry" />
        </mxCell>
        <mxCell id="kYANuF1UKCEqwfAnyzHH-16" value="" style="shape=partialRectangle;collapsible=0;dropTarget=0;pointerEvents=0;fillColor=none;top=0;left=0;bottom=1;right=0;points=[[0,0.5],[1,0.5]];portConstraint=eastwest;" vertex="1" parent="kYANuF1UKCEqwfAnyzHH-15">
          <mxGeometry y="30" width="180" height="30" as="geometry" />
        </mxCell>
        <mxCell id="kYANuF1UKCEqwfAnyzHH-17" value="PK" style="shape=partialRectangle;connectable=0;fillColor=none;top=0;left=0;bottom=0;right=0;fontStyle=1;overflow=hidden;" vertex="1" parent="kYANuF1UKCEqwfAnyzHH-16">
          <mxGeometry width="30" height="30" as="geometry" />
        </mxCell>
        <mxCell id="kYANuF1UKCEqwfAnyzHH-18" value="UniqueID" style="shape=partialRectangle;connectable=0;fillColor=none;top=0;left=0;bottom=0;right=0;align=left;spacingLeft=6;fontStyle=5;overflow=hidden;" vertex="1" parent="kYANuF1UKCEqwfAnyzHH-16">
          <mxGeometry x="30" width="150" height="30" as="geometry" />
        </mxCell>
        <mxCell id="kYANuF1UKCEqwfAnyzHH-19" value="" style="shape=partialRectangle;collapsible=0;dropTarget=0;pointerEvents=0;fillColor=none;top=0;left=0;bottom=0;right=0;points=[[0,0.5],[1,0.5]];portConstraint=eastwest;" vertex="1" parent="kYANuF1UKCEqwfAnyzHH-15">
          <mxGeometry y="60" width="180" height="30" as="geometry" />
        </mxCell>
        <mxCell id="kYANuF1UKCEqwfAnyzHH-20" value="" style="shape=partialRectangle;connectable=0;fillColor=none;top=0;left=0;bottom=0;right=0;editable=1;overflow=hidden;" vertex="1" parent="kYANuF1UKCEqwfAnyzHH-19">
          <mxGeometry width="30" height="30" as="geometry" />
        </mxCell>
        <mxCell id="kYANuF1UKCEqwfAnyzHH-21" value="Row 1" style="shape=partialRectangle;connectable=0;fillColor=none;top=0;left=0;bottom=0;right=0;align=left;spacingLeft=6;overflow=hidden;" vertex="1" parent="kYANuF1UKCEqwfAnyzHH-19">
          <mxGeometry x="30" width="150" height="30" as="geometry" />
        </mxCell>
        <mxCell id="kYANuF1UKCEqwfAnyzHH-22" value="" style="shape=partialRectangle;collapsible=0;dropTarget=0;pointerEvents=0;fillColor=none;top=0;left=0;bottom=0;right=0;points=[[0,0.5],[1,0.5]];portConstraint=eastwest;" vertex="1" parent="kYANuF1UKCEqwfAnyzHH-15">
          <mxGeometry y="90" width="180" height="30" as="geometry" />
        </mxCell>
        <mxCell id="kYANuF1UKCEqwfAnyzHH-23" value="" style="shape=partialRectangle;connectable=0;fillColor=none;top=0;left=0;bottom=0;right=0;editable=1;overflow=hidden;" vertex="1" parent="kYANuF1UKCEqwfAnyzHH-22">
          <mxGeometry width="30" height="30" as="geometry" />
        </mxCell>
        <mxCell id="kYANuF1UKCEqwfAnyzHH-24" value="Row 2" style="shape=partialRectangle;connectable=0;fillColor=none;top=0;left=0;bottom=0;right=0;align=left;spacingLeft=6;overflow=hidden;" vertex="1" parent="kYANuF1UKCEqwfAnyzHH-22">
          <mxGeometry x="30" width="150" height="30" as="geometry" />
        </mxCell>
        <mxCell id="kYANuF1UKCEqwfAnyzHH-25" value="" style="shape=partialRectangle;collapsible=0;dropTarget=0;pointerEvents=0;fillColor=none;top=0;left=0;bottom=0;right=0;points=[[0,0.5],[1,0.5]];portConstraint=eastwest;" vertex="1" parent="kYANuF1UKCEqwfAnyzHH-15">
          <mxGeometry y="120" width="180" height="30" as="geometry" />
        </mxCell>
        <mxCell id="kYANuF1UKCEqwfAnyzHH-26" value="" style="shape=partialRectangle;connectable=0;fillColor=none;top=0;left=0;bottom=0;right=0;editable=1;overflow=hidden;" vertex="1" parent="kYANuF1UKCEqwfAnyzHH-25">
          <mxGeometry width="30" height="30" as="geometry" />
        </mxCell>
        <mxCell id="kYANuF1UKCEqwfAnyzHH-27" value="Row 3" style="shape=partialRectangle;connectable=0;fillColor=none;top=0;left=0;bottom=0;right=0;align=left;spacingLeft=6;overflow=hidden;" vertex="1" parent="kYANuF1UKCEqwfAnyzHH-25">
          <mxGeometry x="30" width="150" height="30" as="geometry" />
        </mxCell>
        <mxCell id="kYANuF1UKCEqwfAnyzHH-42" style="edgeStyle=orthogonalEdgeStyle;rounded=0;orthogonalLoop=1;jettySize=auto;html=1;entryX=0.5;entryY=1;entryDx=0;entryDy=0;startArrow=ERoneToMany;startFill=0;endArrow=ERmandOne;endFill=0;strokeWidth=3;" edge="1" parent="kYANuF1UKCEqwfAnyzHH-1" source="kYANuF1UKCEqwfAnyzHH-29" target="kYANuF1UKCEqwfAnyzHH-2">
          <mxGeometry relative="1" as="geometry" />
        </mxCell>
        <mxCell id="kYANuF1UKCEqwfAnyzHH-29" value="AircraftCompany&#xa;" style="shape=table;startSize=30;container=1;collapsible=1;childLayout=tableLayout;fixedRows=1;rowLines=0;fontStyle=1;align=center;resizeLast=1;" vertex="1" parent="kYANuF1UKCEqwfAnyzHH-1">
          <mxGeometry x="110" y="390" width="180" height="160" as="geometry" />
        </mxCell>
        <mxCell id="kYANuF1UKCEqwfAnyzHH-30" value="" style="shape=partialRectangle;collapsible=0;dropTarget=0;pointerEvents=0;fillColor=none;top=0;left=0;bottom=1;right=0;points=[[0,0.5],[1,0.5]];portConstraint=eastwest;" vertex="1" parent="kYANuF1UKCEqwfAnyzHH-29">
          <mxGeometry y="30" width="180" height="30" as="geometry" />
        </mxCell>
        <mxCell id="kYANuF1UKCEqwfAnyzHH-31" value="PK" style="shape=partialRectangle;connectable=0;fillColor=none;top=0;left=0;bottom=0;right=0;fontStyle=1;overflow=hidden;" vertex="1" parent="kYANuF1UKCEqwfAnyzHH-30">
          <mxGeometry width="30" height="30" as="geometry" />
        </mxCell>
        <mxCell id="kYANuF1UKCEqwfAnyzHH-32" value="UniqueID" style="shape=partialRectangle;connectable=0;fillColor=none;top=0;left=0;bottom=0;right=0;align=left;spacingLeft=6;fontStyle=5;overflow=hidden;" vertex="1" parent="kYANuF1UKCEqwfAnyzHH-30">
          <mxGeometry x="30" width="150" height="30" as="geometry" />
        </mxCell>
        <mxCell id="kYANuF1UKCEqwfAnyzHH-33" value="" style="shape=partialRectangle;collapsible=0;dropTarget=0;pointerEvents=0;fillColor=none;top=0;left=0;bottom=0;right=0;points=[[0,0.5],[1,0.5]];portConstraint=eastwest;" vertex="1" parent="kYANuF1UKCEqwfAnyzHH-29">
          <mxGeometry y="60" width="180" height="30" as="geometry" />
        </mxCell>
        <mxCell id="kYANuF1UKCEqwfAnyzHH-34" value="" style="shape=partialRectangle;connectable=0;fillColor=none;top=0;left=0;bottom=0;right=0;editable=1;overflow=hidden;" vertex="1" parent="kYANuF1UKCEqwfAnyzHH-33">
          <mxGeometry width="30" height="30" as="geometry" />
        </mxCell>
        <mxCell id="kYANuF1UKCEqwfAnyzHH-35" value="Row 1" style="shape=partialRectangle;connectable=0;fillColor=none;top=0;left=0;bottom=0;right=0;align=left;spacingLeft=6;overflow=hidden;" vertex="1" parent="kYANuF1UKCEqwfAnyzHH-33">
          <mxGeometry x="30" width="150" height="30" as="geometry" />
        </mxCell>
        <mxCell id="kYANuF1UKCEqwfAnyzHH-36" value="" style="shape=partialRectangle;collapsible=0;dropTarget=0;pointerEvents=0;fillColor=none;top=0;left=0;bottom=0;right=0;points=[[0,0.5],[1,0.5]];portConstraint=eastwest;" vertex="1" parent="kYANuF1UKCEqwfAnyzHH-29">
          <mxGeometry y="90" width="180" height="30" as="geometry" />
        </mxCell>
        <mxCell id="kYANuF1UKCEqwfAnyzHH-37" value="" style="shape=partialRectangle;connectable=0;fillColor=none;top=0;left=0;bottom=0;right=0;editable=1;overflow=hidden;" vertex="1" parent="kYANuF1UKCEqwfAnyzHH-36">
          <mxGeometry width="30" height="30" as="geometry" />
        </mxCell>
        <mxCell id="kYANuF1UKCEqwfAnyzHH-38" value="Row 2" style="shape=partialRectangle;connectable=0;fillColor=none;top=0;left=0;bottom=0;right=0;align=left;spacingLeft=6;overflow=hidden;" vertex="1" parent="kYANuF1UKCEqwfAnyzHH-36">
          <mxGeometry x="30" width="150" height="30" as="geometry" />
        </mxCell>
        <mxCell id="kYANuF1UKCEqwfAnyzHH-39" value="" style="shape=partialRectangle;collapsible=0;dropTarget=0;pointerEvents=0;fillColor=none;top=0;left=0;bottom=0;right=0;points=[[0,0.5],[1,0.5]];portConstraint=eastwest;" vertex="1" parent="kYANuF1UKCEqwfAnyzHH-29">
          <mxGeometry y="120" width="180" height="30" as="geometry" />
        </mxCell>
        <mxCell id="kYANuF1UKCEqwfAnyzHH-40" value="" style="shape=partialRectangle;connectable=0;fillColor=none;top=0;left=0;bottom=0;right=0;editable=1;overflow=hidden;" vertex="1" parent="kYANuF1UKCEqwfAnyzHH-39">
          <mxGeometry width="30" height="30" as="geometry" />
        </mxCell>
        <mxCell id="kYANuF1UKCEqwfAnyzHH-41" value="Row 3" style="shape=partialRectangle;connectable=0;fillColor=none;top=0;left=0;bottom=0;right=0;align=left;spacingLeft=6;overflow=hidden;" vertex="1" parent="kYANuF1UKCEqwfAnyzHH-39">
          <mxGeometry x="30" width="150" height="30" as="geometry" />
        </mxCell>
        <mxCell id="kYANuF1UKCEqwfAnyzHH-56" style="edgeStyle=orthogonalEdgeStyle;rounded=0;orthogonalLoop=1;jettySize=auto;html=1;startArrow=ERoneToMany;startFill=0;endArrow=ERmandOne;endFill=0;strokeWidth=3;" edge="1" parent="kYANuF1UKCEqwfAnyzHH-1" source="kYANuF1UKCEqwfAnyzHH-43" target="kYANuF1UKCEqwfAnyzHH-36">
          <mxGeometry relative="1" as="geometry" />
        </mxCell>
        <mxCell id="kYANuF1UKCEqwfAnyzHH-43" value="Aircraft" style="shape=table;startSize=30;container=1;collapsible=1;childLayout=tableLayout;fixedRows=1;rowLines=0;fontStyle=1;align=center;resizeLast=1;" vertex="1" parent="kYANuF1UKCEqwfAnyzHH-1">
          <mxGeometry x="430" y="415" width="180" height="160" as="geometry" />
        </mxCell>
        <mxCell id="kYANuF1UKCEqwfAnyzHH-44" value="" style="shape=partialRectangle;collapsible=0;dropTarget=0;pointerEvents=0;fillColor=none;top=0;left=0;bottom=1;right=0;points=[[0,0.5],[1,0.5]];portConstraint=eastwest;" vertex="1" parent="kYANuF1UKCEqwfAnyzHH-43">
          <mxGeometry y="30" width="180" height="30" as="geometry" />
        </mxCell>
        <mxCell id="kYANuF1UKCEqwfAnyzHH-45" value="PK" style="shape=partialRectangle;connectable=0;fillColor=none;top=0;left=0;bottom=0;right=0;fontStyle=1;overflow=hidden;" vertex="1" parent="kYANuF1UKCEqwfAnyzHH-44">
          <mxGeometry width="30" height="30" as="geometry" />
        </mxCell>
        <mxCell id="kYANuF1UKCEqwfAnyzHH-46" value="UniqueID" style="shape=partialRectangle;connectable=0;fillColor=none;top=0;left=0;bottom=0;right=0;align=left;spacingLeft=6;fontStyle=5;overflow=hidden;" vertex="1" parent="kYANuF1UKCEqwfAnyzHH-44">
          <mxGeometry x="30" width="150" height="30" as="geometry" />
        </mxCell>
        <mxCell id="kYANuF1UKCEqwfAnyzHH-47" value="" style="shape=partialRectangle;collapsible=0;dropTarget=0;pointerEvents=0;fillColor=none;top=0;left=0;bottom=0;right=0;points=[[0,0.5],[1,0.5]];portConstraint=eastwest;" vertex="1" parent="kYANuF1UKCEqwfAnyzHH-43">
          <mxGeometry y="60" width="180" height="30" as="geometry" />
        </mxCell>
        <mxCell id="kYANuF1UKCEqwfAnyzHH-48" value="" style="shape=partialRectangle;connectable=0;fillColor=none;top=0;left=0;bottom=0;right=0;editable=1;overflow=hidden;" vertex="1" parent="kYANuF1UKCEqwfAnyzHH-47">
          <mxGeometry width="30" height="30" as="geometry" />
        </mxCell>
        <mxCell id="kYANuF1UKCEqwfAnyzHH-49" value="Row 1" style="shape=partialRectangle;connectable=0;fillColor=none;top=0;left=0;bottom=0;right=0;align=left;spacingLeft=6;overflow=hidden;" vertex="1" parent="kYANuF1UKCEqwfAnyzHH-47">
          <mxGeometry x="30" width="150" height="30" as="geometry" />
        </mxCell>
        <mxCell id="kYANuF1UKCEqwfAnyzHH-50" value="" style="shape=partialRectangle;collapsible=0;dropTarget=0;pointerEvents=0;fillColor=none;top=0;left=0;bottom=0;right=0;points=[[0,0.5],[1,0.5]];portConstraint=eastwest;" vertex="1" parent="kYANuF1UKCEqwfAnyzHH-43">
          <mxGeometry y="90" width="180" height="30" as="geometry" />
        </mxCell>
        <mxCell id="kYANuF1UKCEqwfAnyzHH-51" value="" style="shape=partialRectangle;connectable=0;fillColor=none;top=0;left=0;bottom=0;right=0;editable=1;overflow=hidden;" vertex="1" parent="kYANuF1UKCEqwfAnyzHH-50">
          <mxGeometry width="30" height="30" as="geometry" />
        </mxCell>
        <mxCell id="kYANuF1UKCEqwfAnyzHH-52" value="Row 2" style="shape=partialRectangle;connectable=0;fillColor=none;top=0;left=0;bottom=0;right=0;align=left;spacingLeft=6;overflow=hidden;" vertex="1" parent="kYANuF1UKCEqwfAnyzHH-50">
          <mxGeometry x="30" width="150" height="30" as="geometry" />
        </mxCell>
        <mxCell id="kYANuF1UKCEqwfAnyzHH-53" value="" style="shape=partialRectangle;collapsible=0;dropTarget=0;pointerEvents=0;fillColor=none;top=0;left=0;bottom=0;right=0;points=[[0,0.5],[1,0.5]];portConstraint=eastwest;" vertex="1" parent="kYANuF1UKCEqwfAnyzHH-43">
          <mxGeometry y="120" width="180" height="30" as="geometry" />
        </mxCell>
        <mxCell id="kYANuF1UKCEqwfAnyzHH-54" value="" style="shape=partialRectangle;connectable=0;fillColor=none;top=0;left=0;bottom=0;right=0;editable=1;overflow=hidden;" vertex="1" parent="kYANuF1UKCEqwfAnyzHH-53">
          <mxGeometry width="30" height="30" as="geometry" />
        </mxCell>
        <mxCell id="kYANuF1UKCEqwfAnyzHH-55" value="Row 3" style="shape=partialRectangle;connectable=0;fillColor=none;top=0;left=0;bottom=0;right=0;align=left;spacingLeft=6;overflow=hidden;" vertex="1" parent="kYANuF1UKCEqwfAnyzHH-53">
          <mxGeometry x="30" width="150" height="30" as="geometry" />
        </mxCell>
      </root>
    </mxGraphModel>
  </diagram>
  <diagram id="u-QtYSkO1whKK1OiDCUa" name="Week 2 DQ #2">
    <mxGraphModel dx="602" dy="723" grid="1" gridSize="10" guides="1" tooltips="1" connect="1" arrows="1" fold="1" page="1" pageScale="1" pageWidth="850" pageHeight="1100" math="0" shadow="0">
      <root>
        <mxCell id="PSoQCI4-vHWEwBXf56jb-0" />
        <mxCell id="PSoQCI4-vHWEwBXf56jb-1" parent="PSoQCI4-vHWEwBXf56jb-0" />
        <mxCell id="PSoQCI4-vHWEwBXf56jb-54" style="edgeStyle=orthogonalEdgeStyle;rounded=0;orthogonalLoop=1;jettySize=auto;html=1;entryX=0.606;entryY=-0.012;entryDx=0;entryDy=0;entryPerimeter=0;startArrow=ERmandOne;startFill=0;endArrow=ERoneToMany;endFill=0;strokeWidth=3;" edge="1" parent="PSoQCI4-vHWEwBXf56jb-1" source="PSoQCI4-vHWEwBXf56jb-2" target="PSoQCI4-vHWEwBXf56jb-15">
          <mxGeometry relative="1" as="geometry" />
        </mxCell>
        <mxCell id="PSoQCI4-vHWEwBXf56jb-2" value="Type (Enumeration)" style="shape=table;startSize=30;container=1;collapsible=1;childLayout=tableLayout;fixedRows=1;rowLines=0;fontStyle=1;align=center;resizeLast=1;" vertex="1" parent="PSoQCI4-vHWEwBXf56jb-1">
          <mxGeometry x="60" y="20" width="180" height="160" as="geometry" />
        </mxCell>
        <mxCell id="PSoQCI4-vHWEwBXf56jb-3" value="" style="shape=partialRectangle;collapsible=0;dropTarget=0;pointerEvents=0;fillColor=none;top=0;left=0;bottom=1;right=0;points=[[0,0.5],[1,0.5]];portConstraint=eastwest;" vertex="1" parent="PSoQCI4-vHWEwBXf56jb-2">
          <mxGeometry y="30" width="180" height="30" as="geometry" />
        </mxCell>
        <mxCell id="PSoQCI4-vHWEwBXf56jb-4" value="PK" style="shape=partialRectangle;connectable=0;fillColor=none;top=0;left=0;bottom=0;right=0;fontStyle=1;overflow=hidden;" vertex="1" parent="PSoQCI4-vHWEwBXf56jb-3">
          <mxGeometry width="30" height="30" as="geometry" />
        </mxCell>
        <mxCell id="PSoQCI4-vHWEwBXf56jb-5" value="UniqueID" style="shape=partialRectangle;connectable=0;fillColor=none;top=0;left=0;bottom=0;right=0;align=left;spacingLeft=6;fontStyle=5;overflow=hidden;" vertex="1" parent="PSoQCI4-vHWEwBXf56jb-3">
          <mxGeometry x="30" width="150" height="30" as="geometry" />
        </mxCell>
        <mxCell id="PSoQCI4-vHWEwBXf56jb-6" value="" style="shape=partialRectangle;collapsible=0;dropTarget=0;pointerEvents=0;fillColor=none;top=0;left=0;bottom=0;right=0;points=[[0,0.5],[1,0.5]];portConstraint=eastwest;" vertex="1" parent="PSoQCI4-vHWEwBXf56jb-2">
          <mxGeometry y="60" width="180" height="30" as="geometry" />
        </mxCell>
        <mxCell id="PSoQCI4-vHWEwBXf56jb-7" value="" style="shape=partialRectangle;connectable=0;fillColor=none;top=0;left=0;bottom=0;right=0;editable=1;overflow=hidden;" vertex="1" parent="PSoQCI4-vHWEwBXf56jb-6">
          <mxGeometry width="30" height="30" as="geometry" />
        </mxCell>
        <mxCell id="PSoQCI4-vHWEwBXf56jb-8" value="Condo" style="shape=partialRectangle;connectable=0;fillColor=none;top=0;left=0;bottom=0;right=0;align=left;spacingLeft=6;overflow=hidden;" vertex="1" parent="PSoQCI4-vHWEwBXf56jb-6">
          <mxGeometry x="30" width="150" height="30" as="geometry" />
        </mxCell>
        <mxCell id="PSoQCI4-vHWEwBXf56jb-9" value="" style="shape=partialRectangle;collapsible=0;dropTarget=0;pointerEvents=0;fillColor=none;top=0;left=0;bottom=0;right=0;points=[[0,0.5],[1,0.5]];portConstraint=eastwest;" vertex="1" parent="PSoQCI4-vHWEwBXf56jb-2">
          <mxGeometry y="90" width="180" height="30" as="geometry" />
        </mxCell>
        <mxCell id="PSoQCI4-vHWEwBXf56jb-10" value="" style="shape=partialRectangle;connectable=0;fillColor=none;top=0;left=0;bottom=0;right=0;editable=1;overflow=hidden;" vertex="1" parent="PSoQCI4-vHWEwBXf56jb-9">
          <mxGeometry width="30" height="30" as="geometry" />
        </mxCell>
        <mxCell id="PSoQCI4-vHWEwBXf56jb-11" value="Residential" style="shape=partialRectangle;connectable=0;fillColor=none;top=0;left=0;bottom=0;right=0;align=left;spacingLeft=6;overflow=hidden;" vertex="1" parent="PSoQCI4-vHWEwBXf56jb-9">
          <mxGeometry x="30" width="150" height="30" as="geometry" />
        </mxCell>
        <mxCell id="PSoQCI4-vHWEwBXf56jb-12" value="" style="shape=partialRectangle;collapsible=0;dropTarget=0;pointerEvents=0;fillColor=none;top=0;left=0;bottom=0;right=0;points=[[0,0.5],[1,0.5]];portConstraint=eastwest;" vertex="1" parent="PSoQCI4-vHWEwBXf56jb-2">
          <mxGeometry y="120" width="180" height="30" as="geometry" />
        </mxCell>
        <mxCell id="PSoQCI4-vHWEwBXf56jb-13" value="" style="shape=partialRectangle;connectable=0;fillColor=none;top=0;left=0;bottom=0;right=0;editable=1;overflow=hidden;" vertex="1" parent="PSoQCI4-vHWEwBXf56jb-12">
          <mxGeometry width="30" height="30" as="geometry" />
        </mxCell>
        <mxCell id="PSoQCI4-vHWEwBXf56jb-14" value="Multi-Family" style="shape=partialRectangle;connectable=0;fillColor=none;top=0;left=0;bottom=0;right=0;align=left;spacingLeft=6;overflow=hidden;" vertex="1" parent="PSoQCI4-vHWEwBXf56jb-12">
          <mxGeometry x="30" width="150" height="30" as="geometry" />
        </mxCell>
        <mxCell id="PSoQCI4-vHWEwBXf56jb-15" value="Property" style="shape=table;startSize=30;container=1;collapsible=1;childLayout=tableLayout;fixedRows=1;rowLines=0;fontStyle=1;align=center;resizeLast=1;" vertex="1" parent="PSoQCI4-vHWEwBXf56jb-1">
          <mxGeometry x="40" y="500" width="180" height="180" as="geometry" />
        </mxCell>
        <mxCell id="PSoQCI4-vHWEwBXf56jb-16" value="" style="shape=partialRectangle;collapsible=0;dropTarget=0;pointerEvents=0;fillColor=none;top=0;left=0;bottom=1;right=0;points=[[0,0.5],[1,0.5]];portConstraint=eastwest;" vertex="1" parent="PSoQCI4-vHWEwBXf56jb-15">
          <mxGeometry y="30" width="180" height="30" as="geometry" />
        </mxCell>
        <mxCell id="PSoQCI4-vHWEwBXf56jb-17" value="PK" style="shape=partialRectangle;connectable=0;fillColor=none;top=0;left=0;bottom=0;right=0;fontStyle=1;overflow=hidden;" vertex="1" parent="PSoQCI4-vHWEwBXf56jb-16">
          <mxGeometry width="30" height="30" as="geometry" />
        </mxCell>
        <mxCell id="PSoQCI4-vHWEwBXf56jb-18" value="UniqueID" style="shape=partialRectangle;connectable=0;fillColor=none;top=0;left=0;bottom=0;right=0;align=left;spacingLeft=6;fontStyle=5;overflow=hidden;" vertex="1" parent="PSoQCI4-vHWEwBXf56jb-16">
          <mxGeometry x="30" width="150" height="30" as="geometry" />
        </mxCell>
        <mxCell id="PSoQCI4-vHWEwBXf56jb-19" value="" style="shape=partialRectangle;collapsible=0;dropTarget=0;pointerEvents=0;fillColor=none;top=0;left=0;bottom=0;right=0;points=[[0,0.5],[1,0.5]];portConstraint=eastwest;" vertex="1" parent="PSoQCI4-vHWEwBXf56jb-15">
          <mxGeometry y="60" width="180" height="20" as="geometry" />
        </mxCell>
        <mxCell id="PSoQCI4-vHWEwBXf56jb-20" value="" style="shape=partialRectangle;connectable=0;fillColor=none;top=0;left=0;bottom=0;right=0;editable=1;overflow=hidden;" vertex="1" parent="PSoQCI4-vHWEwBXf56jb-19">
          <mxGeometry width="30" height="20" as="geometry" />
        </mxCell>
        <mxCell id="PSoQCI4-vHWEwBXf56jb-21" value="street_address" style="shape=partialRectangle;connectable=0;fillColor=none;top=0;left=0;bottom=0;right=0;align=left;spacingLeft=6;overflow=hidden;" vertex="1" parent="PSoQCI4-vHWEwBXf56jb-19">
          <mxGeometry x="30" width="150" height="20" as="geometry" />
        </mxCell>
        <mxCell id="PSoQCI4-vHWEwBXf56jb-22" value="" style="shape=partialRectangle;collapsible=0;dropTarget=0;pointerEvents=0;fillColor=none;top=0;left=0;bottom=0;right=0;points=[[0,0.5],[1,0.5]];portConstraint=eastwest;" vertex="1" parent="PSoQCI4-vHWEwBXf56jb-15">
          <mxGeometry y="80" width="180" height="30" as="geometry" />
        </mxCell>
        <mxCell id="PSoQCI4-vHWEwBXf56jb-23" value="" style="shape=partialRectangle;connectable=0;fillColor=none;top=0;left=0;bottom=0;right=0;editable=1;overflow=hidden;" vertex="1" parent="PSoQCI4-vHWEwBXf56jb-22">
          <mxGeometry width="30" height="30" as="geometry" />
        </mxCell>
        <mxCell id="PSoQCI4-vHWEwBXf56jb-24" value="bed_count" style="shape=partialRectangle;connectable=0;fillColor=none;top=0;left=0;bottom=0;right=0;align=left;spacingLeft=6;overflow=hidden;" vertex="1" parent="PSoQCI4-vHWEwBXf56jb-22">
          <mxGeometry x="30" width="150" height="30" as="geometry" />
        </mxCell>
        <mxCell id="PSoQCI4-vHWEwBXf56jb-25" value="" style="shape=partialRectangle;collapsible=0;dropTarget=0;pointerEvents=0;fillColor=none;top=0;left=0;bottom=0;right=0;points=[[0,0.5],[1,0.5]];portConstraint=eastwest;" vertex="1" parent="PSoQCI4-vHWEwBXf56jb-15">
          <mxGeometry y="110" width="180" height="30" as="geometry" />
        </mxCell>
        <mxCell id="PSoQCI4-vHWEwBXf56jb-26" value="" style="shape=partialRectangle;connectable=0;fillColor=none;top=0;left=0;bottom=0;right=0;editable=1;overflow=hidden;" vertex="1" parent="PSoQCI4-vHWEwBXf56jb-25">
          <mxGeometry width="30" height="30" as="geometry" />
        </mxCell>
        <mxCell id="PSoQCI4-vHWEwBXf56jb-27" value="bath_count" style="shape=partialRectangle;connectable=0;fillColor=none;top=0;left=0;bottom=0;right=0;align=left;spacingLeft=6;overflow=hidden;" vertex="1" parent="PSoQCI4-vHWEwBXf56jb-25">
          <mxGeometry x="30" width="150" height="30" as="geometry" />
        </mxCell>
        <mxCell id="PSoQCI4-vHWEwBXf56jb-98" style="shape=partialRectangle;collapsible=0;dropTarget=0;pointerEvents=0;fillColor=none;top=0;left=0;bottom=0;right=0;points=[[0,0.5],[1,0.5]];portConstraint=eastwest;" vertex="1" parent="PSoQCI4-vHWEwBXf56jb-15">
          <mxGeometry y="140" width="180" height="30" as="geometry" />
        </mxCell>
        <mxCell id="PSoQCI4-vHWEwBXf56jb-99" style="shape=partialRectangle;connectable=0;fillColor=none;top=0;left=0;bottom=0;right=0;editable=1;overflow=hidden;" vertex="1" parent="PSoQCI4-vHWEwBXf56jb-98">
          <mxGeometry width="30" height="30" as="geometry" />
        </mxCell>
        <mxCell id="PSoQCI4-vHWEwBXf56jb-100" value="square_footage" style="shape=partialRectangle;connectable=0;fillColor=none;top=0;left=0;bottom=0;right=0;align=left;spacingLeft=6;overflow=hidden;" vertex="1" parent="PSoQCI4-vHWEwBXf56jb-98">
          <mxGeometry x="30" width="150" height="30" as="geometry" />
        </mxCell>
        <mxCell id="PSoQCI4-vHWEwBXf56jb-28" value="PropertySales" style="shape=table;startSize=30;container=1;collapsible=1;childLayout=tableLayout;fixedRows=1;rowLines=0;fontStyle=1;align=center;resizeLast=1;" vertex="1" parent="PSoQCI4-vHWEwBXf56jb-1">
          <mxGeometry x="480" y="480" width="180" height="160" as="geometry" />
        </mxCell>
        <mxCell id="PSoQCI4-vHWEwBXf56jb-29" value="" style="shape=partialRectangle;collapsible=0;dropTarget=0;pointerEvents=0;fillColor=none;top=0;left=0;bottom=1;right=0;points=[[0,0.5],[1,0.5]];portConstraint=eastwest;" vertex="1" parent="PSoQCI4-vHWEwBXf56jb-28">
          <mxGeometry y="30" width="180" height="30" as="geometry" />
        </mxCell>
        <mxCell id="PSoQCI4-vHWEwBXf56jb-30" value="PK" style="shape=partialRectangle;connectable=0;fillColor=none;top=0;left=0;bottom=0;right=0;fontStyle=1;overflow=hidden;" vertex="1" parent="PSoQCI4-vHWEwBXf56jb-29">
          <mxGeometry width="30" height="30" as="geometry" />
        </mxCell>
        <mxCell id="PSoQCI4-vHWEwBXf56jb-31" value="UniqueID" style="shape=partialRectangle;connectable=0;fillColor=none;top=0;left=0;bottom=0;right=0;align=left;spacingLeft=6;fontStyle=5;overflow=hidden;" vertex="1" parent="PSoQCI4-vHWEwBXf56jb-29">
          <mxGeometry x="30" width="150" height="30" as="geometry" />
        </mxCell>
        <mxCell id="PSoQCI4-vHWEwBXf56jb-32" value="" style="shape=partialRectangle;collapsible=0;dropTarget=0;pointerEvents=0;fillColor=none;top=0;left=0;bottom=0;right=0;points=[[0,0.5],[1,0.5]];portConstraint=eastwest;" vertex="1" parent="PSoQCI4-vHWEwBXf56jb-28">
          <mxGeometry y="60" width="180" height="30" as="geometry" />
        </mxCell>
        <mxCell id="PSoQCI4-vHWEwBXf56jb-33" value="" style="shape=partialRectangle;connectable=0;fillColor=none;top=0;left=0;bottom=0;right=0;editable=1;overflow=hidden;" vertex="1" parent="PSoQCI4-vHWEwBXf56jb-32">
          <mxGeometry width="30" height="30" as="geometry" />
        </mxCell>
        <mxCell id="PSoQCI4-vHWEwBXf56jb-34" value="sale_date" style="shape=partialRectangle;connectable=0;fillColor=none;top=0;left=0;bottom=0;right=0;align=left;spacingLeft=6;overflow=hidden;" vertex="1" parent="PSoQCI4-vHWEwBXf56jb-32">
          <mxGeometry x="30" width="150" height="30" as="geometry" />
        </mxCell>
        <mxCell id="PSoQCI4-vHWEwBXf56jb-35" value="" style="shape=partialRectangle;collapsible=0;dropTarget=0;pointerEvents=0;fillColor=none;top=0;left=0;bottom=0;right=0;points=[[0,0.5],[1,0.5]];portConstraint=eastwest;" vertex="1" parent="PSoQCI4-vHWEwBXf56jb-28">
          <mxGeometry y="90" width="180" height="30" as="geometry" />
        </mxCell>
        <mxCell id="PSoQCI4-vHWEwBXf56jb-36" value="" style="shape=partialRectangle;connectable=0;fillColor=none;top=0;left=0;bottom=0;right=0;editable=1;overflow=hidden;" vertex="1" parent="PSoQCI4-vHWEwBXf56jb-35">
          <mxGeometry width="30" height="30" as="geometry" />
        </mxCell>
        <mxCell id="PSoQCI4-vHWEwBXf56jb-37" value="sale_price" style="shape=partialRectangle;connectable=0;fillColor=none;top=0;left=0;bottom=0;right=0;align=left;spacingLeft=6;overflow=hidden;" vertex="1" parent="PSoQCI4-vHWEwBXf56jb-35">
          <mxGeometry x="30" width="150" height="30" as="geometry" />
        </mxCell>
        <mxCell id="PSoQCI4-vHWEwBXf56jb-38" value="" style="shape=partialRectangle;collapsible=0;dropTarget=0;pointerEvents=0;fillColor=none;top=0;left=0;bottom=0;right=0;points=[[0,0.5],[1,0.5]];portConstraint=eastwest;" vertex="1" parent="PSoQCI4-vHWEwBXf56jb-28">
          <mxGeometry y="120" width="180" height="30" as="geometry" />
        </mxCell>
        <mxCell id="PSoQCI4-vHWEwBXf56jb-39" value="" style="shape=partialRectangle;connectable=0;fillColor=none;top=0;left=0;bottom=0;right=0;editable=1;overflow=hidden;" vertex="1" parent="PSoQCI4-vHWEwBXf56jb-38">
          <mxGeometry width="30" height="30" as="geometry" />
        </mxCell>
        <mxCell id="PSoQCI4-vHWEwBXf56jb-40" value="" style="shape=partialRectangle;connectable=0;fillColor=none;top=0;left=0;bottom=0;right=0;align=left;spacingLeft=6;overflow=hidden;" vertex="1" parent="PSoQCI4-vHWEwBXf56jb-38">
          <mxGeometry x="30" width="150" height="30" as="geometry" />
        </mxCell>
        <mxCell id="PSoQCI4-vHWEwBXf56jb-41" value="ZipCode" style="shape=table;startSize=30;container=1;collapsible=1;childLayout=tableLayout;fixedRows=1;rowLines=0;fontStyle=1;align=center;resizeLast=1;" vertex="1" parent="PSoQCI4-vHWEwBXf56jb-1">
          <mxGeometry x="430" y="290" width="180" height="160" as="geometry" />
        </mxCell>
        <mxCell id="PSoQCI4-vHWEwBXf56jb-42" value="" style="shape=partialRectangle;collapsible=0;dropTarget=0;pointerEvents=0;fillColor=none;top=0;left=0;bottom=1;right=0;points=[[0,0.5],[1,0.5]];portConstraint=eastwest;" vertex="1" parent="PSoQCI4-vHWEwBXf56jb-41">
          <mxGeometry y="30" width="180" height="30" as="geometry" />
        </mxCell>
        <mxCell id="PSoQCI4-vHWEwBXf56jb-43" value="PK" style="shape=partialRectangle;connectable=0;fillColor=none;top=0;left=0;bottom=0;right=0;fontStyle=1;overflow=hidden;" vertex="1" parent="PSoQCI4-vHWEwBXf56jb-42">
          <mxGeometry width="30" height="30" as="geometry" />
        </mxCell>
        <mxCell id="PSoQCI4-vHWEwBXf56jb-44" value="UniqueID" style="shape=partialRectangle;connectable=0;fillColor=none;top=0;left=0;bottom=0;right=0;align=left;spacingLeft=6;fontStyle=5;overflow=hidden;" vertex="1" parent="PSoQCI4-vHWEwBXf56jb-42">
          <mxGeometry x="30" width="150" height="30" as="geometry" />
        </mxCell>
        <mxCell id="PSoQCI4-vHWEwBXf56jb-45" value="" style="shape=partialRectangle;collapsible=0;dropTarget=0;pointerEvents=0;fillColor=none;top=0;left=0;bottom=0;right=0;points=[[0,0.5],[1,0.5]];portConstraint=eastwest;" vertex="1" parent="PSoQCI4-vHWEwBXf56jb-41">
          <mxGeometry y="60" width="180" height="30" as="geometry" />
        </mxCell>
        <mxCell id="PSoQCI4-vHWEwBXf56jb-46" value="" style="shape=partialRectangle;connectable=0;fillColor=none;top=0;left=0;bottom=0;right=0;editable=1;overflow=hidden;" vertex="1" parent="PSoQCI4-vHWEwBXf56jb-45">
          <mxGeometry width="30" height="30" as="geometry" />
        </mxCell>
        <mxCell id="PSoQCI4-vHWEwBXf56jb-47" value="zip_code" style="shape=partialRectangle;connectable=0;fillColor=none;top=0;left=0;bottom=0;right=0;align=left;spacingLeft=6;overflow=hidden;" vertex="1" parent="PSoQCI4-vHWEwBXf56jb-45">
          <mxGeometry x="30" width="150" height="30" as="geometry" />
        </mxCell>
        <mxCell id="PSoQCI4-vHWEwBXf56jb-48" value="" style="shape=partialRectangle;collapsible=0;dropTarget=0;pointerEvents=0;fillColor=none;top=0;left=0;bottom=0;right=0;points=[[0,0.5],[1,0.5]];portConstraint=eastwest;" vertex="1" parent="PSoQCI4-vHWEwBXf56jb-41">
          <mxGeometry y="90" width="180" height="30" as="geometry" />
        </mxCell>
        <mxCell id="PSoQCI4-vHWEwBXf56jb-49" value="" style="shape=partialRectangle;connectable=0;fillColor=none;top=0;left=0;bottom=0;right=0;editable=1;overflow=hidden;" vertex="1" parent="PSoQCI4-vHWEwBXf56jb-48">
          <mxGeometry width="30" height="30" as="geometry" />
        </mxCell>
        <mxCell id="PSoQCI4-vHWEwBXf56jb-50" value="is_postal_zip" style="shape=partialRectangle;connectable=0;fillColor=none;top=0;left=0;bottom=0;right=0;align=left;spacingLeft=6;overflow=hidden;" vertex="1" parent="PSoQCI4-vHWEwBXf56jb-48">
          <mxGeometry x="30" width="150" height="30" as="geometry" />
        </mxCell>
        <mxCell id="PSoQCI4-vHWEwBXf56jb-51" value="" style="shape=partialRectangle;collapsible=0;dropTarget=0;pointerEvents=0;fillColor=none;top=0;left=0;bottom=0;right=0;points=[[0,0.5],[1,0.5]];portConstraint=eastwest;" vertex="1" parent="PSoQCI4-vHWEwBXf56jb-41">
          <mxGeometry y="120" width="180" height="30" as="geometry" />
        </mxCell>
        <mxCell id="PSoQCI4-vHWEwBXf56jb-52" value="" style="shape=partialRectangle;connectable=0;fillColor=none;top=0;left=0;bottom=0;right=0;editable=1;overflow=hidden;" vertex="1" parent="PSoQCI4-vHWEwBXf56jb-51">
          <mxGeometry width="30" height="30" as="geometry" />
        </mxCell>
        <mxCell id="PSoQCI4-vHWEwBXf56jb-53" value="" style="shape=partialRectangle;connectable=0;fillColor=none;top=0;left=0;bottom=0;right=0;align=left;spacingLeft=6;overflow=hidden;" vertex="1" parent="PSoQCI4-vHWEwBXf56jb-51">
          <mxGeometry x="30" width="150" height="30" as="geometry" />
        </mxCell>
        <mxCell id="PSoQCI4-vHWEwBXf56jb-55" style="edgeStyle=orthogonalEdgeStyle;rounded=0;orthogonalLoop=1;jettySize=auto;html=1;entryX=0;entryY=0.167;entryDx=0;entryDy=0;entryPerimeter=0;startArrow=ERmandOne;startFill=0;endArrow=ERoneToMany;endFill=0;strokeWidth=3;" edge="1" parent="PSoQCI4-vHWEwBXf56jb-1" source="PSoQCI4-vHWEwBXf56jb-19" target="PSoQCI4-vHWEwBXf56jb-32">
          <mxGeometry relative="1" as="geometry" />
        </mxCell>
        <mxCell id="PSoQCI4-vHWEwBXf56jb-56" value="State" style="shape=table;startSize=30;container=1;collapsible=1;childLayout=tableLayout;fixedRows=1;rowLines=0;fontStyle=1;align=center;resizeLast=1;" vertex="1" parent="PSoQCI4-vHWEwBXf56jb-1">
          <mxGeometry x="410" width="180" height="160" as="geometry" />
        </mxCell>
        <mxCell id="PSoQCI4-vHWEwBXf56jb-57" value="" style="shape=partialRectangle;collapsible=0;dropTarget=0;pointerEvents=0;fillColor=none;top=0;left=0;bottom=1;right=0;points=[[0,0.5],[1,0.5]];portConstraint=eastwest;" vertex="1" parent="PSoQCI4-vHWEwBXf56jb-56">
          <mxGeometry y="30" width="180" height="30" as="geometry" />
        </mxCell>
        <mxCell id="PSoQCI4-vHWEwBXf56jb-58" value="PK" style="shape=partialRectangle;connectable=0;fillColor=none;top=0;left=0;bottom=0;right=0;fontStyle=1;overflow=hidden;" vertex="1" parent="PSoQCI4-vHWEwBXf56jb-57">
          <mxGeometry width="30" height="30" as="geometry" />
        </mxCell>
        <mxCell id="PSoQCI4-vHWEwBXf56jb-59" value="UniqueID" style="shape=partialRectangle;connectable=0;fillColor=none;top=0;left=0;bottom=0;right=0;align=left;spacingLeft=6;fontStyle=5;overflow=hidden;" vertex="1" parent="PSoQCI4-vHWEwBXf56jb-57">
          <mxGeometry x="30" width="150" height="30" as="geometry" />
        </mxCell>
        <mxCell id="PSoQCI4-vHWEwBXf56jb-60" value="" style="shape=partialRectangle;collapsible=0;dropTarget=0;pointerEvents=0;fillColor=none;top=0;left=0;bottom=0;right=0;points=[[0,0.5],[1,0.5]];portConstraint=eastwest;" vertex="1" parent="PSoQCI4-vHWEwBXf56jb-56">
          <mxGeometry y="60" width="180" height="30" as="geometry" />
        </mxCell>
        <mxCell id="PSoQCI4-vHWEwBXf56jb-61" value="" style="shape=partialRectangle;connectable=0;fillColor=none;top=0;left=0;bottom=0;right=0;editable=1;overflow=hidden;" vertex="1" parent="PSoQCI4-vHWEwBXf56jb-60">
          <mxGeometry width="30" height="30" as="geometry" />
        </mxCell>
        <mxCell id="PSoQCI4-vHWEwBXf56jb-62" value="state_name" style="shape=partialRectangle;connectable=0;fillColor=none;top=0;left=0;bottom=0;right=0;align=left;spacingLeft=6;overflow=hidden;" vertex="1" parent="PSoQCI4-vHWEwBXf56jb-60">
          <mxGeometry x="30" width="150" height="30" as="geometry" />
        </mxCell>
        <mxCell id="PSoQCI4-vHWEwBXf56jb-63" value="" style="shape=partialRectangle;collapsible=0;dropTarget=0;pointerEvents=0;fillColor=none;top=0;left=0;bottom=0;right=0;points=[[0,0.5],[1,0.5]];portConstraint=eastwest;" vertex="1" parent="PSoQCI4-vHWEwBXf56jb-56">
          <mxGeometry y="90" width="180" height="30" as="geometry" />
        </mxCell>
        <mxCell id="PSoQCI4-vHWEwBXf56jb-64" value="" style="shape=partialRectangle;connectable=0;fillColor=none;top=0;left=0;bottom=0;right=0;editable=1;overflow=hidden;" vertex="1" parent="PSoQCI4-vHWEwBXf56jb-63">
          <mxGeometry width="30" height="30" as="geometry" />
        </mxCell>
        <mxCell id="PSoQCI4-vHWEwBXf56jb-65" value="" style="shape=partialRectangle;connectable=0;fillColor=none;top=0;left=0;bottom=0;right=0;align=left;spacingLeft=6;overflow=hidden;" vertex="1" parent="PSoQCI4-vHWEwBXf56jb-63">
          <mxGeometry x="30" width="150" height="30" as="geometry" />
        </mxCell>
        <mxCell id="PSoQCI4-vHWEwBXf56jb-66" value="" style="shape=partialRectangle;collapsible=0;dropTarget=0;pointerEvents=0;fillColor=none;top=0;left=0;bottom=0;right=0;points=[[0,0.5],[1,0.5]];portConstraint=eastwest;" vertex="1" parent="PSoQCI4-vHWEwBXf56jb-56">
          <mxGeometry y="120" width="180" height="30" as="geometry" />
        </mxCell>
        <mxCell id="PSoQCI4-vHWEwBXf56jb-67" value="" style="shape=partialRectangle;connectable=0;fillColor=none;top=0;left=0;bottom=0;right=0;editable=1;overflow=hidden;" vertex="1" parent="PSoQCI4-vHWEwBXf56jb-66">
          <mxGeometry width="30" height="30" as="geometry" />
        </mxCell>
        <mxCell id="PSoQCI4-vHWEwBXf56jb-68" value="" style="shape=partialRectangle;connectable=0;fillColor=none;top=0;left=0;bottom=0;right=0;align=left;spacingLeft=6;overflow=hidden;" vertex="1" parent="PSoQCI4-vHWEwBXf56jb-66">
          <mxGeometry x="30" width="150" height="30" as="geometry" />
        </mxCell>
        <mxCell id="PSoQCI4-vHWEwBXf56jb-96" style="edgeStyle=orthogonalEdgeStyle;rounded=0;orthogonalLoop=1;jettySize=auto;html=1;startArrow=ERmandOne;startFill=0;endArrow=ERoneToMany;endFill=0;strokeWidth=3;" edge="1" parent="PSoQCI4-vHWEwBXf56jb-1" source="PSoQCI4-vHWEwBXf56jb-82" target="PSoQCI4-vHWEwBXf56jb-41">
          <mxGeometry relative="1" as="geometry" />
        </mxCell>
        <mxCell id="PSoQCI4-vHWEwBXf56jb-82" value="City" style="shape=table;startSize=30;container=1;collapsible=1;childLayout=tableLayout;fixedRows=1;rowLines=0;fontStyle=1;align=center;resizeLast=1;" vertex="1" parent="PSoQCI4-vHWEwBXf56jb-1">
          <mxGeometry x="640" y="110" width="180" height="160" as="geometry" />
        </mxCell>
        <mxCell id="PSoQCI4-vHWEwBXf56jb-83" value="" style="shape=partialRectangle;collapsible=0;dropTarget=0;pointerEvents=0;fillColor=none;top=0;left=0;bottom=1;right=0;points=[[0,0.5],[1,0.5]];portConstraint=eastwest;" vertex="1" parent="PSoQCI4-vHWEwBXf56jb-82">
          <mxGeometry y="30" width="180" height="30" as="geometry" />
        </mxCell>
        <mxCell id="PSoQCI4-vHWEwBXf56jb-84" value="PK" style="shape=partialRectangle;connectable=0;fillColor=none;top=0;left=0;bottom=0;right=0;fontStyle=1;overflow=hidden;" vertex="1" parent="PSoQCI4-vHWEwBXf56jb-83">
          <mxGeometry width="30" height="30" as="geometry" />
        </mxCell>
        <mxCell id="PSoQCI4-vHWEwBXf56jb-85" value="UniqueID" style="shape=partialRectangle;connectable=0;fillColor=none;top=0;left=0;bottom=0;right=0;align=left;spacingLeft=6;fontStyle=5;overflow=hidden;" vertex="1" parent="PSoQCI4-vHWEwBXf56jb-83">
          <mxGeometry x="30" width="150" height="30" as="geometry" />
        </mxCell>
        <mxCell id="PSoQCI4-vHWEwBXf56jb-86" value="" style="shape=partialRectangle;collapsible=0;dropTarget=0;pointerEvents=0;fillColor=none;top=0;left=0;bottom=0;right=0;points=[[0,0.5],[1,0.5]];portConstraint=eastwest;" vertex="1" parent="PSoQCI4-vHWEwBXf56jb-82">
          <mxGeometry y="60" width="180" height="30" as="geometry" />
        </mxCell>
        <mxCell id="PSoQCI4-vHWEwBXf56jb-87" value="" style="shape=partialRectangle;connectable=0;fillColor=none;top=0;left=0;bottom=0;right=0;editable=1;overflow=hidden;" vertex="1" parent="PSoQCI4-vHWEwBXf56jb-86">
          <mxGeometry width="30" height="30" as="geometry" />
        </mxCell>
        <mxCell id="PSoQCI4-vHWEwBXf56jb-88" value="city_name" style="shape=partialRectangle;connectable=0;fillColor=none;top=0;left=0;bottom=0;right=0;align=left;spacingLeft=6;overflow=hidden;" vertex="1" parent="PSoQCI4-vHWEwBXf56jb-86">
          <mxGeometry x="30" width="150" height="30" as="geometry" />
        </mxCell>
        <mxCell id="PSoQCI4-vHWEwBXf56jb-89" value="" style="shape=partialRectangle;collapsible=0;dropTarget=0;pointerEvents=0;fillColor=none;top=0;left=0;bottom=0;right=0;points=[[0,0.5],[1,0.5]];portConstraint=eastwest;" vertex="1" parent="PSoQCI4-vHWEwBXf56jb-82">
          <mxGeometry y="90" width="180" height="30" as="geometry" />
        </mxCell>
        <mxCell id="PSoQCI4-vHWEwBXf56jb-90" value="" style="shape=partialRectangle;connectable=0;fillColor=none;top=0;left=0;bottom=0;right=0;editable=1;overflow=hidden;" vertex="1" parent="PSoQCI4-vHWEwBXf56jb-89">
          <mxGeometry width="30" height="30" as="geometry" />
        </mxCell>
        <mxCell id="PSoQCI4-vHWEwBXf56jb-91" value="population" style="shape=partialRectangle;connectable=0;fillColor=none;top=0;left=0;bottom=0;right=0;align=left;spacingLeft=6;overflow=hidden;" vertex="1" parent="PSoQCI4-vHWEwBXf56jb-89">
          <mxGeometry x="30" width="150" height="30" as="geometry" />
        </mxCell>
        <mxCell id="PSoQCI4-vHWEwBXf56jb-92" value="" style="shape=partialRectangle;collapsible=0;dropTarget=0;pointerEvents=0;fillColor=none;top=0;left=0;bottom=0;right=0;points=[[0,0.5],[1,0.5]];portConstraint=eastwest;" vertex="1" parent="PSoQCI4-vHWEwBXf56jb-82">
          <mxGeometry y="120" width="180" height="30" as="geometry" />
        </mxCell>
        <mxCell id="PSoQCI4-vHWEwBXf56jb-93" value="" style="shape=partialRectangle;connectable=0;fillColor=none;top=0;left=0;bottom=0;right=0;editable=1;overflow=hidden;" vertex="1" parent="PSoQCI4-vHWEwBXf56jb-92">
          <mxGeometry width="30" height="30" as="geometry" />
        </mxCell>
        <mxCell id="PSoQCI4-vHWEwBXf56jb-94" value="" style="shape=partialRectangle;connectable=0;fillColor=none;top=0;left=0;bottom=0;right=0;align=left;spacingLeft=6;overflow=hidden;" vertex="1" parent="PSoQCI4-vHWEwBXf56jb-92">
          <mxGeometry x="30" width="150" height="30" as="geometry" />
        </mxCell>
        <mxCell id="PSoQCI4-vHWEwBXf56jb-95" style="edgeStyle=orthogonalEdgeStyle;rounded=0;orthogonalLoop=1;jettySize=auto;html=1;entryX=0.561;entryY=0.013;entryDx=0;entryDy=0;entryPerimeter=0;startArrow=ERmandOne;startFill=0;endArrow=ERoneToMany;endFill=0;strokeWidth=3;" edge="1" parent="PSoQCI4-vHWEwBXf56jb-1" source="PSoQCI4-vHWEwBXf56jb-57" target="PSoQCI4-vHWEwBXf56jb-82">
          <mxGeometry relative="1" as="geometry" />
        </mxCell>
        <mxCell id="PSoQCI4-vHWEwBXf56jb-97" style="edgeStyle=orthogonalEdgeStyle;rounded=0;orthogonalLoop=1;jettySize=auto;html=1;entryX=0.844;entryY=0.013;entryDx=0;entryDy=0;entryPerimeter=0;startArrow=ERmandOne;startFill=0;endArrow=ERoneToMany;endFill=0;strokeWidth=3;" edge="1" parent="PSoQCI4-vHWEwBXf56jb-1" source="PSoQCI4-vHWEwBXf56jb-45" target="PSoQCI4-vHWEwBXf56jb-15">
          <mxGeometry relative="1" as="geometry" />
        </mxCell>
      </root>
    </mxGraphModel>
  </diagram>
  <diagram id="Z3qFqSUs5kk68rU2qKNA" name="Week3 DQ Lab">
    <mxGraphModel dx="705" dy="851" grid="1" gridSize="10" guides="1" tooltips="1" connect="1" arrows="1" fold="1" page="1" pageScale="1" pageWidth="850" pageHeight="1100" math="0" shadow="0">
      <root>
        <mxCell id="5IGbXjvzAPZyFcgGBxD8-0" />
        <mxCell id="5IGbXjvzAPZyFcgGBxD8-1" parent="5IGbXjvzAPZyFcgGBxD8-0" />
        <mxCell id="RBRn5nzX2XxaJBTWMqMU-43" value="ZipCode" style="shape=table;startSize=30;container=1;collapsible=1;childLayout=tableLayout;fixedRows=1;rowLines=0;fontStyle=1;align=center;resizeLast=1;" vertex="1" parent="5IGbXjvzAPZyFcgGBxD8-1">
          <mxGeometry x="330" y="880" width="490.0000000000001" height="190" as="geometry" />
        </mxCell>
        <mxCell id="RBRn5nzX2XxaJBTWMqMU-44" value="" style="shape=partialRectangle;collapsible=0;dropTarget=0;pointerEvents=0;fillColor=none;top=0;left=0;bottom=1;right=0;points=[[0,0.5],[1,0.5]];portConstraint=eastwest;" vertex="1" parent="RBRn5nzX2XxaJBTWMqMU-43">
          <mxGeometry y="30" width="490.0000000000001" height="30" as="geometry" />
        </mxCell>
        <mxCell id="RBRn5nzX2XxaJBTWMqMU-45" value="PK" style="shape=partialRectangle;connectable=0;fillColor=none;top=0;left=0;bottom=0;right=0;fontStyle=1;overflow=hidden;" vertex="1" parent="RBRn5nzX2XxaJBTWMqMU-44">
          <mxGeometry width="30" height="30" as="geometry" />
        </mxCell>
        <mxCell id="RBRn5nzX2XxaJBTWMqMU-46" value="UniqueID" style="shape=partialRectangle;connectable=0;fillColor=none;top=0;left=0;bottom=0;right=0;align=left;spacingLeft=6;fontStyle=5;overflow=hidden;" vertex="1" parent="RBRn5nzX2XxaJBTWMqMU-44">
          <mxGeometry x="30" width="80.00000000000011" height="30" as="geometry" />
        </mxCell>
        <mxCell id="RBRn5nzX2XxaJBTWMqMU-112" value="Reference Table" style="shape=partialRectangle;connectable=0;fillColor=none;top=0;left=0;bottom=0;right=0;align=left;spacingLeft=6;fontStyle=5;overflow=hidden;" vertex="1" parent="RBRn5nzX2XxaJBTWMqMU-44">
          <mxGeometry x="110.00000000000011" width="120" height="30" as="geometry" />
        </mxCell>
        <mxCell id="RBRn5nzX2XxaJBTWMqMU-116" value="References Table PK" style="shape=partialRectangle;connectable=0;fillColor=none;top=0;left=0;bottom=0;right=0;align=left;spacingLeft=6;fontStyle=5;overflow=hidden;" vertex="1" parent="RBRn5nzX2XxaJBTWMqMU-44">
          <mxGeometry x="230.0000000000001" width="130" height="30" as="geometry" />
        </mxCell>
        <mxCell id="RBRn5nzX2XxaJBTWMqMU-349" value="SQL" style="shape=partialRectangle;connectable=0;fillColor=none;top=0;left=0;bottom=0;right=0;align=left;spacingLeft=6;fontStyle=5;overflow=hidden;" vertex="1" parent="RBRn5nzX2XxaJBTWMqMU-44">
          <mxGeometry x="360.0000000000001" width="130" height="30" as="geometry" />
        </mxCell>
        <mxCell id="RBRn5nzX2XxaJBTWMqMU-245" style="shape=partialRectangle;collapsible=0;dropTarget=0;pointerEvents=0;fillColor=none;top=0;left=0;bottom=0;right=0;points=[[0,0.5],[1,0.5]];portConstraint=eastwest;" vertex="1" parent="RBRn5nzX2XxaJBTWMqMU-43">
          <mxGeometry y="60" width="490.0000000000001" height="30" as="geometry" />
        </mxCell>
        <mxCell id="RBRn5nzX2XxaJBTWMqMU-246" value="PK" style="shape=partialRectangle;connectable=0;fillColor=none;top=0;left=0;bottom=0;right=0;editable=1;overflow=hidden;" vertex="1" parent="RBRn5nzX2XxaJBTWMqMU-245">
          <mxGeometry width="30" height="30" as="geometry" />
        </mxCell>
        <mxCell id="RBRn5nzX2XxaJBTWMqMU-247" value="id" style="shape=partialRectangle;connectable=0;fillColor=none;top=0;left=0;bottom=0;right=0;align=left;spacingLeft=6;overflow=hidden;" vertex="1" parent="RBRn5nzX2XxaJBTWMqMU-245">
          <mxGeometry x="30" width="80.00000000000011" height="30" as="geometry" />
        </mxCell>
        <mxCell id="RBRn5nzX2XxaJBTWMqMU-248" style="shape=partialRectangle;connectable=0;fillColor=none;top=0;left=0;bottom=0;right=0;align=left;spacingLeft=6;overflow=hidden;" vertex="1" parent="RBRn5nzX2XxaJBTWMqMU-245">
          <mxGeometry x="110.00000000000011" width="120" height="30" as="geometry" />
        </mxCell>
        <mxCell id="RBRn5nzX2XxaJBTWMqMU-249" value="int primary key&#xa; auto_increment" style="shape=partialRectangle;connectable=0;fillColor=none;top=0;left=0;bottom=0;right=0;align=left;spacingLeft=6;overflow=hidden;" vertex="1" parent="RBRn5nzX2XxaJBTWMqMU-245">
          <mxGeometry x="230.0000000000001" width="130" height="30" as="geometry" />
        </mxCell>
        <mxCell id="RBRn5nzX2XxaJBTWMqMU-350" value="int primary key &#xa;auto_increment" style="shape=partialRectangle;connectable=0;fillColor=none;top=0;left=0;bottom=0;right=0;align=left;spacingLeft=6;overflow=hidden;" vertex="1" parent="RBRn5nzX2XxaJBTWMqMU-245">
          <mxGeometry x="360.0000000000001" width="130" height="30" as="geometry" />
        </mxCell>
        <mxCell id="RBRn5nzX2XxaJBTWMqMU-47" value="" style="shape=partialRectangle;collapsible=0;dropTarget=0;pointerEvents=0;fillColor=none;top=0;left=0;bottom=0;right=0;points=[[0,0.5],[1,0.5]];portConstraint=eastwest;" vertex="1" parent="RBRn5nzX2XxaJBTWMqMU-43">
          <mxGeometry y="90" width="490.0000000000001" height="30" as="geometry" />
        </mxCell>
        <mxCell id="RBRn5nzX2XxaJBTWMqMU-48" value="" style="shape=partialRectangle;connectable=0;fillColor=none;top=0;left=0;bottom=0;right=0;editable=1;overflow=hidden;" vertex="1" parent="RBRn5nzX2XxaJBTWMqMU-47">
          <mxGeometry width="30" height="30" as="geometry" />
        </mxCell>
        <mxCell id="RBRn5nzX2XxaJBTWMqMU-49" value="zip_code" style="shape=partialRectangle;connectable=0;fillColor=none;top=0;left=0;bottom=0;right=0;align=left;spacingLeft=6;overflow=hidden;" vertex="1" parent="RBRn5nzX2XxaJBTWMqMU-47">
          <mxGeometry x="30" width="80.00000000000011" height="30" as="geometry" />
        </mxCell>
        <mxCell id="RBRn5nzX2XxaJBTWMqMU-113" style="shape=partialRectangle;connectable=0;fillColor=none;top=0;left=0;bottom=0;right=0;align=left;spacingLeft=6;overflow=hidden;" vertex="1" parent="RBRn5nzX2XxaJBTWMqMU-47">
          <mxGeometry x="110.00000000000011" width="120" height="30" as="geometry" />
        </mxCell>
        <mxCell id="RBRn5nzX2XxaJBTWMqMU-117" style="shape=partialRectangle;connectable=0;fillColor=none;top=0;left=0;bottom=0;right=0;align=left;spacingLeft=6;overflow=hidden;" vertex="1" parent="RBRn5nzX2XxaJBTWMqMU-47">
          <mxGeometry x="230.0000000000001" width="130" height="30" as="geometry" />
        </mxCell>
        <mxCell id="RBRn5nzX2XxaJBTWMqMU-351" value="varchar(11)" style="shape=partialRectangle;connectable=0;fillColor=none;top=0;left=0;bottom=0;right=0;align=left;spacingLeft=6;overflow=hidden;" vertex="1" parent="RBRn5nzX2XxaJBTWMqMU-47">
          <mxGeometry x="360.0000000000001" width="130" height="30" as="geometry" />
        </mxCell>
        <mxCell id="RBRn5nzX2XxaJBTWMqMU-50" value="" style="shape=partialRectangle;collapsible=0;dropTarget=0;pointerEvents=0;fillColor=none;top=0;left=0;bottom=0;right=0;points=[[0,0.5],[1,0.5]];portConstraint=eastwest;" vertex="1" parent="RBRn5nzX2XxaJBTWMqMU-43">
          <mxGeometry y="120" width="490.0000000000001" height="30" as="geometry" />
        </mxCell>
        <mxCell id="RBRn5nzX2XxaJBTWMqMU-51" value="" style="shape=partialRectangle;connectable=0;fillColor=none;top=0;left=0;bottom=0;right=0;editable=1;overflow=hidden;" vertex="1" parent="RBRn5nzX2XxaJBTWMqMU-50">
          <mxGeometry width="30" height="30" as="geometry" />
        </mxCell>
        <mxCell id="RBRn5nzX2XxaJBTWMqMU-52" value="is_postal_zip" style="shape=partialRectangle;connectable=0;fillColor=none;top=0;left=0;bottom=0;right=0;align=left;spacingLeft=6;overflow=hidden;" vertex="1" parent="RBRn5nzX2XxaJBTWMqMU-50">
          <mxGeometry x="30" width="80.00000000000011" height="30" as="geometry" />
        </mxCell>
        <mxCell id="RBRn5nzX2XxaJBTWMqMU-114" style="shape=partialRectangle;connectable=0;fillColor=none;top=0;left=0;bottom=0;right=0;align=left;spacingLeft=6;overflow=hidden;" vertex="1" parent="RBRn5nzX2XxaJBTWMqMU-50">
          <mxGeometry x="110.00000000000011" width="120" height="30" as="geometry" />
        </mxCell>
        <mxCell id="RBRn5nzX2XxaJBTWMqMU-118" style="shape=partialRectangle;connectable=0;fillColor=none;top=0;left=0;bottom=0;right=0;align=left;spacingLeft=6;overflow=hidden;" vertex="1" parent="RBRn5nzX2XxaJBTWMqMU-50">
          <mxGeometry x="230.0000000000001" width="130" height="30" as="geometry" />
        </mxCell>
        <mxCell id="RBRn5nzX2XxaJBTWMqMU-352" value="enum(&#39;true&#39;, &#39;false&#39;)" style="shape=partialRectangle;connectable=0;fillColor=none;top=0;left=0;bottom=0;right=0;align=left;spacingLeft=6;overflow=hidden;" vertex="1" parent="RBRn5nzX2XxaJBTWMqMU-50">
          <mxGeometry x="360.0000000000001" width="130" height="30" as="geometry" />
        </mxCell>
        <mxCell id="RBRn5nzX2XxaJBTWMqMU-53" value="" style="shape=partialRectangle;collapsible=0;dropTarget=0;pointerEvents=0;fillColor=none;top=0;left=0;bottom=0;right=0;points=[[0,0.5],[1,0.5]];portConstraint=eastwest;" vertex="1" parent="RBRn5nzX2XxaJBTWMqMU-43">
          <mxGeometry y="150" width="490.0000000000001" height="30" as="geometry" />
        </mxCell>
        <mxCell id="RBRn5nzX2XxaJBTWMqMU-54" value="FK" style="shape=partialRectangle;connectable=0;fillColor=none;top=0;left=0;bottom=0;right=0;editable=1;overflow=hidden;" vertex="1" parent="RBRn5nzX2XxaJBTWMqMU-53">
          <mxGeometry width="30" height="30" as="geometry" />
        </mxCell>
        <mxCell id="RBRn5nzX2XxaJBTWMqMU-55" value="city_id" style="shape=partialRectangle;connectable=0;fillColor=none;top=0;left=0;bottom=0;right=0;align=left;spacingLeft=6;overflow=hidden;" vertex="1" parent="RBRn5nzX2XxaJBTWMqMU-53">
          <mxGeometry x="30" width="80.00000000000011" height="30" as="geometry" />
        </mxCell>
        <mxCell id="RBRn5nzX2XxaJBTWMqMU-115" value="re_city" style="shape=partialRectangle;connectable=0;fillColor=none;top=0;left=0;bottom=0;right=0;align=left;spacingLeft=6;overflow=hidden;" vertex="1" parent="RBRn5nzX2XxaJBTWMqMU-53">
          <mxGeometry x="110.00000000000011" width="120" height="30" as="geometry" />
        </mxCell>
        <mxCell id="RBRn5nzX2XxaJBTWMqMU-119" value="city_id" style="shape=partialRectangle;connectable=0;fillColor=none;top=0;left=0;bottom=0;right=0;align=left;spacingLeft=6;overflow=hidden;" vertex="1" parent="RBRn5nzX2XxaJBTWMqMU-53">
          <mxGeometry x="230.0000000000001" width="130" height="30" as="geometry" />
        </mxCell>
        <mxCell id="RBRn5nzX2XxaJBTWMqMU-353" value="int" style="shape=partialRectangle;connectable=0;fillColor=none;top=0;left=0;bottom=0;right=0;align=left;spacingLeft=6;overflow=hidden;" vertex="1" parent="RBRn5nzX2XxaJBTWMqMU-53">
          <mxGeometry x="360.0000000000001" width="130" height="30" as="geometry" />
        </mxCell>
        <mxCell id="RBRn5nzX2XxaJBTWMqMU-57" value="State" style="shape=table;startSize=30;container=1;collapsible=1;childLayout=tableLayout;fixedRows=1;rowLines=0;fontStyle=1;align=center;resizeLast=1;" vertex="1" parent="5IGbXjvzAPZyFcgGBxD8-1">
          <mxGeometry x="20" y="20" width="369.99999999999994" height="160" as="geometry" />
        </mxCell>
        <mxCell id="RBRn5nzX2XxaJBTWMqMU-58" value="" style="shape=partialRectangle;collapsible=0;dropTarget=0;pointerEvents=0;fillColor=none;top=0;left=0;bottom=1;right=0;points=[[0,0.5],[1,0.5]];portConstraint=eastwest;" vertex="1" parent="RBRn5nzX2XxaJBTWMqMU-57">
          <mxGeometry y="30" width="369.99999999999994" height="30" as="geometry" />
        </mxCell>
        <mxCell id="RBRn5nzX2XxaJBTWMqMU-59" value="PK" style="shape=partialRectangle;connectable=0;fillColor=none;top=0;left=0;bottom=0;right=0;fontStyle=1;overflow=hidden;" vertex="1" parent="RBRn5nzX2XxaJBTWMqMU-58">
          <mxGeometry width="30" height="30" as="geometry" />
        </mxCell>
        <mxCell id="RBRn5nzX2XxaJBTWMqMU-60" value="UniqueID" style="shape=partialRectangle;connectable=0;fillColor=none;top=0;left=0;bottom=0;right=0;align=left;spacingLeft=6;fontStyle=5;overflow=hidden;" vertex="1" parent="RBRn5nzX2XxaJBTWMqMU-58">
          <mxGeometry x="30" width="80.00000000000011" height="30" as="geometry" />
        </mxCell>
        <mxCell id="RBRn5nzX2XxaJBTWMqMU-101" value="ref_table" style="shape=partialRectangle;connectable=0;fillColor=none;top=0;left=0;bottom=0;right=0;align=left;spacingLeft=6;fontStyle=5;overflow=hidden;" vertex="1" parent="RBRn5nzX2XxaJBTWMqMU-58">
          <mxGeometry x="110.00000000000011" width="60" height="30" as="geometry" />
        </mxCell>
        <mxCell id="RBRn5nzX2XxaJBTWMqMU-105" value="ref_field" style="shape=partialRectangle;connectable=0;fillColor=none;top=0;left=0;bottom=0;right=0;align=left;spacingLeft=6;fontStyle=5;overflow=hidden;" vertex="1" parent="RBRn5nzX2XxaJBTWMqMU-58">
          <mxGeometry x="170.0000000000001" width="60.00000000000003" height="30" as="geometry" />
        </mxCell>
        <mxCell id="RBRn5nzX2XxaJBTWMqMU-354" value="SQL" style="shape=partialRectangle;connectable=0;fillColor=none;top=0;left=0;bottom=0;right=0;align=left;spacingLeft=6;fontStyle=5;overflow=hidden;" vertex="1" parent="RBRn5nzX2XxaJBTWMqMU-58">
          <mxGeometry x="230.00000000000014" width="139.9999999999998" height="30" as="geometry" />
        </mxCell>
        <mxCell id="RBRn5nzX2XxaJBTWMqMU-61" value="" style="shape=partialRectangle;collapsible=0;dropTarget=0;pointerEvents=0;fillColor=none;top=0;left=0;bottom=0;right=0;points=[[0,0.5],[1,0.5]];portConstraint=eastwest;" vertex="1" parent="RBRn5nzX2XxaJBTWMqMU-57">
          <mxGeometry y="60" width="369.99999999999994" height="30" as="geometry" />
        </mxCell>
        <mxCell id="RBRn5nzX2XxaJBTWMqMU-62" value="PK" style="shape=partialRectangle;connectable=0;fillColor=none;top=0;left=0;bottom=0;right=0;editable=1;overflow=hidden;" vertex="1" parent="RBRn5nzX2XxaJBTWMqMU-61">
          <mxGeometry width="30" height="30" as="geometry" />
        </mxCell>
        <mxCell id="RBRn5nzX2XxaJBTWMqMU-63" value="id" style="shape=partialRectangle;connectable=0;fillColor=none;top=0;left=0;bottom=0;right=0;align=left;spacingLeft=6;overflow=hidden;" vertex="1" parent="RBRn5nzX2XxaJBTWMqMU-61">
          <mxGeometry x="30" width="80.00000000000011" height="30" as="geometry" />
        </mxCell>
        <mxCell id="RBRn5nzX2XxaJBTWMqMU-102" style="shape=partialRectangle;connectable=0;fillColor=none;top=0;left=0;bottom=0;right=0;align=left;spacingLeft=6;overflow=hidden;" vertex="1" parent="RBRn5nzX2XxaJBTWMqMU-61">
          <mxGeometry x="110.00000000000011" width="60" height="30" as="geometry" />
        </mxCell>
        <mxCell id="RBRn5nzX2XxaJBTWMqMU-106" style="shape=partialRectangle;connectable=0;fillColor=none;top=0;left=0;bottom=0;right=0;align=left;spacingLeft=6;overflow=hidden;" vertex="1" parent="RBRn5nzX2XxaJBTWMqMU-61">
          <mxGeometry x="170.0000000000001" width="60.00000000000003" height="30" as="geometry" />
        </mxCell>
        <mxCell id="RBRn5nzX2XxaJBTWMqMU-355" value="int primary key &#xa;auto_increment" style="shape=partialRectangle;connectable=0;fillColor=none;top=0;left=0;bottom=0;right=0;align=left;spacingLeft=6;overflow=hidden;" vertex="1" parent="RBRn5nzX2XxaJBTWMqMU-61">
          <mxGeometry x="230.00000000000014" width="139.9999999999998" height="30" as="geometry" />
        </mxCell>
        <mxCell id="RBRn5nzX2XxaJBTWMqMU-235" style="shape=partialRectangle;collapsible=0;dropTarget=0;pointerEvents=0;fillColor=none;top=0;left=0;bottom=0;right=0;points=[[0,0.5],[1,0.5]];portConstraint=eastwest;" vertex="1" parent="RBRn5nzX2XxaJBTWMqMU-57">
          <mxGeometry y="90" width="369.99999999999994" height="30" as="geometry" />
        </mxCell>
        <mxCell id="RBRn5nzX2XxaJBTWMqMU-236" style="shape=partialRectangle;connectable=0;fillColor=none;top=0;left=0;bottom=0;right=0;editable=1;overflow=hidden;" vertex="1" parent="RBRn5nzX2XxaJBTWMqMU-235">
          <mxGeometry width="30" height="30" as="geometry" />
        </mxCell>
        <mxCell id="RBRn5nzX2XxaJBTWMqMU-237" value="state_name" style="shape=partialRectangle;connectable=0;fillColor=none;top=0;left=0;bottom=0;right=0;align=left;spacingLeft=6;overflow=hidden;" vertex="1" parent="RBRn5nzX2XxaJBTWMqMU-235">
          <mxGeometry x="30" width="80.00000000000011" height="30" as="geometry" />
        </mxCell>
        <mxCell id="RBRn5nzX2XxaJBTWMqMU-238" style="shape=partialRectangle;connectable=0;fillColor=none;top=0;left=0;bottom=0;right=0;align=left;spacingLeft=6;overflow=hidden;" vertex="1" parent="RBRn5nzX2XxaJBTWMqMU-235">
          <mxGeometry x="110.00000000000011" width="60" height="30" as="geometry" />
        </mxCell>
        <mxCell id="RBRn5nzX2XxaJBTWMqMU-239" style="shape=partialRectangle;connectable=0;fillColor=none;top=0;left=0;bottom=0;right=0;align=left;spacingLeft=6;overflow=hidden;" vertex="1" parent="RBRn5nzX2XxaJBTWMqMU-235">
          <mxGeometry x="170.0000000000001" width="60.00000000000003" height="30" as="geometry" />
        </mxCell>
        <mxCell id="RBRn5nzX2XxaJBTWMqMU-356" value="varchar(50)" style="shape=partialRectangle;connectable=0;fillColor=none;top=0;left=0;bottom=0;right=0;align=left;spacingLeft=6;overflow=hidden;" vertex="1" parent="RBRn5nzX2XxaJBTWMqMU-235">
          <mxGeometry x="230.00000000000014" width="139.9999999999998" height="30" as="geometry" />
        </mxCell>
        <mxCell id="RBRn5nzX2XxaJBTWMqMU-240" style="shape=partialRectangle;collapsible=0;dropTarget=0;pointerEvents=0;fillColor=none;top=0;left=0;bottom=0;right=0;points=[[0,0.5],[1,0.5]];portConstraint=eastwest;" vertex="1" parent="RBRn5nzX2XxaJBTWMqMU-57">
          <mxGeometry y="120" width="369.99999999999994" height="30" as="geometry" />
        </mxCell>
        <mxCell id="RBRn5nzX2XxaJBTWMqMU-241" style="shape=partialRectangle;connectable=0;fillColor=none;top=0;left=0;bottom=0;right=0;editable=1;overflow=hidden;" vertex="1" parent="RBRn5nzX2XxaJBTWMqMU-240">
          <mxGeometry width="30" height="30" as="geometry" />
        </mxCell>
        <mxCell id="RBRn5nzX2XxaJBTWMqMU-242" value="abbreviation" style="shape=partialRectangle;connectable=0;fillColor=none;top=0;left=0;bottom=0;right=0;align=left;spacingLeft=6;overflow=hidden;" vertex="1" parent="RBRn5nzX2XxaJBTWMqMU-240">
          <mxGeometry x="30" width="80.00000000000011" height="30" as="geometry" />
        </mxCell>
        <mxCell id="RBRn5nzX2XxaJBTWMqMU-243" style="shape=partialRectangle;connectable=0;fillColor=none;top=0;left=0;bottom=0;right=0;align=left;spacingLeft=6;overflow=hidden;" vertex="1" parent="RBRn5nzX2XxaJBTWMqMU-240">
          <mxGeometry x="110.00000000000011" width="60" height="30" as="geometry" />
        </mxCell>
        <mxCell id="RBRn5nzX2XxaJBTWMqMU-244" style="shape=partialRectangle;connectable=0;fillColor=none;top=0;left=0;bottom=0;right=0;align=left;spacingLeft=6;overflow=hidden;" vertex="1" parent="RBRn5nzX2XxaJBTWMqMU-240">
          <mxGeometry x="170.0000000000001" width="60.00000000000003" height="30" as="geometry" />
        </mxCell>
        <mxCell id="RBRn5nzX2XxaJBTWMqMU-357" value="varchar(2)" style="shape=partialRectangle;connectable=0;fillColor=none;top=0;left=0;bottom=0;right=0;align=left;spacingLeft=6;overflow=hidden;" vertex="1" parent="RBRn5nzX2XxaJBTWMqMU-240">
          <mxGeometry x="230.00000000000014" width="139.9999999999998" height="30" as="geometry" />
        </mxCell>
        <mxCell id="RBRn5nzX2XxaJBTWMqMU-70" style="edgeStyle=orthogonalEdgeStyle;rounded=0;orthogonalLoop=1;jettySize=auto;html=1;startArrow=ERmandOne;startFill=0;endArrow=ERoneToMany;endFill=0;strokeWidth=3;" edge="1" parent="5IGbXjvzAPZyFcgGBxD8-1" source="RBRn5nzX2XxaJBTWMqMU-71">
          <mxGeometry relative="1" as="geometry">
            <mxPoint x="810" y="870" as="targetPoint" />
            <Array as="points">
              <mxPoint x="810" y="870" />
              <mxPoint x="810" y="870" />
            </Array>
          </mxGeometry>
        </mxCell>
        <mxCell id="RBRn5nzX2XxaJBTWMqMU-71" value="City" style="shape=table;startSize=30;container=1;collapsible=1;childLayout=tableLayout;fixedRows=1;rowLines=0;fontStyle=1;align=center;resizeLast=1;" vertex="1" parent="5IGbXjvzAPZyFcgGBxD8-1">
          <mxGeometry x="480" y="10" width="360" height="190" as="geometry" />
        </mxCell>
        <mxCell id="RBRn5nzX2XxaJBTWMqMU-72" value="" style="shape=partialRectangle;collapsible=0;dropTarget=0;pointerEvents=0;fillColor=none;top=0;left=0;bottom=1;right=0;points=[[0,0.5],[1,0.5]];portConstraint=eastwest;" vertex="1" parent="RBRn5nzX2XxaJBTWMqMU-71">
          <mxGeometry y="30" width="360" height="30" as="geometry" />
        </mxCell>
        <mxCell id="RBRn5nzX2XxaJBTWMqMU-73" value="PK" style="shape=partialRectangle;connectable=0;fillColor=none;top=0;left=0;bottom=0;right=0;fontStyle=1;overflow=hidden;" vertex="1" parent="RBRn5nzX2XxaJBTWMqMU-72">
          <mxGeometry width="30" height="30" as="geometry" />
        </mxCell>
        <mxCell id="RBRn5nzX2XxaJBTWMqMU-74" value="UniqueID" style="shape=partialRectangle;connectable=0;fillColor=none;top=0;left=0;bottom=0;right=0;align=left;spacingLeft=6;fontStyle=5;overflow=hidden;" vertex="1" parent="RBRn5nzX2XxaJBTWMqMU-72">
          <mxGeometry x="30" width="90" height="30" as="geometry" />
        </mxCell>
        <mxCell id="RBRn5nzX2XxaJBTWMqMU-120" value="ref table" style="shape=partialRectangle;connectable=0;fillColor=none;top=0;left=0;bottom=0;right=0;align=left;spacingLeft=6;fontStyle=5;overflow=hidden;" vertex="1" parent="RBRn5nzX2XxaJBTWMqMU-72">
          <mxGeometry x="120" width="70" height="30" as="geometry" />
        </mxCell>
        <mxCell id="RBRn5nzX2XxaJBTWMqMU-124" value="ref_field" style="shape=partialRectangle;connectable=0;fillColor=none;top=0;left=0;bottom=0;right=0;align=left;spacingLeft=6;fontStyle=5;overflow=hidden;" vertex="1" parent="RBRn5nzX2XxaJBTWMqMU-72">
          <mxGeometry x="190" width="70" height="30" as="geometry" />
        </mxCell>
        <mxCell id="RBRn5nzX2XxaJBTWMqMU-260" value="SQL" style="shape=partialRectangle;connectable=0;fillColor=none;top=0;left=0;bottom=0;right=0;align=left;spacingLeft=6;fontStyle=5;overflow=hidden;" vertex="1" parent="RBRn5nzX2XxaJBTWMqMU-72">
          <mxGeometry x="260" width="100" height="30" as="geometry" />
        </mxCell>
        <mxCell id="RBRn5nzX2XxaJBTWMqMU-255" style="shape=partialRectangle;collapsible=0;dropTarget=0;pointerEvents=0;fillColor=none;top=0;left=0;bottom=0;right=0;points=[[0,0.5],[1,0.5]];portConstraint=eastwest;" vertex="1" parent="RBRn5nzX2XxaJBTWMqMU-71">
          <mxGeometry y="60" width="360" height="30" as="geometry" />
        </mxCell>
        <mxCell id="RBRn5nzX2XxaJBTWMqMU-256" value="PK" style="shape=partialRectangle;connectable=0;fillColor=none;top=0;left=0;bottom=0;right=0;editable=1;overflow=hidden;" vertex="1" parent="RBRn5nzX2XxaJBTWMqMU-255">
          <mxGeometry width="30" height="30" as="geometry" />
        </mxCell>
        <mxCell id="RBRn5nzX2XxaJBTWMqMU-257" value="id" style="shape=partialRectangle;connectable=0;fillColor=none;top=0;left=0;bottom=0;right=0;align=left;spacingLeft=6;overflow=hidden;" vertex="1" parent="RBRn5nzX2XxaJBTWMqMU-255">
          <mxGeometry x="30" width="90" height="30" as="geometry" />
        </mxCell>
        <mxCell id="RBRn5nzX2XxaJBTWMqMU-258" style="shape=partialRectangle;connectable=0;fillColor=none;top=0;left=0;bottom=0;right=0;align=left;spacingLeft=6;overflow=hidden;" vertex="1" parent="RBRn5nzX2XxaJBTWMqMU-255">
          <mxGeometry x="120" width="70" height="30" as="geometry" />
        </mxCell>
        <mxCell id="RBRn5nzX2XxaJBTWMqMU-259" style="shape=partialRectangle;connectable=0;fillColor=none;top=0;left=0;bottom=0;right=0;align=left;spacingLeft=6;overflow=hidden;" vertex="1" parent="RBRn5nzX2XxaJBTWMqMU-255">
          <mxGeometry x="190" width="70" height="30" as="geometry" />
        </mxCell>
        <mxCell id="RBRn5nzX2XxaJBTWMqMU-261" value="int primary key &#xa;auto_increment" style="shape=partialRectangle;connectable=0;fillColor=none;top=0;left=0;bottom=0;right=0;align=left;spacingLeft=6;overflow=hidden;" vertex="1" parent="RBRn5nzX2XxaJBTWMqMU-255">
          <mxGeometry x="260" width="100" height="30" as="geometry" />
        </mxCell>
        <mxCell id="RBRn5nzX2XxaJBTWMqMU-75" value="" style="shape=partialRectangle;collapsible=0;dropTarget=0;pointerEvents=0;fillColor=none;top=0;left=0;bottom=0;right=0;points=[[0,0.5],[1,0.5]];portConstraint=eastwest;" vertex="1" parent="RBRn5nzX2XxaJBTWMqMU-71">
          <mxGeometry y="90" width="360" height="30" as="geometry" />
        </mxCell>
        <mxCell id="RBRn5nzX2XxaJBTWMqMU-76" value="" style="shape=partialRectangle;connectable=0;fillColor=none;top=0;left=0;bottom=0;right=0;editable=1;overflow=hidden;" vertex="1" parent="RBRn5nzX2XxaJBTWMqMU-75">
          <mxGeometry width="30" height="30" as="geometry" />
        </mxCell>
        <mxCell id="RBRn5nzX2XxaJBTWMqMU-77" value="city_name" style="shape=partialRectangle;connectable=0;fillColor=none;top=0;left=0;bottom=0;right=0;align=left;spacingLeft=6;overflow=hidden;" vertex="1" parent="RBRn5nzX2XxaJBTWMqMU-75">
          <mxGeometry x="30" width="90" height="30" as="geometry" />
        </mxCell>
        <mxCell id="RBRn5nzX2XxaJBTWMqMU-121" style="shape=partialRectangle;connectable=0;fillColor=none;top=0;left=0;bottom=0;right=0;align=left;spacingLeft=6;overflow=hidden;" vertex="1" parent="RBRn5nzX2XxaJBTWMqMU-75">
          <mxGeometry x="120" width="70" height="30" as="geometry" />
        </mxCell>
        <mxCell id="RBRn5nzX2XxaJBTWMqMU-125" style="shape=partialRectangle;connectable=0;fillColor=none;top=0;left=0;bottom=0;right=0;align=left;spacingLeft=6;overflow=hidden;" vertex="1" parent="RBRn5nzX2XxaJBTWMqMU-75">
          <mxGeometry x="190" width="70" height="30" as="geometry" />
        </mxCell>
        <mxCell id="RBRn5nzX2XxaJBTWMqMU-262" value="varchar(50)" style="shape=partialRectangle;connectable=0;fillColor=none;top=0;left=0;bottom=0;right=0;align=left;spacingLeft=6;overflow=hidden;" vertex="1" parent="RBRn5nzX2XxaJBTWMqMU-75">
          <mxGeometry x="260" width="100" height="30" as="geometry" />
        </mxCell>
        <mxCell id="RBRn5nzX2XxaJBTWMqMU-78" value="" style="shape=partialRectangle;collapsible=0;dropTarget=0;pointerEvents=0;fillColor=none;top=0;left=0;bottom=0;right=0;points=[[0,0.5],[1,0.5]];portConstraint=eastwest;" vertex="1" parent="RBRn5nzX2XxaJBTWMqMU-71">
          <mxGeometry y="120" width="360" height="30" as="geometry" />
        </mxCell>
        <mxCell id="RBRn5nzX2XxaJBTWMqMU-79" value="" style="shape=partialRectangle;connectable=0;fillColor=none;top=0;left=0;bottom=0;right=0;editable=1;overflow=hidden;" vertex="1" parent="RBRn5nzX2XxaJBTWMqMU-78">
          <mxGeometry width="30" height="30" as="geometry" />
        </mxCell>
        <mxCell id="RBRn5nzX2XxaJBTWMqMU-80" value="population" style="shape=partialRectangle;connectable=0;fillColor=none;top=0;left=0;bottom=0;right=0;align=left;spacingLeft=6;overflow=hidden;" vertex="1" parent="RBRn5nzX2XxaJBTWMqMU-78">
          <mxGeometry x="30" width="90" height="30" as="geometry" />
        </mxCell>
        <mxCell id="RBRn5nzX2XxaJBTWMqMU-122" style="shape=partialRectangle;connectable=0;fillColor=none;top=0;left=0;bottom=0;right=0;align=left;spacingLeft=6;overflow=hidden;" vertex="1" parent="RBRn5nzX2XxaJBTWMqMU-78">
          <mxGeometry x="120" width="70" height="30" as="geometry" />
        </mxCell>
        <mxCell id="RBRn5nzX2XxaJBTWMqMU-126" style="shape=partialRectangle;connectable=0;fillColor=none;top=0;left=0;bottom=0;right=0;align=left;spacingLeft=6;overflow=hidden;" vertex="1" parent="RBRn5nzX2XxaJBTWMqMU-78">
          <mxGeometry x="190" width="70" height="30" as="geometry" />
        </mxCell>
        <mxCell id="RBRn5nzX2XxaJBTWMqMU-263" value="int" style="shape=partialRectangle;connectable=0;fillColor=none;top=0;left=0;bottom=0;right=0;align=left;spacingLeft=6;overflow=hidden;" vertex="1" parent="RBRn5nzX2XxaJBTWMqMU-78">
          <mxGeometry x="260" width="100" height="30" as="geometry" />
        </mxCell>
        <mxCell id="RBRn5nzX2XxaJBTWMqMU-81" value="" style="shape=partialRectangle;collapsible=0;dropTarget=0;pointerEvents=0;fillColor=none;top=0;left=0;bottom=0;right=0;points=[[0,0.5],[1,0.5]];portConstraint=eastwest;" vertex="1" parent="RBRn5nzX2XxaJBTWMqMU-71">
          <mxGeometry y="150" width="360" height="30" as="geometry" />
        </mxCell>
        <mxCell id="RBRn5nzX2XxaJBTWMqMU-82" value="FK" style="shape=partialRectangle;connectable=0;fillColor=none;top=0;left=0;bottom=0;right=0;editable=1;overflow=hidden;" vertex="1" parent="RBRn5nzX2XxaJBTWMqMU-81">
          <mxGeometry width="30" height="30" as="geometry" />
        </mxCell>
        <mxCell id="RBRn5nzX2XxaJBTWMqMU-83" value="state_id" style="shape=partialRectangle;connectable=0;fillColor=none;top=0;left=0;bottom=0;right=0;align=left;spacingLeft=6;overflow=hidden;" vertex="1" parent="RBRn5nzX2XxaJBTWMqMU-81">
          <mxGeometry x="30" width="90" height="30" as="geometry" />
        </mxCell>
        <mxCell id="RBRn5nzX2XxaJBTWMqMU-123" value="re_state" style="shape=partialRectangle;connectable=0;fillColor=none;top=0;left=0;bottom=0;right=0;align=left;spacingLeft=6;overflow=hidden;" vertex="1" parent="RBRn5nzX2XxaJBTWMqMU-81">
          <mxGeometry x="120" width="70" height="30" as="geometry" />
        </mxCell>
        <mxCell id="RBRn5nzX2XxaJBTWMqMU-127" value="state_id" style="shape=partialRectangle;connectable=0;fillColor=none;top=0;left=0;bottom=0;right=0;align=left;spacingLeft=6;overflow=hidden;" vertex="1" parent="RBRn5nzX2XxaJBTWMqMU-81">
          <mxGeometry x="190" width="70" height="30" as="geometry" />
        </mxCell>
        <mxCell id="RBRn5nzX2XxaJBTWMqMU-264" value="int" style="shape=partialRectangle;connectable=0;fillColor=none;top=0;left=0;bottom=0;right=0;align=left;spacingLeft=6;overflow=hidden;" vertex="1" parent="RBRn5nzX2XxaJBTWMqMU-81">
          <mxGeometry x="260" width="100" height="30" as="geometry" />
        </mxCell>
        <mxCell id="RBRn5nzX2XxaJBTWMqMU-84" style="edgeStyle=orthogonalEdgeStyle;rounded=0;orthogonalLoop=1;jettySize=auto;html=1;startArrow=ERmandOne;startFill=0;endArrow=ERoneToMany;endFill=0;strokeWidth=3;" edge="1" parent="5IGbXjvzAPZyFcgGBxD8-1">
          <mxGeometry relative="1" as="geometry">
            <mxPoint x="80" y="160" as="sourcePoint" />
            <mxPoint x="780" y="200" as="targetPoint" />
            <Array as="points">
              <mxPoint x="70" y="160" />
              <mxPoint x="70" y="230" />
              <mxPoint x="780" y="230" />
            </Array>
          </mxGeometry>
        </mxCell>
        <mxCell id="RBRn5nzX2XxaJBTWMqMU-85" style="edgeStyle=orthogonalEdgeStyle;rounded=0;orthogonalLoop=1;jettySize=auto;html=1;startArrow=ERmandOne;startFill=0;endArrow=ERoneToMany;endFill=0;strokeWidth=3;exitX=0.458;exitY=-0.015;exitDx=0;exitDy=0;exitPerimeter=0;" edge="1" parent="5IGbXjvzAPZyFcgGBxD8-1" source="RBRn5nzX2XxaJBTWMqMU-43">
          <mxGeometry relative="1" as="geometry">
            <mxPoint x="605" y="530" as="targetPoint" />
            <Array as="points">
              <mxPoint x="605" y="877" />
            </Array>
          </mxGeometry>
        </mxCell>
        <mxCell id="RBRn5nzX2XxaJBTWMqMU-266" style="edgeStyle=orthogonalEdgeStyle;rounded=0;orthogonalLoop=1;jettySize=auto;html=1;exitX=0;exitY=0;exitDx=0;exitDy=0;startArrow=ERmandOne;startFill=0;endArrow=ERoneToMany;endFill=0;strokeWidth=3;" edge="1" parent="5IGbXjvzAPZyFcgGBxD8-1" source="RBRn5nzX2XxaJBTWMqMU-181" target="RBRn5nzX2XxaJBTWMqMU-181">
          <mxGeometry relative="1" as="geometry" />
        </mxCell>
        <mxCell id="RBRn5nzX2XxaJBTWMqMU-268" value="Property" style="shape=table;startSize=30;container=1;collapsible=1;childLayout=tableLayout;fixedRows=1;rowLines=0;fontStyle=1;align=center;resizeLast=1;" vertex="1" parent="5IGbXjvzAPZyFcgGBxD8-1">
          <mxGeometry x="10" y="250" width="660" height="280" as="geometry" />
        </mxCell>
        <mxCell id="RBRn5nzX2XxaJBTWMqMU-269" value="" style="shape=partialRectangle;collapsible=0;dropTarget=0;pointerEvents=0;fillColor=none;top=0;left=0;bottom=1;right=0;points=[[0,0.5],[1,0.5]];portConstraint=eastwest;" vertex="1" parent="RBRn5nzX2XxaJBTWMqMU-268">
          <mxGeometry y="30" width="660" height="30" as="geometry" />
        </mxCell>
        <mxCell id="RBRn5nzX2XxaJBTWMqMU-270" value="PK" style="shape=partialRectangle;connectable=0;fillColor=none;top=0;left=0;bottom=0;right=0;fontStyle=1;overflow=hidden;" vertex="1" parent="RBRn5nzX2XxaJBTWMqMU-269">
          <mxGeometry width="30" height="30" as="geometry" />
        </mxCell>
        <mxCell id="RBRn5nzX2XxaJBTWMqMU-271" value="UniqueID" style="shape=partialRectangle;connectable=0;fillColor=none;top=0;left=0;bottom=0;right=0;align=left;spacingLeft=6;fontStyle=5;overflow=hidden;" vertex="1" parent="RBRn5nzX2XxaJBTWMqMU-269">
          <mxGeometry x="30" width="100" height="30" as="geometry" />
        </mxCell>
        <mxCell id="RBRn5nzX2XxaJBTWMqMU-304" style="shape=partialRectangle;connectable=0;fillColor=none;top=0;left=0;bottom=0;right=0;align=left;spacingLeft=6;fontStyle=5;overflow=hidden;" vertex="1" parent="RBRn5nzX2XxaJBTWMqMU-269">
          <mxGeometry x="130" width="120" height="30" as="geometry" />
        </mxCell>
        <mxCell id="RBRn5nzX2XxaJBTWMqMU-297" style="shape=partialRectangle;connectable=0;fillColor=none;top=0;left=0;bottom=0;right=0;align=left;spacingLeft=6;fontStyle=5;overflow=hidden;" vertex="1" parent="RBRn5nzX2XxaJBTWMqMU-269">
          <mxGeometry x="250" width="160" height="30" as="geometry" />
        </mxCell>
        <mxCell id="RBRn5nzX2XxaJBTWMqMU-290" value="SQL" style="shape=partialRectangle;connectable=0;fillColor=none;top=0;left=0;bottom=0;right=0;align=left;spacingLeft=6;fontStyle=5;overflow=hidden;" vertex="1" parent="RBRn5nzX2XxaJBTWMqMU-269">
          <mxGeometry x="410" width="250" height="30" as="geometry" />
        </mxCell>
        <mxCell id="RBRn5nzX2XxaJBTWMqMU-272" value="" style="shape=partialRectangle;collapsible=0;dropTarget=0;pointerEvents=0;fillColor=none;top=0;left=0;bottom=0;right=0;points=[[0,0.5],[1,0.5]];portConstraint=eastwest;" vertex="1" parent="RBRn5nzX2XxaJBTWMqMU-268">
          <mxGeometry y="60" width="660" height="30" as="geometry" />
        </mxCell>
        <mxCell id="RBRn5nzX2XxaJBTWMqMU-273" value="PK" style="shape=partialRectangle;connectable=0;fillColor=none;top=0;left=0;bottom=0;right=0;editable=1;overflow=hidden;" vertex="1" parent="RBRn5nzX2XxaJBTWMqMU-272">
          <mxGeometry width="30" height="30" as="geometry" />
        </mxCell>
        <mxCell id="RBRn5nzX2XxaJBTWMqMU-274" value="id" style="shape=partialRectangle;connectable=0;fillColor=none;top=0;left=0;bottom=0;right=0;align=left;spacingLeft=6;overflow=hidden;" vertex="1" parent="RBRn5nzX2XxaJBTWMqMU-272">
          <mxGeometry x="30" width="100" height="30" as="geometry" />
        </mxCell>
        <mxCell id="RBRn5nzX2XxaJBTWMqMU-305" style="shape=partialRectangle;connectable=0;fillColor=none;top=0;left=0;bottom=0;right=0;align=left;spacingLeft=6;overflow=hidden;" vertex="1" parent="RBRn5nzX2XxaJBTWMqMU-272">
          <mxGeometry x="130" width="120" height="30" as="geometry" />
        </mxCell>
        <mxCell id="RBRn5nzX2XxaJBTWMqMU-298" style="shape=partialRectangle;connectable=0;fillColor=none;top=0;left=0;bottom=0;right=0;align=left;spacingLeft=6;overflow=hidden;" vertex="1" parent="RBRn5nzX2XxaJBTWMqMU-272">
          <mxGeometry x="250" width="160" height="30" as="geometry" />
        </mxCell>
        <mxCell id="RBRn5nzX2XxaJBTWMqMU-291" value="int primary key auto_increment" style="shape=partialRectangle;connectable=0;fillColor=none;top=0;left=0;bottom=0;right=0;align=left;spacingLeft=6;overflow=hidden;" vertex="1" parent="RBRn5nzX2XxaJBTWMqMU-272">
          <mxGeometry x="410" width="250" height="30" as="geometry" />
        </mxCell>
        <mxCell id="RBRn5nzX2XxaJBTWMqMU-287" style="shape=partialRectangle;collapsible=0;dropTarget=0;pointerEvents=0;fillColor=none;top=0;left=0;bottom=0;right=0;points=[[0,0.5],[1,0.5]];portConstraint=eastwest;" vertex="1" parent="RBRn5nzX2XxaJBTWMqMU-268">
          <mxGeometry y="90" width="660" height="30" as="geometry" />
        </mxCell>
        <mxCell id="RBRn5nzX2XxaJBTWMqMU-288" style="shape=partialRectangle;connectable=0;fillColor=none;top=0;left=0;bottom=0;right=0;editable=1;overflow=hidden;" vertex="1" parent="RBRn5nzX2XxaJBTWMqMU-287">
          <mxGeometry width="30" height="30" as="geometry" />
        </mxCell>
        <mxCell id="RBRn5nzX2XxaJBTWMqMU-289" value="street_address" style="shape=partialRectangle;connectable=0;fillColor=none;top=0;left=0;bottom=0;right=0;align=left;spacingLeft=6;overflow=hidden;" vertex="1" parent="RBRn5nzX2XxaJBTWMqMU-287">
          <mxGeometry x="30" width="100" height="30" as="geometry" />
        </mxCell>
        <mxCell id="RBRn5nzX2XxaJBTWMqMU-306" style="shape=partialRectangle;connectable=0;fillColor=none;top=0;left=0;bottom=0;right=0;align=left;spacingLeft=6;overflow=hidden;" vertex="1" parent="RBRn5nzX2XxaJBTWMqMU-287">
          <mxGeometry x="130" width="120" height="30" as="geometry" />
        </mxCell>
        <mxCell id="RBRn5nzX2XxaJBTWMqMU-299" style="shape=partialRectangle;connectable=0;fillColor=none;top=0;left=0;bottom=0;right=0;align=left;spacingLeft=6;overflow=hidden;" vertex="1" parent="RBRn5nzX2XxaJBTWMqMU-287">
          <mxGeometry x="250" width="160" height="30" as="geometry" />
        </mxCell>
        <mxCell id="RBRn5nzX2XxaJBTWMqMU-292" value="varchr(50)" style="shape=partialRectangle;connectable=0;fillColor=none;top=0;left=0;bottom=0;right=0;align=left;spacingLeft=6;overflow=hidden;" vertex="1" parent="RBRn5nzX2XxaJBTWMqMU-287">
          <mxGeometry x="410" width="250" height="30" as="geometry" />
        </mxCell>
        <mxCell id="RBRn5nzX2XxaJBTWMqMU-343" style="shape=partialRectangle;collapsible=0;dropTarget=0;pointerEvents=0;fillColor=none;top=0;left=0;bottom=0;right=0;points=[[0,0.5],[1,0.5]];portConstraint=eastwest;" vertex="1" parent="RBRn5nzX2XxaJBTWMqMU-268">
          <mxGeometry y="120" width="660" height="30" as="geometry" />
        </mxCell>
        <mxCell id="RBRn5nzX2XxaJBTWMqMU-344" style="shape=partialRectangle;connectable=0;fillColor=none;top=0;left=0;bottom=0;right=0;editable=1;overflow=hidden;" vertex="1" parent="RBRn5nzX2XxaJBTWMqMU-343">
          <mxGeometry width="30" height="30" as="geometry" />
        </mxCell>
        <mxCell id="RBRn5nzX2XxaJBTWMqMU-345" value="street_address" style="shape=partialRectangle;connectable=0;fillColor=none;top=0;left=0;bottom=0;right=0;align=left;spacingLeft=6;overflow=hidden;" vertex="1" parent="RBRn5nzX2XxaJBTWMqMU-343">
          <mxGeometry x="30" width="100" height="30" as="geometry" />
        </mxCell>
        <mxCell id="RBRn5nzX2XxaJBTWMqMU-346" style="shape=partialRectangle;connectable=0;fillColor=none;top=0;left=0;bottom=0;right=0;align=left;spacingLeft=6;overflow=hidden;" vertex="1" parent="RBRn5nzX2XxaJBTWMqMU-343">
          <mxGeometry x="130" width="120" height="30" as="geometry" />
        </mxCell>
        <mxCell id="RBRn5nzX2XxaJBTWMqMU-347" style="shape=partialRectangle;connectable=0;fillColor=none;top=0;left=0;bottom=0;right=0;align=left;spacingLeft=6;overflow=hidden;" vertex="1" parent="RBRn5nzX2XxaJBTWMqMU-343">
          <mxGeometry x="250" width="160" height="30" as="geometry" />
        </mxCell>
        <mxCell id="RBRn5nzX2XxaJBTWMqMU-348" value="varchr(50)" style="shape=partialRectangle;connectable=0;fillColor=none;top=0;left=0;bottom=0;right=0;align=left;spacingLeft=6;overflow=hidden;" vertex="1" parent="RBRn5nzX2XxaJBTWMqMU-343">
          <mxGeometry x="410" width="250" height="30" as="geometry" />
        </mxCell>
        <mxCell id="RBRn5nzX2XxaJBTWMqMU-284" style="shape=partialRectangle;collapsible=0;dropTarget=0;pointerEvents=0;fillColor=none;top=0;left=0;bottom=0;right=0;points=[[0,0.5],[1,0.5]];portConstraint=eastwest;" vertex="1" parent="RBRn5nzX2XxaJBTWMqMU-268">
          <mxGeometry y="150" width="660" height="30" as="geometry" />
        </mxCell>
        <mxCell id="RBRn5nzX2XxaJBTWMqMU-285" style="shape=partialRectangle;connectable=0;fillColor=none;top=0;left=0;bottom=0;right=0;editable=1;overflow=hidden;" vertex="1" parent="RBRn5nzX2XxaJBTWMqMU-284">
          <mxGeometry width="30" height="30" as="geometry" />
        </mxCell>
        <mxCell id="RBRn5nzX2XxaJBTWMqMU-286" value="bed_count" style="shape=partialRectangle;connectable=0;fillColor=none;top=0;left=0;bottom=0;right=0;align=left;spacingLeft=6;overflow=hidden;" vertex="1" parent="RBRn5nzX2XxaJBTWMqMU-284">
          <mxGeometry x="30" width="100" height="30" as="geometry" />
        </mxCell>
        <mxCell id="RBRn5nzX2XxaJBTWMqMU-307" style="shape=partialRectangle;connectable=0;fillColor=none;top=0;left=0;bottom=0;right=0;align=left;spacingLeft=6;overflow=hidden;" vertex="1" parent="RBRn5nzX2XxaJBTWMqMU-284">
          <mxGeometry x="130" width="120" height="30" as="geometry" />
        </mxCell>
        <mxCell id="RBRn5nzX2XxaJBTWMqMU-300" style="shape=partialRectangle;connectable=0;fillColor=none;top=0;left=0;bottom=0;right=0;align=left;spacingLeft=6;overflow=hidden;" vertex="1" parent="RBRn5nzX2XxaJBTWMqMU-284">
          <mxGeometry x="250" width="160" height="30" as="geometry" />
        </mxCell>
        <mxCell id="RBRn5nzX2XxaJBTWMqMU-293" value="unsigned tinyint" style="shape=partialRectangle;connectable=0;fillColor=none;top=0;left=0;bottom=0;right=0;align=left;spacingLeft=6;overflow=hidden;" vertex="1" parent="RBRn5nzX2XxaJBTWMqMU-284">
          <mxGeometry x="410" width="250" height="30" as="geometry" />
        </mxCell>
        <mxCell id="RBRn5nzX2XxaJBTWMqMU-281" style="shape=partialRectangle;collapsible=0;dropTarget=0;pointerEvents=0;fillColor=none;top=0;left=0;bottom=0;right=0;points=[[0,0.5],[1,0.5]];portConstraint=eastwest;" vertex="1" parent="RBRn5nzX2XxaJBTWMqMU-268">
          <mxGeometry y="180" width="660" height="30" as="geometry" />
        </mxCell>
        <mxCell id="RBRn5nzX2XxaJBTWMqMU-282" style="shape=partialRectangle;connectable=0;fillColor=none;top=0;left=0;bottom=0;right=0;editable=1;overflow=hidden;" vertex="1" parent="RBRn5nzX2XxaJBTWMqMU-281">
          <mxGeometry width="30" height="30" as="geometry" />
        </mxCell>
        <mxCell id="RBRn5nzX2XxaJBTWMqMU-283" value="bath_count" style="shape=partialRectangle;connectable=0;fillColor=none;top=0;left=0;bottom=0;right=0;align=left;spacingLeft=6;overflow=hidden;" vertex="1" parent="RBRn5nzX2XxaJBTWMqMU-281">
          <mxGeometry x="30" width="100" height="30" as="geometry" />
        </mxCell>
        <mxCell id="RBRn5nzX2XxaJBTWMqMU-308" style="shape=partialRectangle;connectable=0;fillColor=none;top=0;left=0;bottom=0;right=0;align=left;spacingLeft=6;overflow=hidden;" vertex="1" parent="RBRn5nzX2XxaJBTWMqMU-281">
          <mxGeometry x="130" width="120" height="30" as="geometry" />
        </mxCell>
        <mxCell id="RBRn5nzX2XxaJBTWMqMU-301" style="shape=partialRectangle;connectable=0;fillColor=none;top=0;left=0;bottom=0;right=0;align=left;spacingLeft=6;overflow=hidden;" vertex="1" parent="RBRn5nzX2XxaJBTWMqMU-281">
          <mxGeometry x="250" width="160" height="30" as="geometry" />
        </mxCell>
        <mxCell id="RBRn5nzX2XxaJBTWMqMU-294" value="unsigned tinyint" style="shape=partialRectangle;connectable=0;fillColor=none;top=0;left=0;bottom=0;right=0;align=left;spacingLeft=6;overflow=hidden;" vertex="1" parent="RBRn5nzX2XxaJBTWMqMU-281">
          <mxGeometry x="410" width="250" height="30" as="geometry" />
        </mxCell>
        <mxCell id="RBRn5nzX2XxaJBTWMqMU-275" value="" style="shape=partialRectangle;collapsible=0;dropTarget=0;pointerEvents=0;fillColor=none;top=0;left=0;bottom=0;right=0;points=[[0,0.5],[1,0.5]];portConstraint=eastwest;" vertex="1" parent="RBRn5nzX2XxaJBTWMqMU-268">
          <mxGeometry y="210" width="660" height="30" as="geometry" />
        </mxCell>
        <mxCell id="RBRn5nzX2XxaJBTWMqMU-276" value="" style="shape=partialRectangle;connectable=0;fillColor=none;top=0;left=0;bottom=0;right=0;editable=1;overflow=hidden;" vertex="1" parent="RBRn5nzX2XxaJBTWMqMU-275">
          <mxGeometry width="30" height="30" as="geometry" />
        </mxCell>
        <mxCell id="RBRn5nzX2XxaJBTWMqMU-277" value="house_type" style="shape=partialRectangle;connectable=0;fillColor=none;top=0;left=0;bottom=0;right=0;align=left;spacingLeft=6;overflow=hidden;" vertex="1" parent="RBRn5nzX2XxaJBTWMqMU-275">
          <mxGeometry x="30" width="100" height="30" as="geometry" />
        </mxCell>
        <mxCell id="RBRn5nzX2XxaJBTWMqMU-309" style="shape=partialRectangle;connectable=0;fillColor=none;top=0;left=0;bottom=0;right=0;align=left;spacingLeft=6;overflow=hidden;" vertex="1" parent="RBRn5nzX2XxaJBTWMqMU-275">
          <mxGeometry x="130" width="120" height="30" as="geometry" />
        </mxCell>
        <mxCell id="RBRn5nzX2XxaJBTWMqMU-302" style="shape=partialRectangle;connectable=0;fillColor=none;top=0;left=0;bottom=0;right=0;align=left;spacingLeft=6;overflow=hidden;" vertex="1" parent="RBRn5nzX2XxaJBTWMqMU-275">
          <mxGeometry x="250" width="160" height="30" as="geometry" />
        </mxCell>
        <mxCell id="RBRn5nzX2XxaJBTWMqMU-295" value="enum(&#39;house&#39;, &#39;manufactured&#39;,&#xa;&#39;condo&#39;, &#39;co-op&#39;,&#xa;&#39;multi-family&#39;, &#39;apartments&#39;,&#xa;&#39;land&#39;, &#39;lot&#39;, &#39;townhome&#39;)" style="shape=partialRectangle;connectable=0;fillColor=none;top=0;left=0;bottom=0;right=0;align=left;spacingLeft=6;overflow=hidden;" vertex="1" parent="RBRn5nzX2XxaJBTWMqMU-275">
          <mxGeometry x="410" width="250" height="30" as="geometry" />
        </mxCell>
        <mxCell id="RBRn5nzX2XxaJBTWMqMU-278" value="" style="shape=partialRectangle;collapsible=0;dropTarget=0;pointerEvents=0;fillColor=none;top=0;left=0;bottom=0;right=0;points=[[0,0.5],[1,0.5]];portConstraint=eastwest;" vertex="1" parent="RBRn5nzX2XxaJBTWMqMU-268">
          <mxGeometry y="240" width="660" height="30" as="geometry" />
        </mxCell>
        <mxCell id="RBRn5nzX2XxaJBTWMqMU-279" value="FK" style="shape=partialRectangle;connectable=0;fillColor=none;top=0;left=0;bottom=0;right=0;editable=1;overflow=hidden;" vertex="1" parent="RBRn5nzX2XxaJBTWMqMU-278">
          <mxGeometry width="30" height="30" as="geometry" />
        </mxCell>
        <mxCell id="RBRn5nzX2XxaJBTWMqMU-280" value="city_id" style="shape=partialRectangle;connectable=0;fillColor=none;top=0;left=0;bottom=0;right=0;align=left;spacingLeft=6;overflow=hidden;" vertex="1" parent="RBRn5nzX2XxaJBTWMqMU-278">
          <mxGeometry x="30" width="100" height="30" as="geometry" />
        </mxCell>
        <mxCell id="RBRn5nzX2XxaJBTWMqMU-310" value="re_property_sales" style="shape=partialRectangle;connectable=0;fillColor=none;top=0;left=0;bottom=0;right=0;align=left;spacingLeft=6;overflow=hidden;" vertex="1" parent="RBRn5nzX2XxaJBTWMqMU-278">
          <mxGeometry x="130" width="120" height="30" as="geometry" />
        </mxCell>
        <mxCell id="RBRn5nzX2XxaJBTWMqMU-303" value="propery_sale_id" style="shape=partialRectangle;connectable=0;fillColor=none;top=0;left=0;bottom=0;right=0;align=left;spacingLeft=6;overflow=hidden;" vertex="1" parent="RBRn5nzX2XxaJBTWMqMU-278">
          <mxGeometry x="250" width="160" height="30" as="geometry" />
        </mxCell>
        <mxCell id="RBRn5nzX2XxaJBTWMqMU-296" value="int" style="shape=partialRectangle;connectable=0;fillColor=none;top=0;left=0;bottom=0;right=0;align=left;spacingLeft=6;overflow=hidden;" vertex="1" parent="RBRn5nzX2XxaJBTWMqMU-278">
          <mxGeometry x="410" width="250" height="30" as="geometry" />
        </mxCell>
        <mxCell id="RBRn5nzX2XxaJBTWMqMU-342" style="edgeStyle=orthogonalEdgeStyle;rounded=0;orthogonalLoop=1;jettySize=auto;html=1;startArrow=ERoneToMany;startFill=0;endArrow=ERmandOne;endFill=0;strokeWidth=3;" edge="1" parent="5IGbXjvzAPZyFcgGBxD8-1" source="RBRn5nzX2XxaJBTWMqMU-311">
          <mxGeometry relative="1" as="geometry">
            <mxPoint x="270" y="500" as="targetPoint" />
          </mxGeometry>
        </mxCell>
        <mxCell id="RBRn5nzX2XxaJBTWMqMU-311" value="PropertySales" style="shape=table;startSize=30;container=1;collapsible=1;childLayout=tableLayout;fixedRows=1;rowLines=0;fontStyle=1;align=center;resizeLast=1;" vertex="1" parent="5IGbXjvzAPZyFcgGBxD8-1">
          <mxGeometry x="30" y="580" width="500" height="180" as="geometry" />
        </mxCell>
        <mxCell id="RBRn5nzX2XxaJBTWMqMU-312" value="" style="shape=partialRectangle;collapsible=0;dropTarget=0;pointerEvents=0;fillColor=none;top=0;left=0;bottom=1;right=0;points=[[0,0.5],[1,0.5]];portConstraint=eastwest;" vertex="1" parent="RBRn5nzX2XxaJBTWMqMU-311">
          <mxGeometry y="30" width="500" height="30" as="geometry" />
        </mxCell>
        <mxCell id="RBRn5nzX2XxaJBTWMqMU-313" value="PK" style="shape=partialRectangle;connectable=0;fillColor=none;top=0;left=0;bottom=0;right=0;fontStyle=1;overflow=hidden;" vertex="1" parent="RBRn5nzX2XxaJBTWMqMU-312">
          <mxGeometry width="30" height="30" as="geometry" />
        </mxCell>
        <mxCell id="RBRn5nzX2XxaJBTWMqMU-314" value="UniqueID" style="shape=partialRectangle;connectable=0;fillColor=none;top=0;left=0;bottom=0;right=0;align=left;spacingLeft=6;fontStyle=5;overflow=hidden;" vertex="1" parent="RBRn5nzX2XxaJBTWMqMU-312">
          <mxGeometry x="30" width="90" height="30" as="geometry" />
        </mxCell>
        <mxCell id="RBRn5nzX2XxaJBTWMqMU-324" style="shape=partialRectangle;connectable=0;fillColor=none;top=0;left=0;bottom=0;right=0;align=left;spacingLeft=6;fontStyle=5;overflow=hidden;" vertex="1" parent="RBRn5nzX2XxaJBTWMqMU-312">
          <mxGeometry x="120" width="170" height="30" as="geometry" />
        </mxCell>
        <mxCell id="RBRn5nzX2XxaJBTWMqMU-328" style="shape=partialRectangle;connectable=0;fillColor=none;top=0;left=0;bottom=0;right=0;align=left;spacingLeft=6;fontStyle=5;overflow=hidden;" vertex="1" parent="RBRn5nzX2XxaJBTWMqMU-312">
          <mxGeometry x="290" width="100" height="30" as="geometry" />
        </mxCell>
        <mxCell id="RBRn5nzX2XxaJBTWMqMU-332" value="SQL" style="shape=partialRectangle;connectable=0;fillColor=none;top=0;left=0;bottom=0;right=0;align=left;spacingLeft=6;fontStyle=5;overflow=hidden;" vertex="1" parent="RBRn5nzX2XxaJBTWMqMU-312">
          <mxGeometry x="390" width="110" height="30" as="geometry" />
        </mxCell>
        <mxCell id="RBRn5nzX2XxaJBTWMqMU-315" value="" style="shape=partialRectangle;collapsible=0;dropTarget=0;pointerEvents=0;fillColor=none;top=0;left=0;bottom=0;right=0;points=[[0,0.5],[1,0.5]];portConstraint=eastwest;" vertex="1" parent="RBRn5nzX2XxaJBTWMqMU-311">
          <mxGeometry y="60" width="500" height="30" as="geometry" />
        </mxCell>
        <mxCell id="RBRn5nzX2XxaJBTWMqMU-316" value="PK" style="shape=partialRectangle;connectable=0;fillColor=none;top=0;left=0;bottom=0;right=0;editable=1;overflow=hidden;" vertex="1" parent="RBRn5nzX2XxaJBTWMqMU-315">
          <mxGeometry width="30" height="30" as="geometry" />
        </mxCell>
        <mxCell id="RBRn5nzX2XxaJBTWMqMU-317" value="id" style="shape=partialRectangle;connectable=0;fillColor=none;top=0;left=0;bottom=0;right=0;align=left;spacingLeft=6;overflow=hidden;" vertex="1" parent="RBRn5nzX2XxaJBTWMqMU-315">
          <mxGeometry x="30" width="90" height="30" as="geometry" />
        </mxCell>
        <mxCell id="RBRn5nzX2XxaJBTWMqMU-325" style="shape=partialRectangle;connectable=0;fillColor=none;top=0;left=0;bottom=0;right=0;align=left;spacingLeft=6;overflow=hidden;" vertex="1" parent="RBRn5nzX2XxaJBTWMqMU-315">
          <mxGeometry x="120" width="170" height="30" as="geometry" />
        </mxCell>
        <mxCell id="RBRn5nzX2XxaJBTWMqMU-329" style="shape=partialRectangle;connectable=0;fillColor=none;top=0;left=0;bottom=0;right=0;align=left;spacingLeft=6;overflow=hidden;" vertex="1" parent="RBRn5nzX2XxaJBTWMqMU-315">
          <mxGeometry x="290" width="100" height="30" as="geometry" />
        </mxCell>
        <mxCell id="RBRn5nzX2XxaJBTWMqMU-333" value="int primary key auto_increment" style="shape=partialRectangle;connectable=0;fillColor=none;top=0;left=0;bottom=0;right=0;align=left;spacingLeft=6;overflow=hidden;" vertex="1" parent="RBRn5nzX2XxaJBTWMqMU-315">
          <mxGeometry x="390" width="110" height="30" as="geometry" />
        </mxCell>
        <mxCell id="RBRn5nzX2XxaJBTWMqMU-318" value="" style="shape=partialRectangle;collapsible=0;dropTarget=0;pointerEvents=0;fillColor=none;top=0;left=0;bottom=0;right=0;points=[[0,0.5],[1,0.5]];portConstraint=eastwest;" vertex="1" parent="RBRn5nzX2XxaJBTWMqMU-311">
          <mxGeometry y="90" width="500" height="30" as="geometry" />
        </mxCell>
        <mxCell id="RBRn5nzX2XxaJBTWMqMU-319" value="" style="shape=partialRectangle;connectable=0;fillColor=none;top=0;left=0;bottom=0;right=0;editable=1;overflow=hidden;" vertex="1" parent="RBRn5nzX2XxaJBTWMqMU-318">
          <mxGeometry width="30" height="30" as="geometry" />
        </mxCell>
        <mxCell id="RBRn5nzX2XxaJBTWMqMU-320" value="sale_date" style="shape=partialRectangle;connectable=0;fillColor=none;top=0;left=0;bottom=0;right=0;align=left;spacingLeft=6;overflow=hidden;" vertex="1" parent="RBRn5nzX2XxaJBTWMqMU-318">
          <mxGeometry x="30" width="90" height="30" as="geometry" />
        </mxCell>
        <mxCell id="RBRn5nzX2XxaJBTWMqMU-326" style="shape=partialRectangle;connectable=0;fillColor=none;top=0;left=0;bottom=0;right=0;align=left;spacingLeft=6;overflow=hidden;" vertex="1" parent="RBRn5nzX2XxaJBTWMqMU-318">
          <mxGeometry x="120" width="170" height="30" as="geometry" />
        </mxCell>
        <mxCell id="RBRn5nzX2XxaJBTWMqMU-330" style="shape=partialRectangle;connectable=0;fillColor=none;top=0;left=0;bottom=0;right=0;align=left;spacingLeft=6;overflow=hidden;" vertex="1" parent="RBRn5nzX2XxaJBTWMqMU-318">
          <mxGeometry x="290" width="100" height="30" as="geometry" />
        </mxCell>
        <mxCell id="RBRn5nzX2XxaJBTWMqMU-334" value="date" style="shape=partialRectangle;connectable=0;fillColor=none;top=0;left=0;bottom=0;right=0;align=left;spacingLeft=6;overflow=hidden;" vertex="1" parent="RBRn5nzX2XxaJBTWMqMU-318">
          <mxGeometry x="390" width="110" height="30" as="geometry" />
        </mxCell>
        <mxCell id="RBRn5nzX2XxaJBTWMqMU-321" value="" style="shape=partialRectangle;collapsible=0;dropTarget=0;pointerEvents=0;fillColor=none;top=0;left=0;bottom=0;right=0;points=[[0,0.5],[1,0.5]];portConstraint=eastwest;" vertex="1" parent="RBRn5nzX2XxaJBTWMqMU-311">
          <mxGeometry y="120" width="500" height="30" as="geometry" />
        </mxCell>
        <mxCell id="RBRn5nzX2XxaJBTWMqMU-322" value="" style="shape=partialRectangle;connectable=0;fillColor=none;top=0;left=0;bottom=0;right=0;editable=1;overflow=hidden;" vertex="1" parent="RBRn5nzX2XxaJBTWMqMU-321">
          <mxGeometry width="30" height="30" as="geometry" />
        </mxCell>
        <mxCell id="RBRn5nzX2XxaJBTWMqMU-323" value="sale_price" style="shape=partialRectangle;connectable=0;fillColor=none;top=0;left=0;bottom=0;right=0;align=left;spacingLeft=6;overflow=hidden;" vertex="1" parent="RBRn5nzX2XxaJBTWMqMU-321">
          <mxGeometry x="30" width="90" height="30" as="geometry" />
        </mxCell>
        <mxCell id="RBRn5nzX2XxaJBTWMqMU-327" style="shape=partialRectangle;connectable=0;fillColor=none;top=0;left=0;bottom=0;right=0;align=left;spacingLeft=6;overflow=hidden;" vertex="1" parent="RBRn5nzX2XxaJBTWMqMU-321">
          <mxGeometry x="120" width="170" height="30" as="geometry" />
        </mxCell>
        <mxCell id="RBRn5nzX2XxaJBTWMqMU-331" style="shape=partialRectangle;connectable=0;fillColor=none;top=0;left=0;bottom=0;right=0;align=left;spacingLeft=6;overflow=hidden;" vertex="1" parent="RBRn5nzX2XxaJBTWMqMU-321">
          <mxGeometry x="290" width="100" height="30" as="geometry" />
        </mxCell>
        <mxCell id="RBRn5nzX2XxaJBTWMqMU-335" value="date" style="shape=partialRectangle;connectable=0;fillColor=none;top=0;left=0;bottom=0;right=0;align=left;spacingLeft=6;overflow=hidden;" vertex="1" parent="RBRn5nzX2XxaJBTWMqMU-321">
          <mxGeometry x="390" width="110" height="30" as="geometry" />
        </mxCell>
        <mxCell id="RBRn5nzX2XxaJBTWMqMU-336" style="shape=partialRectangle;collapsible=0;dropTarget=0;pointerEvents=0;fillColor=none;top=0;left=0;bottom=0;right=0;points=[[0,0.5],[1,0.5]];portConstraint=eastwest;" vertex="1" parent="RBRn5nzX2XxaJBTWMqMU-311">
          <mxGeometry y="150" width="500" height="30" as="geometry" />
        </mxCell>
        <mxCell id="RBRn5nzX2XxaJBTWMqMU-337" value="FK" style="shape=partialRectangle;connectable=0;fillColor=none;top=0;left=0;bottom=0;right=0;editable=1;overflow=hidden;" vertex="1" parent="RBRn5nzX2XxaJBTWMqMU-336">
          <mxGeometry width="30" height="30" as="geometry" />
        </mxCell>
        <mxCell id="RBRn5nzX2XxaJBTWMqMU-338" value="property_id" style="shape=partialRectangle;connectable=0;fillColor=none;top=0;left=0;bottom=0;right=0;align=left;spacingLeft=6;overflow=hidden;" vertex="1" parent="RBRn5nzX2XxaJBTWMqMU-336">
          <mxGeometry x="30" width="90" height="30" as="geometry" />
        </mxCell>
        <mxCell id="RBRn5nzX2XxaJBTWMqMU-339" style="shape=partialRectangle;connectable=0;fillColor=none;top=0;left=0;bottom=0;right=0;align=left;spacingLeft=6;overflow=hidden;" vertex="1" parent="RBRn5nzX2XxaJBTWMqMU-336">
          <mxGeometry x="120" width="170" height="30" as="geometry" />
        </mxCell>
        <mxCell id="RBRn5nzX2XxaJBTWMqMU-340" style="shape=partialRectangle;connectable=0;fillColor=none;top=0;left=0;bottom=0;right=0;align=left;spacingLeft=6;overflow=hidden;" vertex="1" parent="RBRn5nzX2XxaJBTWMqMU-336">
          <mxGeometry x="290" width="100" height="30" as="geometry" />
        </mxCell>
        <mxCell id="RBRn5nzX2XxaJBTWMqMU-341" value="int" style="shape=partialRectangle;connectable=0;fillColor=none;top=0;left=0;bottom=0;right=0;align=left;spacingLeft=6;overflow=hidden;" vertex="1" parent="RBRn5nzX2XxaJBTWMqMU-336">
          <mxGeometry x="390" width="110" height="30" as="geometry" />
        </mxCell>
      </root>
    </mxGraphModel>
  </diagram>
  <diagram id="cLuz58ub-sfFy6tB_u4p" name="Week3 Practice #1">
    <mxGraphModel dx="2272" dy="737" grid="1" gridSize="10" guides="1" tooltips="1" connect="1" arrows="1" fold="1" page="1" pageScale="1" pageWidth="850" pageHeight="1100" math="0" shadow="0">
      <root>
        <mxCell id="0" />
        <mxCell id="1" parent="0" />
        <mxCell id="UAq_NEl9ndPJyNngXsEl-1" value="Enrollment" style="shape=table;startSize=30;container=1;collapsible=1;childLayout=tableLayout;fixedRows=1;rowLines=0;fontStyle=1;align=center;resizeLast=1;" parent="1" vertex="1">
          <mxGeometry x="-20" y="410" width="180" height="160" as="geometry" />
        </mxCell>
        <mxCell id="UAq_NEl9ndPJyNngXsEl-2" value="" style="shape=partialRectangle;collapsible=0;dropTarget=0;pointerEvents=0;fillColor=none;top=0;left=0;bottom=1;right=0;points=[[0,0.5],[1,0.5]];portConstraint=eastwest;" parent="UAq_NEl9ndPJyNngXsEl-1" vertex="1">
          <mxGeometry y="30" width="180" height="30" as="geometry" />
        </mxCell>
        <mxCell id="UAq_NEl9ndPJyNngXsEl-3" value="PK" style="shape=partialRectangle;connectable=0;fillColor=none;top=0;left=0;bottom=0;right=0;fontStyle=1;overflow=hidden;" parent="UAq_NEl9ndPJyNngXsEl-2" vertex="1">
          <mxGeometry width="30" height="30" as="geometry" />
        </mxCell>
        <mxCell id="UAq_NEl9ndPJyNngXsEl-4" value="UniqueID" style="shape=partialRectangle;connectable=0;fillColor=none;top=0;left=0;bottom=0;right=0;align=left;spacingLeft=6;fontStyle=5;overflow=hidden;" parent="UAq_NEl9ndPJyNngXsEl-2" vertex="1">
          <mxGeometry x="30" width="150" height="30" as="geometry" />
        </mxCell>
        <mxCell id="UAq_NEl9ndPJyNngXsEl-5" value="" style="shape=partialRectangle;collapsible=0;dropTarget=0;pointerEvents=0;fillColor=none;top=0;left=0;bottom=0;right=0;points=[[0,0.5],[1,0.5]];portConstraint=eastwest;" parent="UAq_NEl9ndPJyNngXsEl-1" vertex="1">
          <mxGeometry y="60" width="180" height="30" as="geometry" />
        </mxCell>
        <mxCell id="UAq_NEl9ndPJyNngXsEl-6" value="" style="shape=partialRectangle;connectable=0;fillColor=none;top=0;left=0;bottom=0;right=0;editable=1;overflow=hidden;" parent="UAq_NEl9ndPJyNngXsEl-5" vertex="1">
          <mxGeometry width="30" height="30" as="geometry" />
        </mxCell>
        <mxCell id="UAq_NEl9ndPJyNngXsEl-7" value="Row 1" style="shape=partialRectangle;connectable=0;fillColor=none;top=0;left=0;bottom=0;right=0;align=left;spacingLeft=6;overflow=hidden;" parent="UAq_NEl9ndPJyNngXsEl-5" vertex="1">
          <mxGeometry x="30" width="150" height="30" as="geometry" />
        </mxCell>
        <mxCell id="UAq_NEl9ndPJyNngXsEl-8" value="" style="shape=partialRectangle;collapsible=0;dropTarget=0;pointerEvents=0;fillColor=none;top=0;left=0;bottom=0;right=0;points=[[0,0.5],[1,0.5]];portConstraint=eastwest;" parent="UAq_NEl9ndPJyNngXsEl-1" vertex="1">
          <mxGeometry y="90" width="180" height="30" as="geometry" />
        </mxCell>
        <mxCell id="UAq_NEl9ndPJyNngXsEl-9" value="" style="shape=partialRectangle;connectable=0;fillColor=none;top=0;left=0;bottom=0;right=0;editable=1;overflow=hidden;" parent="UAq_NEl9ndPJyNngXsEl-8" vertex="1">
          <mxGeometry width="30" height="30" as="geometry" />
        </mxCell>
        <mxCell id="UAq_NEl9ndPJyNngXsEl-10" value="Row 2" style="shape=partialRectangle;connectable=0;fillColor=none;top=0;left=0;bottom=0;right=0;align=left;spacingLeft=6;overflow=hidden;" parent="UAq_NEl9ndPJyNngXsEl-8" vertex="1">
          <mxGeometry x="30" width="150" height="30" as="geometry" />
        </mxCell>
        <mxCell id="UAq_NEl9ndPJyNngXsEl-11" value="" style="shape=partialRectangle;collapsible=0;dropTarget=0;pointerEvents=0;fillColor=none;top=0;left=0;bottom=0;right=0;points=[[0,0.5],[1,0.5]];portConstraint=eastwest;" parent="UAq_NEl9ndPJyNngXsEl-1" vertex="1">
          <mxGeometry y="120" width="180" height="30" as="geometry" />
        </mxCell>
        <mxCell id="UAq_NEl9ndPJyNngXsEl-12" value="" style="shape=partialRectangle;connectable=0;fillColor=none;top=0;left=0;bottom=0;right=0;editable=1;overflow=hidden;" parent="UAq_NEl9ndPJyNngXsEl-11" vertex="1">
          <mxGeometry width="30" height="30" as="geometry" />
        </mxCell>
        <mxCell id="UAq_NEl9ndPJyNngXsEl-13" value="Row 3" style="shape=partialRectangle;connectable=0;fillColor=none;top=0;left=0;bottom=0;right=0;align=left;spacingLeft=6;overflow=hidden;" parent="UAq_NEl9ndPJyNngXsEl-11" vertex="1">
          <mxGeometry x="30" width="150" height="30" as="geometry" />
        </mxCell>
        <mxCell id="UAq_NEl9ndPJyNngXsEl-40" style="edgeStyle=orthogonalEdgeStyle;rounded=0;orthogonalLoop=1;jettySize=auto;html=1;startArrow=ERmandOne;startFill=0;endArrow=ERzeroToMany;endFill=1;strokeWidth=3;" parent="1" source="UAq_NEl9ndPJyNngXsEl-14" edge="1">
          <mxGeometry relative="1" as="geometry">
            <mxPoint x="360" y="144" as="targetPoint" />
            <Array as="points">
              <mxPoint x="320" y="140" />
              <mxPoint x="320" y="144" />
            </Array>
          </mxGeometry>
        </mxCell>
        <mxCell id="UAq_NEl9ndPJyNngXsEl-67" style="edgeStyle=orthogonalEdgeStyle;rounded=0;orthogonalLoop=1;jettySize=auto;html=1;startArrow=ERmandOne;startFill=0;endArrow=ERoneToMany;endFill=0;strokeWidth=3;" parent="1" source="UAq_NEl9ndPJyNngXsEl-14" target="UAq_NEl9ndPJyNngXsEl-1" edge="1">
          <mxGeometry relative="1" as="geometry" />
        </mxCell>
        <mxCell id="UAq_NEl9ndPJyNngXsEl-14" value="Sudent" style="shape=table;startSize=30;container=1;collapsible=1;childLayout=tableLayout;fixedRows=1;rowLines=0;fontStyle=1;align=center;resizeLast=1;" parent="1" vertex="1">
          <mxGeometry x="-10" y="60" width="180" height="160" as="geometry" />
        </mxCell>
        <mxCell id="UAq_NEl9ndPJyNngXsEl-15" value="" style="shape=partialRectangle;collapsible=0;dropTarget=0;pointerEvents=0;fillColor=none;top=0;left=0;bottom=1;right=0;points=[[0,0.5],[1,0.5]];portConstraint=eastwest;" parent="UAq_NEl9ndPJyNngXsEl-14" vertex="1">
          <mxGeometry y="30" width="180" height="30" as="geometry" />
        </mxCell>
        <mxCell id="UAq_NEl9ndPJyNngXsEl-16" value="PK" style="shape=partialRectangle;connectable=0;fillColor=none;top=0;left=0;bottom=0;right=0;fontStyle=1;overflow=hidden;" parent="UAq_NEl9ndPJyNngXsEl-15" vertex="1">
          <mxGeometry width="30" height="30" as="geometry" />
        </mxCell>
        <mxCell id="UAq_NEl9ndPJyNngXsEl-17" value="UniqueID" style="shape=partialRectangle;connectable=0;fillColor=none;top=0;left=0;bottom=0;right=0;align=left;spacingLeft=6;fontStyle=5;overflow=hidden;" parent="UAq_NEl9ndPJyNngXsEl-15" vertex="1">
          <mxGeometry x="30" width="150" height="30" as="geometry" />
        </mxCell>
        <mxCell id="UAq_NEl9ndPJyNngXsEl-18" value="" style="shape=partialRectangle;collapsible=0;dropTarget=0;pointerEvents=0;fillColor=none;top=0;left=0;bottom=0;right=0;points=[[0,0.5],[1,0.5]];portConstraint=eastwest;" parent="UAq_NEl9ndPJyNngXsEl-14" vertex="1">
          <mxGeometry y="60" width="180" height="30" as="geometry" />
        </mxCell>
        <mxCell id="UAq_NEl9ndPJyNngXsEl-19" value="" style="shape=partialRectangle;connectable=0;fillColor=none;top=0;left=0;bottom=0;right=0;editable=1;overflow=hidden;" parent="UAq_NEl9ndPJyNngXsEl-18" vertex="1">
          <mxGeometry width="30" height="30" as="geometry" />
        </mxCell>
        <mxCell id="UAq_NEl9ndPJyNngXsEl-20" value="Row 1" style="shape=partialRectangle;connectable=0;fillColor=none;top=0;left=0;bottom=0;right=0;align=left;spacingLeft=6;overflow=hidden;" parent="UAq_NEl9ndPJyNngXsEl-18" vertex="1">
          <mxGeometry x="30" width="150" height="30" as="geometry" />
        </mxCell>
        <mxCell id="UAq_NEl9ndPJyNngXsEl-21" value="" style="shape=partialRectangle;collapsible=0;dropTarget=0;pointerEvents=0;fillColor=none;top=0;left=0;bottom=0;right=0;points=[[0,0.5],[1,0.5]];portConstraint=eastwest;" parent="UAq_NEl9ndPJyNngXsEl-14" vertex="1">
          <mxGeometry y="90" width="180" height="30" as="geometry" />
        </mxCell>
        <mxCell id="UAq_NEl9ndPJyNngXsEl-22" value="" style="shape=partialRectangle;connectable=0;fillColor=none;top=0;left=0;bottom=0;right=0;editable=1;overflow=hidden;" parent="UAq_NEl9ndPJyNngXsEl-21" vertex="1">
          <mxGeometry width="30" height="30" as="geometry" />
        </mxCell>
        <mxCell id="UAq_NEl9ndPJyNngXsEl-23" value="Row 2" style="shape=partialRectangle;connectable=0;fillColor=none;top=0;left=0;bottom=0;right=0;align=left;spacingLeft=6;overflow=hidden;" parent="UAq_NEl9ndPJyNngXsEl-21" vertex="1">
          <mxGeometry x="30" width="150" height="30" as="geometry" />
        </mxCell>
        <mxCell id="UAq_NEl9ndPJyNngXsEl-24" value="" style="shape=partialRectangle;collapsible=0;dropTarget=0;pointerEvents=0;fillColor=none;top=0;left=0;bottom=0;right=0;points=[[0,0.5],[1,0.5]];portConstraint=eastwest;" parent="UAq_NEl9ndPJyNngXsEl-14" vertex="1">
          <mxGeometry y="120" width="180" height="30" as="geometry" />
        </mxCell>
        <mxCell id="UAq_NEl9ndPJyNngXsEl-25" value="" style="shape=partialRectangle;connectable=0;fillColor=none;top=0;left=0;bottom=0;right=0;editable=1;overflow=hidden;" parent="UAq_NEl9ndPJyNngXsEl-24" vertex="1">
          <mxGeometry width="30" height="30" as="geometry" />
        </mxCell>
        <mxCell id="UAq_NEl9ndPJyNngXsEl-26" value="Row 3" style="shape=partialRectangle;connectable=0;fillColor=none;top=0;left=0;bottom=0;right=0;align=left;spacingLeft=6;overflow=hidden;" parent="UAq_NEl9ndPJyNngXsEl-24" vertex="1">
          <mxGeometry x="30" width="150" height="30" as="geometry" />
        </mxCell>
        <mxCell id="UAq_NEl9ndPJyNngXsEl-27" value="Registration" style="shape=table;startSize=30;container=1;collapsible=1;childLayout=tableLayout;fixedRows=1;rowLines=0;fontStyle=1;align=center;resizeLast=1;" parent="1" vertex="1">
          <mxGeometry x="370" y="30" width="180" height="160" as="geometry" />
        </mxCell>
        <mxCell id="UAq_NEl9ndPJyNngXsEl-28" value="" style="shape=partialRectangle;collapsible=0;dropTarget=0;pointerEvents=0;fillColor=none;top=0;left=0;bottom=1;right=0;points=[[0,0.5],[1,0.5]];portConstraint=eastwest;" parent="UAq_NEl9ndPJyNngXsEl-27" vertex="1">
          <mxGeometry y="30" width="180" height="30" as="geometry" />
        </mxCell>
        <mxCell id="UAq_NEl9ndPJyNngXsEl-29" value="PK" style="shape=partialRectangle;connectable=0;fillColor=none;top=0;left=0;bottom=0;right=0;fontStyle=1;overflow=hidden;" parent="UAq_NEl9ndPJyNngXsEl-28" vertex="1">
          <mxGeometry width="30" height="30" as="geometry" />
        </mxCell>
        <mxCell id="UAq_NEl9ndPJyNngXsEl-30" value="UniqueID" style="shape=partialRectangle;connectable=0;fillColor=none;top=0;left=0;bottom=0;right=0;align=left;spacingLeft=6;fontStyle=5;overflow=hidden;" parent="UAq_NEl9ndPJyNngXsEl-28" vertex="1">
          <mxGeometry x="30" width="150" height="30" as="geometry" />
        </mxCell>
        <mxCell id="UAq_NEl9ndPJyNngXsEl-31" value="" style="shape=partialRectangle;collapsible=0;dropTarget=0;pointerEvents=0;fillColor=none;top=0;left=0;bottom=0;right=0;points=[[0,0.5],[1,0.5]];portConstraint=eastwest;" parent="UAq_NEl9ndPJyNngXsEl-27" vertex="1">
          <mxGeometry y="60" width="180" height="30" as="geometry" />
        </mxCell>
        <mxCell id="UAq_NEl9ndPJyNngXsEl-32" value="" style="shape=partialRectangle;connectable=0;fillColor=none;top=0;left=0;bottom=0;right=0;editable=1;overflow=hidden;" parent="UAq_NEl9ndPJyNngXsEl-31" vertex="1">
          <mxGeometry width="30" height="30" as="geometry" />
        </mxCell>
        <mxCell id="UAq_NEl9ndPJyNngXsEl-33" value="Row 1" style="shape=partialRectangle;connectable=0;fillColor=none;top=0;left=0;bottom=0;right=0;align=left;spacingLeft=6;overflow=hidden;" parent="UAq_NEl9ndPJyNngXsEl-31" vertex="1">
          <mxGeometry x="30" width="150" height="30" as="geometry" />
        </mxCell>
        <mxCell id="UAq_NEl9ndPJyNngXsEl-37" value="" style="shape=partialRectangle;collapsible=0;dropTarget=0;pointerEvents=0;fillColor=none;top=0;left=0;bottom=0;right=0;points=[[0,0.5],[1,0.5]];portConstraint=eastwest;" parent="UAq_NEl9ndPJyNngXsEl-27" vertex="1">
          <mxGeometry y="90" width="180" height="30" as="geometry" />
        </mxCell>
        <mxCell id="UAq_NEl9ndPJyNngXsEl-38" value="" style="shape=partialRectangle;connectable=0;fillColor=none;top=0;left=0;bottom=0;right=0;editable=1;overflow=hidden;" parent="UAq_NEl9ndPJyNngXsEl-37" vertex="1">
          <mxGeometry width="30" height="30" as="geometry" />
        </mxCell>
        <mxCell id="UAq_NEl9ndPJyNngXsEl-39" value="Row 3" style="shape=partialRectangle;connectable=0;fillColor=none;top=0;left=0;bottom=0;right=0;align=left;spacingLeft=6;overflow=hidden;" parent="UAq_NEl9ndPJyNngXsEl-37" vertex="1">
          <mxGeometry x="30" width="150" height="30" as="geometry" />
        </mxCell>
        <mxCell id="UAq_NEl9ndPJyNngXsEl-34" value="" style="shape=partialRectangle;collapsible=0;dropTarget=0;pointerEvents=0;fillColor=none;top=0;left=0;bottom=0;right=0;points=[[0,0.5],[1,0.5]];portConstraint=eastwest;" parent="UAq_NEl9ndPJyNngXsEl-27" vertex="1">
          <mxGeometry y="120" width="180" height="30" as="geometry" />
        </mxCell>
        <mxCell id="UAq_NEl9ndPJyNngXsEl-35" value="" style="shape=partialRectangle;connectable=0;fillColor=none;top=0;left=0;bottom=0;right=0;editable=1;overflow=hidden;" parent="UAq_NEl9ndPJyNngXsEl-34" vertex="1">
          <mxGeometry width="30" height="30" as="geometry" />
        </mxCell>
        <mxCell id="UAq_NEl9ndPJyNngXsEl-36" value="Row 2" style="shape=partialRectangle;connectable=0;fillColor=none;top=0;left=0;bottom=0;right=0;align=left;spacingLeft=6;overflow=hidden;" parent="UAq_NEl9ndPJyNngXsEl-34" vertex="1">
          <mxGeometry x="30" width="150" height="30" as="geometry" />
        </mxCell>
        <mxCell id="q_3Q6wUEmRdIJTwS-6KX-1" style="edgeStyle=orthogonalEdgeStyle;rounded=0;orthogonalLoop=1;jettySize=auto;html=1;startArrow=ERzeroToMany;startFill=1;endArrow=ERmandOne;endFill=0;strokeWidth=3;" edge="1" parent="1" source="UAq_NEl9ndPJyNngXsEl-41" target="UAq_NEl9ndPJyNngXsEl-64">
          <mxGeometry relative="1" as="geometry" />
        </mxCell>
        <mxCell id="q_3Q6wUEmRdIJTwS-6KX-29" style="edgeStyle=orthogonalEdgeStyle;rounded=0;orthogonalLoop=1;jettySize=auto;html=1;entryX=-0.006;entryY=0.067;entryDx=0;entryDy=0;entryPerimeter=0;startArrow=ERone;startFill=0;endArrow=ERoneToMany;endFill=0;strokeWidth=3;" edge="1" parent="1" source="UAq_NEl9ndPJyNngXsEl-41" target="q_3Q6wUEmRdIJTwS-6KX-9">
          <mxGeometry relative="1" as="geometry" />
        </mxCell>
        <mxCell id="UAq_NEl9ndPJyNngXsEl-41" value="Program" style="shape=table;startSize=30;container=1;collapsible=1;childLayout=tableLayout;fixedRows=1;rowLines=0;fontStyle=1;align=center;resizeLast=1;" parent="1" vertex="1">
          <mxGeometry x="300" y="410" width="180" height="190" as="geometry" />
        </mxCell>
        <mxCell id="UAq_NEl9ndPJyNngXsEl-42" value="" style="shape=partialRectangle;collapsible=0;dropTarget=0;pointerEvents=0;fillColor=none;top=0;left=0;bottom=1;right=0;points=[[0,0.5],[1,0.5]];portConstraint=eastwest;" parent="UAq_NEl9ndPJyNngXsEl-41" vertex="1">
          <mxGeometry y="30" width="180" height="30" as="geometry" />
        </mxCell>
        <mxCell id="UAq_NEl9ndPJyNngXsEl-43" value="PK" style="shape=partialRectangle;connectable=0;fillColor=none;top=0;left=0;bottom=0;right=0;fontStyle=1;overflow=hidden;" parent="UAq_NEl9ndPJyNngXsEl-42" vertex="1">
          <mxGeometry width="30" height="30" as="geometry" />
        </mxCell>
        <mxCell id="UAq_NEl9ndPJyNngXsEl-44" value="UniqueID" style="shape=partialRectangle;connectable=0;fillColor=none;top=0;left=0;bottom=0;right=0;align=left;spacingLeft=6;fontStyle=5;overflow=hidden;" parent="UAq_NEl9ndPJyNngXsEl-42" vertex="1">
          <mxGeometry x="30" width="150" height="30" as="geometry" />
        </mxCell>
        <mxCell id="UAq_NEl9ndPJyNngXsEl-45" value="" style="shape=partialRectangle;collapsible=0;dropTarget=0;pointerEvents=0;fillColor=none;top=0;left=0;bottom=0;right=0;points=[[0,0.5],[1,0.5]];portConstraint=eastwest;" parent="UAq_NEl9ndPJyNngXsEl-41" vertex="1">
          <mxGeometry y="60" width="180" height="30" as="geometry" />
        </mxCell>
        <mxCell id="UAq_NEl9ndPJyNngXsEl-46" value="" style="shape=partialRectangle;connectable=0;fillColor=none;top=0;left=0;bottom=0;right=0;editable=1;overflow=hidden;" parent="UAq_NEl9ndPJyNngXsEl-45" vertex="1">
          <mxGeometry width="30" height="30" as="geometry" />
        </mxCell>
        <mxCell id="UAq_NEl9ndPJyNngXsEl-47" value="Row 1" style="shape=partialRectangle;connectable=0;fillColor=none;top=0;left=0;bottom=0;right=0;align=left;spacingLeft=6;overflow=hidden;" parent="UAq_NEl9ndPJyNngXsEl-45" vertex="1">
          <mxGeometry x="30" width="150" height="30" as="geometry" />
        </mxCell>
        <mxCell id="UAq_NEl9ndPJyNngXsEl-48" value="" style="shape=partialRectangle;collapsible=0;dropTarget=0;pointerEvents=0;fillColor=none;top=0;left=0;bottom=0;right=0;points=[[0,0.5],[1,0.5]];portConstraint=eastwest;" parent="UAq_NEl9ndPJyNngXsEl-41" vertex="1">
          <mxGeometry y="90" width="180" height="30" as="geometry" />
        </mxCell>
        <mxCell id="UAq_NEl9ndPJyNngXsEl-49" value="" style="shape=partialRectangle;connectable=0;fillColor=none;top=0;left=0;bottom=0;right=0;editable=1;overflow=hidden;" parent="UAq_NEl9ndPJyNngXsEl-48" vertex="1">
          <mxGeometry width="30" height="30" as="geometry" />
        </mxCell>
        <mxCell id="UAq_NEl9ndPJyNngXsEl-50" value="Row 2" style="shape=partialRectangle;connectable=0;fillColor=none;top=0;left=0;bottom=0;right=0;align=left;spacingLeft=6;overflow=hidden;" parent="UAq_NEl9ndPJyNngXsEl-48" vertex="1">
          <mxGeometry x="30" width="150" height="30" as="geometry" />
        </mxCell>
        <mxCell id="UAq_NEl9ndPJyNngXsEl-51" value="" style="shape=partialRectangle;collapsible=0;dropTarget=0;pointerEvents=0;fillColor=none;top=0;left=0;bottom=0;right=0;points=[[0,0.5],[1,0.5]];portConstraint=eastwest;" parent="UAq_NEl9ndPJyNngXsEl-41" vertex="1">
          <mxGeometry y="120" width="180" height="30" as="geometry" />
        </mxCell>
        <mxCell id="UAq_NEl9ndPJyNngXsEl-52" value="" style="shape=partialRectangle;connectable=0;fillColor=none;top=0;left=0;bottom=0;right=0;editable=1;overflow=hidden;" parent="UAq_NEl9ndPJyNngXsEl-51" vertex="1">
          <mxGeometry width="30" height="30" as="geometry" />
        </mxCell>
        <mxCell id="UAq_NEl9ndPJyNngXsEl-53" value="Row 3" style="shape=partialRectangle;connectable=0;fillColor=none;top=0;left=0;bottom=0;right=0;align=left;spacingLeft=6;overflow=hidden;" parent="UAq_NEl9ndPJyNngXsEl-51" vertex="1">
          <mxGeometry x="30" width="150" height="30" as="geometry" />
        </mxCell>
        <mxCell id="UAq_NEl9ndPJyNngXsEl-54" value="Catalog" style="shape=table;startSize=30;container=1;collapsible=1;childLayout=tableLayout;fixedRows=1;rowLines=0;fontStyle=1;align=center;resizeLast=1;" parent="1" vertex="1">
          <mxGeometry x="540" y="660" width="180" height="160" as="geometry" />
        </mxCell>
        <mxCell id="UAq_NEl9ndPJyNngXsEl-55" value="" style="shape=partialRectangle;collapsible=0;dropTarget=0;pointerEvents=0;fillColor=none;top=0;left=0;bottom=1;right=0;points=[[0,0.5],[1,0.5]];portConstraint=eastwest;" parent="UAq_NEl9ndPJyNngXsEl-54" vertex="1">
          <mxGeometry y="30" width="180" height="30" as="geometry" />
        </mxCell>
        <mxCell id="UAq_NEl9ndPJyNngXsEl-56" value="PK" style="shape=partialRectangle;connectable=0;fillColor=none;top=0;left=0;bottom=0;right=0;fontStyle=1;overflow=hidden;" parent="UAq_NEl9ndPJyNngXsEl-55" vertex="1">
          <mxGeometry width="30" height="30" as="geometry" />
        </mxCell>
        <mxCell id="UAq_NEl9ndPJyNngXsEl-57" value="UniqueID" style="shape=partialRectangle;connectable=0;fillColor=none;top=0;left=0;bottom=0;right=0;align=left;spacingLeft=6;fontStyle=5;overflow=hidden;" parent="UAq_NEl9ndPJyNngXsEl-55" vertex="1">
          <mxGeometry x="30" width="150" height="30" as="geometry" />
        </mxCell>
        <mxCell id="UAq_NEl9ndPJyNngXsEl-58" value="" style="shape=partialRectangle;collapsible=0;dropTarget=0;pointerEvents=0;fillColor=none;top=0;left=0;bottom=0;right=0;points=[[0,0.5],[1,0.5]];portConstraint=eastwest;" parent="UAq_NEl9ndPJyNngXsEl-54" vertex="1">
          <mxGeometry y="60" width="180" height="30" as="geometry" />
        </mxCell>
        <mxCell id="UAq_NEl9ndPJyNngXsEl-59" value="" style="shape=partialRectangle;connectable=0;fillColor=none;top=0;left=0;bottom=0;right=0;editable=1;overflow=hidden;" parent="UAq_NEl9ndPJyNngXsEl-58" vertex="1">
          <mxGeometry width="30" height="30" as="geometry" />
        </mxCell>
        <mxCell id="UAq_NEl9ndPJyNngXsEl-60" value="Row 1" style="shape=partialRectangle;connectable=0;fillColor=none;top=0;left=0;bottom=0;right=0;align=left;spacingLeft=6;overflow=hidden;" parent="UAq_NEl9ndPJyNngXsEl-58" vertex="1">
          <mxGeometry x="30" width="150" height="30" as="geometry" />
        </mxCell>
        <mxCell id="UAq_NEl9ndPJyNngXsEl-61" value="" style="shape=partialRectangle;collapsible=0;dropTarget=0;pointerEvents=0;fillColor=none;top=0;left=0;bottom=0;right=0;points=[[0,0.5],[1,0.5]];portConstraint=eastwest;" parent="UAq_NEl9ndPJyNngXsEl-54" vertex="1">
          <mxGeometry y="90" width="180" height="30" as="geometry" />
        </mxCell>
        <mxCell id="UAq_NEl9ndPJyNngXsEl-62" value="" style="shape=partialRectangle;connectable=0;fillColor=none;top=0;left=0;bottom=0;right=0;editable=1;overflow=hidden;" parent="UAq_NEl9ndPJyNngXsEl-61" vertex="1">
          <mxGeometry width="30" height="30" as="geometry" />
        </mxCell>
        <mxCell id="UAq_NEl9ndPJyNngXsEl-63" value="Row 2" style="shape=partialRectangle;connectable=0;fillColor=none;top=0;left=0;bottom=0;right=0;align=left;spacingLeft=6;overflow=hidden;" parent="UAq_NEl9ndPJyNngXsEl-61" vertex="1">
          <mxGeometry x="30" width="150" height="30" as="geometry" />
        </mxCell>
        <mxCell id="UAq_NEl9ndPJyNngXsEl-64" value="" style="shape=partialRectangle;collapsible=0;dropTarget=0;pointerEvents=0;fillColor=none;top=0;left=0;bottom=0;right=0;points=[[0,0.5],[1,0.5]];portConstraint=eastwest;" parent="UAq_NEl9ndPJyNngXsEl-54" vertex="1">
          <mxGeometry y="120" width="180" height="30" as="geometry" />
        </mxCell>
        <mxCell id="UAq_NEl9ndPJyNngXsEl-65" value="" style="shape=partialRectangle;connectable=0;fillColor=none;top=0;left=0;bottom=0;right=0;editable=1;overflow=hidden;" parent="UAq_NEl9ndPJyNngXsEl-64" vertex="1">
          <mxGeometry width="30" height="30" as="geometry" />
        </mxCell>
        <mxCell id="UAq_NEl9ndPJyNngXsEl-66" value="Row 3" style="shape=partialRectangle;connectable=0;fillColor=none;top=0;left=0;bottom=0;right=0;align=left;spacingLeft=6;overflow=hidden;" parent="UAq_NEl9ndPJyNngXsEl-64" vertex="1">
          <mxGeometry x="30" width="150" height="30" as="geometry" />
        </mxCell>
        <mxCell id="UAq_NEl9ndPJyNngXsEl-68" style="edgeStyle=orthogonalEdgeStyle;rounded=0;orthogonalLoop=1;jettySize=auto;html=1;exitX=1;exitY=0.5;exitDx=0;exitDy=0;startArrow=ERoneToMany;startFill=0;endArrow=ERmandOne;endFill=0;strokeWidth=3;entryX=0;entryY=0.5;entryDx=0;entryDy=0;" parent="1" source="UAq_NEl9ndPJyNngXsEl-5" target="UAq_NEl9ndPJyNngXsEl-45" edge="1">
          <mxGeometry relative="1" as="geometry">
            <mxPoint x="270" y="485" as="targetPoint" />
          </mxGeometry>
        </mxCell>
        <mxCell id="q_3Q6wUEmRdIJTwS-6KX-2" value="Course" style="shape=table;startSize=30;container=1;collapsible=1;childLayout=tableLayout;fixedRows=1;rowLines=0;fontStyle=1;align=center;resizeLast=1;" vertex="1" parent="1">
          <mxGeometry x="600" y="200" width="180" height="150" as="geometry" />
        </mxCell>
        <mxCell id="q_3Q6wUEmRdIJTwS-6KX-3" value="" style="shape=partialRectangle;collapsible=0;dropTarget=0;pointerEvents=0;fillColor=none;top=0;left=0;bottom=1;right=0;points=[[0,0.5],[1,0.5]];portConstraint=eastwest;" vertex="1" parent="q_3Q6wUEmRdIJTwS-6KX-2">
          <mxGeometry y="30" width="180" height="30" as="geometry" />
        </mxCell>
        <mxCell id="q_3Q6wUEmRdIJTwS-6KX-4" value="PK" style="shape=partialRectangle;connectable=0;fillColor=none;top=0;left=0;bottom=0;right=0;fontStyle=1;overflow=hidden;" vertex="1" parent="q_3Q6wUEmRdIJTwS-6KX-3">
          <mxGeometry width="30" height="30" as="geometry" />
        </mxCell>
        <mxCell id="q_3Q6wUEmRdIJTwS-6KX-5" value="UniqueID" style="shape=partialRectangle;connectable=0;fillColor=none;top=0;left=0;bottom=0;right=0;align=left;spacingLeft=6;fontStyle=5;overflow=hidden;" vertex="1" parent="q_3Q6wUEmRdIJTwS-6KX-3">
          <mxGeometry x="30" width="150" height="30" as="geometry" />
        </mxCell>
        <mxCell id="q_3Q6wUEmRdIJTwS-6KX-6" value="" style="shape=partialRectangle;collapsible=0;dropTarget=0;pointerEvents=0;fillColor=none;top=0;left=0;bottom=0;right=0;points=[[0,0.5],[1,0.5]];portConstraint=eastwest;" vertex="1" parent="q_3Q6wUEmRdIJTwS-6KX-2">
          <mxGeometry y="60" width="180" height="20" as="geometry" />
        </mxCell>
        <mxCell id="q_3Q6wUEmRdIJTwS-6KX-7" value="" style="shape=partialRectangle;connectable=0;fillColor=none;top=0;left=0;bottom=0;right=0;editable=1;overflow=hidden;" vertex="1" parent="q_3Q6wUEmRdIJTwS-6KX-6">
          <mxGeometry width="30" height="20" as="geometry" />
        </mxCell>
        <mxCell id="q_3Q6wUEmRdIJTwS-6KX-8" value="Row 1" style="shape=partialRectangle;connectable=0;fillColor=none;top=0;left=0;bottom=0;right=0;align=left;spacingLeft=6;overflow=hidden;" vertex="1" parent="q_3Q6wUEmRdIJTwS-6KX-6">
          <mxGeometry x="30" width="150" height="20" as="geometry" />
        </mxCell>
        <mxCell id="q_3Q6wUEmRdIJTwS-6KX-9" value="" style="shape=partialRectangle;collapsible=0;dropTarget=0;pointerEvents=0;fillColor=none;top=0;left=0;bottom=0;right=0;points=[[0,0.5],[1,0.5]];portConstraint=eastwest;" vertex="1" parent="q_3Q6wUEmRdIJTwS-6KX-2">
          <mxGeometry y="80" width="180" height="30" as="geometry" />
        </mxCell>
        <mxCell id="q_3Q6wUEmRdIJTwS-6KX-10" value="" style="shape=partialRectangle;connectable=0;fillColor=none;top=0;left=0;bottom=0;right=0;editable=1;overflow=hidden;" vertex="1" parent="q_3Q6wUEmRdIJTwS-6KX-9">
          <mxGeometry width="30" height="30" as="geometry" />
        </mxCell>
        <mxCell id="q_3Q6wUEmRdIJTwS-6KX-11" value="Row 2" style="shape=partialRectangle;connectable=0;fillColor=none;top=0;left=0;bottom=0;right=0;align=left;spacingLeft=6;overflow=hidden;" vertex="1" parent="q_3Q6wUEmRdIJTwS-6KX-9">
          <mxGeometry x="30" width="150" height="30" as="geometry" />
        </mxCell>
        <mxCell id="q_3Q6wUEmRdIJTwS-6KX-12" value="" style="shape=partialRectangle;collapsible=0;dropTarget=0;pointerEvents=0;fillColor=none;top=0;left=0;bottom=0;right=0;points=[[0,0.5],[1,0.5]];portConstraint=eastwest;" vertex="1" parent="q_3Q6wUEmRdIJTwS-6KX-2">
          <mxGeometry y="110" width="180" height="30" as="geometry" />
        </mxCell>
        <mxCell id="q_3Q6wUEmRdIJTwS-6KX-13" value="" style="shape=partialRectangle;connectable=0;fillColor=none;top=0;left=0;bottom=0;right=0;editable=1;overflow=hidden;" vertex="1" parent="q_3Q6wUEmRdIJTwS-6KX-12">
          <mxGeometry width="30" height="30" as="geometry" />
        </mxCell>
        <mxCell id="q_3Q6wUEmRdIJTwS-6KX-14" value="Row 3" style="shape=partialRectangle;connectable=0;fillColor=none;top=0;left=0;bottom=0;right=0;align=left;spacingLeft=6;overflow=hidden;" vertex="1" parent="q_3Q6wUEmRdIJTwS-6KX-12">
          <mxGeometry x="30" width="150" height="30" as="geometry" />
        </mxCell>
        <mxCell id="q_3Q6wUEmRdIJTwS-6KX-28" style="edgeStyle=orthogonalEdgeStyle;rounded=0;orthogonalLoop=1;jettySize=auto;html=1;startArrow=ERmandOne;startFill=0;endArrow=ERoneToMany;endFill=0;strokeWidth=3;" edge="1" parent="1" source="q_3Q6wUEmRdIJTwS-6KX-15">
          <mxGeometry relative="1" as="geometry">
            <mxPoint x="700" y="350" as="targetPoint" />
          </mxGeometry>
        </mxCell>
        <mxCell id="q_3Q6wUEmRdIJTwS-6KX-15" value="Instructor" style="shape=table;startSize=30;container=1;collapsible=1;childLayout=tableLayout;fixedRows=1;rowLines=0;fontStyle=1;align=center;resizeLast=1;" vertex="1" parent="1">
          <mxGeometry x="610" y="410" width="180" height="150" as="geometry" />
        </mxCell>
        <mxCell id="q_3Q6wUEmRdIJTwS-6KX-16" value="" style="shape=partialRectangle;collapsible=0;dropTarget=0;pointerEvents=0;fillColor=none;top=0;left=0;bottom=1;right=0;points=[[0,0.5],[1,0.5]];portConstraint=eastwest;" vertex="1" parent="q_3Q6wUEmRdIJTwS-6KX-15">
          <mxGeometry y="30" width="180" height="30" as="geometry" />
        </mxCell>
        <mxCell id="q_3Q6wUEmRdIJTwS-6KX-17" value="PK" style="shape=partialRectangle;connectable=0;fillColor=none;top=0;left=0;bottom=0;right=0;fontStyle=1;overflow=hidden;" vertex="1" parent="q_3Q6wUEmRdIJTwS-6KX-16">
          <mxGeometry width="30" height="30" as="geometry" />
        </mxCell>
        <mxCell id="q_3Q6wUEmRdIJTwS-6KX-18" value="UniqueID" style="shape=partialRectangle;connectable=0;fillColor=none;top=0;left=0;bottom=0;right=0;align=left;spacingLeft=6;fontStyle=5;overflow=hidden;" vertex="1" parent="q_3Q6wUEmRdIJTwS-6KX-16">
          <mxGeometry x="30" width="150" height="30" as="geometry" />
        </mxCell>
        <mxCell id="q_3Q6wUEmRdIJTwS-6KX-19" value="" style="shape=partialRectangle;collapsible=0;dropTarget=0;pointerEvents=0;fillColor=none;top=0;left=0;bottom=0;right=0;points=[[0,0.5],[1,0.5]];portConstraint=eastwest;" vertex="1" parent="q_3Q6wUEmRdIJTwS-6KX-15">
          <mxGeometry y="60" width="180" height="20" as="geometry" />
        </mxCell>
        <mxCell id="q_3Q6wUEmRdIJTwS-6KX-20" value="" style="shape=partialRectangle;connectable=0;fillColor=none;top=0;left=0;bottom=0;right=0;editable=1;overflow=hidden;" vertex="1" parent="q_3Q6wUEmRdIJTwS-6KX-19">
          <mxGeometry width="30" height="20" as="geometry" />
        </mxCell>
        <mxCell id="q_3Q6wUEmRdIJTwS-6KX-21" value="Row 1" style="shape=partialRectangle;connectable=0;fillColor=none;top=0;left=0;bottom=0;right=0;align=left;spacingLeft=6;overflow=hidden;" vertex="1" parent="q_3Q6wUEmRdIJTwS-6KX-19">
          <mxGeometry x="30" width="150" height="20" as="geometry" />
        </mxCell>
        <mxCell id="q_3Q6wUEmRdIJTwS-6KX-22" value="" style="shape=partialRectangle;collapsible=0;dropTarget=0;pointerEvents=0;fillColor=none;top=0;left=0;bottom=0;right=0;points=[[0,0.5],[1,0.5]];portConstraint=eastwest;" vertex="1" parent="q_3Q6wUEmRdIJTwS-6KX-15">
          <mxGeometry y="80" width="180" height="30" as="geometry" />
        </mxCell>
        <mxCell id="q_3Q6wUEmRdIJTwS-6KX-23" value="" style="shape=partialRectangle;connectable=0;fillColor=none;top=0;left=0;bottom=0;right=0;editable=1;overflow=hidden;" vertex="1" parent="q_3Q6wUEmRdIJTwS-6KX-22">
          <mxGeometry width="30" height="30" as="geometry" />
        </mxCell>
        <mxCell id="q_3Q6wUEmRdIJTwS-6KX-24" value="Row 2" style="shape=partialRectangle;connectable=0;fillColor=none;top=0;left=0;bottom=0;right=0;align=left;spacingLeft=6;overflow=hidden;" vertex="1" parent="q_3Q6wUEmRdIJTwS-6KX-22">
          <mxGeometry x="30" width="150" height="30" as="geometry" />
        </mxCell>
        <mxCell id="q_3Q6wUEmRdIJTwS-6KX-25" value="" style="shape=partialRectangle;collapsible=0;dropTarget=0;pointerEvents=0;fillColor=none;top=0;left=0;bottom=0;right=0;points=[[0,0.5],[1,0.5]];portConstraint=eastwest;" vertex="1" parent="q_3Q6wUEmRdIJTwS-6KX-15">
          <mxGeometry y="110" width="180" height="30" as="geometry" />
        </mxCell>
        <mxCell id="q_3Q6wUEmRdIJTwS-6KX-26" value="" style="shape=partialRectangle;connectable=0;fillColor=none;top=0;left=0;bottom=0;right=0;editable=1;overflow=hidden;" vertex="1" parent="q_3Q6wUEmRdIJTwS-6KX-25">
          <mxGeometry width="30" height="30" as="geometry" />
        </mxCell>
        <mxCell id="q_3Q6wUEmRdIJTwS-6KX-27" value="Row 3" style="shape=partialRectangle;connectable=0;fillColor=none;top=0;left=0;bottom=0;right=0;align=left;spacingLeft=6;overflow=hidden;" vertex="1" parent="q_3Q6wUEmRdIJTwS-6KX-25">
          <mxGeometry x="30" width="150" height="30" as="geometry" />
        </mxCell>
        <mxCell id="q_3Q6wUEmRdIJTwS-6KX-30" style="edgeStyle=orthogonalEdgeStyle;rounded=0;orthogonalLoop=1;jettySize=auto;html=1;entryX=0.45;entryY=-0.007;entryDx=0;entryDy=0;entryPerimeter=0;startArrow=ERmandOne;startFill=0;endArrow=ERzeroToMany;endFill=1;strokeWidth=3;" edge="1" parent="1" source="UAq_NEl9ndPJyNngXsEl-28" target="q_3Q6wUEmRdIJTwS-6KX-2">
          <mxGeometry relative="1" as="geometry" />
        </mxCell>
      </root>
    </mxGraphModel>
  </diagram>
  <diagram id="fhRx_S5huVr6oVRT3kGv" name="Week 3 Practice #2">
    <mxGraphModel dx="1422" dy="737" grid="1" gridSize="10" guides="1" tooltips="1" connect="1" arrows="1" fold="1" page="1" pageScale="1" pageWidth="850" pageHeight="1100" math="0" shadow="0">
      <root>
        <mxCell id="O1Ar2pL9u1d-SkSdmZId-0" />
        <mxCell id="O1Ar2pL9u1d-SkSdmZId-1" parent="O1Ar2pL9u1d-SkSdmZId-0" />
        <mxCell id="O1Ar2pL9u1d-SkSdmZId-92" style="edgeStyle=orthogonalEdgeStyle;rounded=0;orthogonalLoop=1;jettySize=auto;html=1;entryX=0.5;entryY=0;entryDx=0;entryDy=0;startArrow=ERoneToMany;startFill=0;endArrow=ERmandOne;endFill=0;strokeWidth=3;" edge="1" parent="O1Ar2pL9u1d-SkSdmZId-1" source="O1Ar2pL9u1d-SkSdmZId-2" target="O1Ar2pL9u1d-SkSdmZId-15">
          <mxGeometry relative="1" as="geometry" />
        </mxCell>
        <mxCell id="O1Ar2pL9u1d-SkSdmZId-2" value="City" style="shape=table;startSize=30;container=1;collapsible=1;childLayout=tableLayout;fixedRows=1;rowLines=0;fontStyle=1;align=center;resizeLast=1;" vertex="1" parent="O1Ar2pL9u1d-SkSdmZId-1">
          <mxGeometry x="140" y="110" width="180" height="190" as="geometry" />
        </mxCell>
        <mxCell id="O1Ar2pL9u1d-SkSdmZId-3" value="" style="shape=partialRectangle;collapsible=0;dropTarget=0;pointerEvents=0;fillColor=none;top=0;left=0;bottom=1;right=0;points=[[0,0.5],[1,0.5]];portConstraint=eastwest;" vertex="1" parent="O1Ar2pL9u1d-SkSdmZId-2">
          <mxGeometry y="30" width="180" height="30" as="geometry" />
        </mxCell>
        <mxCell id="O1Ar2pL9u1d-SkSdmZId-4" value="PK" style="shape=partialRectangle;connectable=0;fillColor=none;top=0;left=0;bottom=0;right=0;fontStyle=1;overflow=hidden;" vertex="1" parent="O1Ar2pL9u1d-SkSdmZId-3">
          <mxGeometry width="30" height="30" as="geometry" />
        </mxCell>
        <mxCell id="O1Ar2pL9u1d-SkSdmZId-5" value="UniqueID" style="shape=partialRectangle;connectable=0;fillColor=none;top=0;left=0;bottom=0;right=0;align=left;spacingLeft=6;fontStyle=5;overflow=hidden;" vertex="1" parent="O1Ar2pL9u1d-SkSdmZId-3">
          <mxGeometry x="30" width="150" height="30" as="geometry" />
        </mxCell>
        <mxCell id="O1Ar2pL9u1d-SkSdmZId-93" value="" style="shape=partialRectangle;collapsible=0;dropTarget=0;pointerEvents=0;fillColor=none;top=0;left=0;bottom=1;right=0;points=[[0,0.5],[1,0.5]];portConstraint=eastwest;" vertex="1" parent="O1Ar2pL9u1d-SkSdmZId-2">
          <mxGeometry y="60" width="180" height="30" as="geometry" />
        </mxCell>
        <mxCell id="O1Ar2pL9u1d-SkSdmZId-94" value="PK" style="shape=partialRectangle;connectable=0;fillColor=none;top=0;left=0;bottom=0;right=0;fontStyle=1;overflow=hidden;" vertex="1" parent="O1Ar2pL9u1d-SkSdmZId-93">
          <mxGeometry width="30" height="30" as="geometry" />
        </mxCell>
        <mxCell id="O1Ar2pL9u1d-SkSdmZId-95" value="UniqueID" style="shape=partialRectangle;connectable=0;fillColor=none;top=0;left=0;bottom=0;right=0;align=left;spacingLeft=6;fontStyle=5;overflow=hidden;" vertex="1" parent="O1Ar2pL9u1d-SkSdmZId-93">
          <mxGeometry x="30" width="150" height="30" as="geometry" />
        </mxCell>
        <mxCell id="O1Ar2pL9u1d-SkSdmZId-6" value="" style="shape=partialRectangle;collapsible=0;dropTarget=0;pointerEvents=0;fillColor=none;top=0;left=0;bottom=0;right=0;points=[[0,0.5],[1,0.5]];portConstraint=eastwest;" vertex="1" parent="O1Ar2pL9u1d-SkSdmZId-2">
          <mxGeometry y="90" width="180" height="30" as="geometry" />
        </mxCell>
        <mxCell id="O1Ar2pL9u1d-SkSdmZId-7" value="" style="shape=partialRectangle;connectable=0;fillColor=none;top=0;left=0;bottom=0;right=0;editable=1;overflow=hidden;" vertex="1" parent="O1Ar2pL9u1d-SkSdmZId-6">
          <mxGeometry width="30" height="30" as="geometry" />
        </mxCell>
        <mxCell id="O1Ar2pL9u1d-SkSdmZId-8" value="Row 1" style="shape=partialRectangle;connectable=0;fillColor=none;top=0;left=0;bottom=0;right=0;align=left;spacingLeft=6;overflow=hidden;" vertex="1" parent="O1Ar2pL9u1d-SkSdmZId-6">
          <mxGeometry x="30" width="150" height="30" as="geometry" />
        </mxCell>
        <mxCell id="O1Ar2pL9u1d-SkSdmZId-9" value="" style="shape=partialRectangle;collapsible=0;dropTarget=0;pointerEvents=0;fillColor=none;top=0;left=0;bottom=0;right=0;points=[[0,0.5],[1,0.5]];portConstraint=eastwest;" vertex="1" parent="O1Ar2pL9u1d-SkSdmZId-2">
          <mxGeometry y="120" width="180" height="30" as="geometry" />
        </mxCell>
        <mxCell id="O1Ar2pL9u1d-SkSdmZId-10" value="" style="shape=partialRectangle;connectable=0;fillColor=none;top=0;left=0;bottom=0;right=0;editable=1;overflow=hidden;" vertex="1" parent="O1Ar2pL9u1d-SkSdmZId-9">
          <mxGeometry width="30" height="30" as="geometry" />
        </mxCell>
        <mxCell id="O1Ar2pL9u1d-SkSdmZId-11" value="Row 2" style="shape=partialRectangle;connectable=0;fillColor=none;top=0;left=0;bottom=0;right=0;align=left;spacingLeft=6;overflow=hidden;" vertex="1" parent="O1Ar2pL9u1d-SkSdmZId-9">
          <mxGeometry x="30" width="150" height="30" as="geometry" />
        </mxCell>
        <mxCell id="O1Ar2pL9u1d-SkSdmZId-12" value="" style="shape=partialRectangle;collapsible=0;dropTarget=0;pointerEvents=0;fillColor=none;top=0;left=0;bottom=0;right=0;points=[[0,0.5],[1,0.5]];portConstraint=eastwest;" vertex="1" parent="O1Ar2pL9u1d-SkSdmZId-2">
          <mxGeometry y="150" width="180" height="30" as="geometry" />
        </mxCell>
        <mxCell id="O1Ar2pL9u1d-SkSdmZId-13" value="" style="shape=partialRectangle;connectable=0;fillColor=none;top=0;left=0;bottom=0;right=0;editable=1;overflow=hidden;" vertex="1" parent="O1Ar2pL9u1d-SkSdmZId-12">
          <mxGeometry width="30" height="30" as="geometry" />
        </mxCell>
        <mxCell id="O1Ar2pL9u1d-SkSdmZId-14" value="Row 3" style="shape=partialRectangle;connectable=0;fillColor=none;top=0;left=0;bottom=0;right=0;align=left;spacingLeft=6;overflow=hidden;" vertex="1" parent="O1Ar2pL9u1d-SkSdmZId-12">
          <mxGeometry x="30" width="150" height="30" as="geometry" />
        </mxCell>
        <mxCell id="O1Ar2pL9u1d-SkSdmZId-15" value="State" style="shape=table;startSize=30;container=1;collapsible=1;childLayout=tableLayout;fixedRows=1;rowLines=0;fontStyle=1;align=center;resizeLast=1;" vertex="1" parent="O1Ar2pL9u1d-SkSdmZId-1">
          <mxGeometry x="140" y="540" width="180" height="160" as="geometry" />
        </mxCell>
        <mxCell id="O1Ar2pL9u1d-SkSdmZId-16" value="" style="shape=partialRectangle;collapsible=0;dropTarget=0;pointerEvents=0;fillColor=none;top=0;left=0;bottom=1;right=0;points=[[0,0.5],[1,0.5]];portConstraint=eastwest;" vertex="1" parent="O1Ar2pL9u1d-SkSdmZId-15">
          <mxGeometry y="30" width="180" height="30" as="geometry" />
        </mxCell>
        <mxCell id="O1Ar2pL9u1d-SkSdmZId-17" value="PK" style="shape=partialRectangle;connectable=0;fillColor=none;top=0;left=0;bottom=0;right=0;fontStyle=1;overflow=hidden;" vertex="1" parent="O1Ar2pL9u1d-SkSdmZId-16">
          <mxGeometry width="30" height="30" as="geometry" />
        </mxCell>
        <mxCell id="O1Ar2pL9u1d-SkSdmZId-18" value="UniqueID" style="shape=partialRectangle;connectable=0;fillColor=none;top=0;left=0;bottom=0;right=0;align=left;spacingLeft=6;fontStyle=5;overflow=hidden;" vertex="1" parent="O1Ar2pL9u1d-SkSdmZId-16">
          <mxGeometry x="30" width="150" height="30" as="geometry" />
        </mxCell>
        <mxCell id="O1Ar2pL9u1d-SkSdmZId-19" value="" style="shape=partialRectangle;collapsible=0;dropTarget=0;pointerEvents=0;fillColor=none;top=0;left=0;bottom=0;right=0;points=[[0,0.5],[1,0.5]];portConstraint=eastwest;" vertex="1" parent="O1Ar2pL9u1d-SkSdmZId-15">
          <mxGeometry y="60" width="180" height="30" as="geometry" />
        </mxCell>
        <mxCell id="O1Ar2pL9u1d-SkSdmZId-20" value="" style="shape=partialRectangle;connectable=0;fillColor=none;top=0;left=0;bottom=0;right=0;editable=1;overflow=hidden;" vertex="1" parent="O1Ar2pL9u1d-SkSdmZId-19">
          <mxGeometry width="30" height="30" as="geometry" />
        </mxCell>
        <mxCell id="O1Ar2pL9u1d-SkSdmZId-21" value="Row 1" style="shape=partialRectangle;connectable=0;fillColor=none;top=0;left=0;bottom=0;right=0;align=left;spacingLeft=6;overflow=hidden;" vertex="1" parent="O1Ar2pL9u1d-SkSdmZId-19">
          <mxGeometry x="30" width="150" height="30" as="geometry" />
        </mxCell>
        <mxCell id="O1Ar2pL9u1d-SkSdmZId-22" value="" style="shape=partialRectangle;collapsible=0;dropTarget=0;pointerEvents=0;fillColor=none;top=0;left=0;bottom=0;right=0;points=[[0,0.5],[1,0.5]];portConstraint=eastwest;" vertex="1" parent="O1Ar2pL9u1d-SkSdmZId-15">
          <mxGeometry y="90" width="180" height="30" as="geometry" />
        </mxCell>
        <mxCell id="O1Ar2pL9u1d-SkSdmZId-23" value="" style="shape=partialRectangle;connectable=0;fillColor=none;top=0;left=0;bottom=0;right=0;editable=1;overflow=hidden;" vertex="1" parent="O1Ar2pL9u1d-SkSdmZId-22">
          <mxGeometry width="30" height="30" as="geometry" />
        </mxCell>
        <mxCell id="O1Ar2pL9u1d-SkSdmZId-24" value="Row 2" style="shape=partialRectangle;connectable=0;fillColor=none;top=0;left=0;bottom=0;right=0;align=left;spacingLeft=6;overflow=hidden;" vertex="1" parent="O1Ar2pL9u1d-SkSdmZId-22">
          <mxGeometry x="30" width="150" height="30" as="geometry" />
        </mxCell>
        <mxCell id="O1Ar2pL9u1d-SkSdmZId-25" value="" style="shape=partialRectangle;collapsible=0;dropTarget=0;pointerEvents=0;fillColor=none;top=0;left=0;bottom=0;right=0;points=[[0,0.5],[1,0.5]];portConstraint=eastwest;" vertex="1" parent="O1Ar2pL9u1d-SkSdmZId-15">
          <mxGeometry y="120" width="180" height="30" as="geometry" />
        </mxCell>
        <mxCell id="O1Ar2pL9u1d-SkSdmZId-26" value="" style="shape=partialRectangle;connectable=0;fillColor=none;top=0;left=0;bottom=0;right=0;editable=1;overflow=hidden;" vertex="1" parent="O1Ar2pL9u1d-SkSdmZId-25">
          <mxGeometry width="30" height="30" as="geometry" />
        </mxCell>
        <mxCell id="O1Ar2pL9u1d-SkSdmZId-27" value="Row 3" style="shape=partialRectangle;connectable=0;fillColor=none;top=0;left=0;bottom=0;right=0;align=left;spacingLeft=6;overflow=hidden;" vertex="1" parent="O1Ar2pL9u1d-SkSdmZId-25">
          <mxGeometry x="30" width="150" height="30" as="geometry" />
        </mxCell>
        <mxCell id="O1Ar2pL9u1d-SkSdmZId-97" style="edgeStyle=orthogonalEdgeStyle;rounded=0;orthogonalLoop=1;jettySize=auto;html=1;entryX=0.333;entryY=-0.006;entryDx=0;entryDy=0;entryPerimeter=0;startArrow=ERmany;startFill=0;endArrow=ERoneToMany;endFill=0;strokeWidth=3;" edge="1" parent="O1Ar2pL9u1d-SkSdmZId-1" source="O1Ar2pL9u1d-SkSdmZId-28" target="O1Ar2pL9u1d-SkSdmZId-41">
          <mxGeometry relative="1" as="geometry" />
        </mxCell>
        <mxCell id="O1Ar2pL9u1d-SkSdmZId-28" value="Airport" style="shape=table;startSize=30;container=1;collapsible=1;childLayout=tableLayout;fixedRows=1;rowLines=0;fontStyle=1;align=center;resizeLast=1;" vertex="1" parent="O1Ar2pL9u1d-SkSdmZId-1">
          <mxGeometry x="470" y="110" width="180" height="160" as="geometry" />
        </mxCell>
        <mxCell id="O1Ar2pL9u1d-SkSdmZId-29" value="" style="shape=partialRectangle;collapsible=0;dropTarget=0;pointerEvents=0;fillColor=none;top=0;left=0;bottom=1;right=0;points=[[0,0.5],[1,0.5]];portConstraint=eastwest;" vertex="1" parent="O1Ar2pL9u1d-SkSdmZId-28">
          <mxGeometry y="30" width="180" height="30" as="geometry" />
        </mxCell>
        <mxCell id="O1Ar2pL9u1d-SkSdmZId-30" value="PK" style="shape=partialRectangle;connectable=0;fillColor=none;top=0;left=0;bottom=0;right=0;fontStyle=1;overflow=hidden;" vertex="1" parent="O1Ar2pL9u1d-SkSdmZId-29">
          <mxGeometry width="30" height="30" as="geometry" />
        </mxCell>
        <mxCell id="O1Ar2pL9u1d-SkSdmZId-31" value="UniqueID" style="shape=partialRectangle;connectable=0;fillColor=none;top=0;left=0;bottom=0;right=0;align=left;spacingLeft=6;fontStyle=5;overflow=hidden;" vertex="1" parent="O1Ar2pL9u1d-SkSdmZId-29">
          <mxGeometry x="30" width="150" height="30" as="geometry" />
        </mxCell>
        <mxCell id="O1Ar2pL9u1d-SkSdmZId-32" value="" style="shape=partialRectangle;collapsible=0;dropTarget=0;pointerEvents=0;fillColor=none;top=0;left=0;bottom=0;right=0;points=[[0,0.5],[1,0.5]];portConstraint=eastwest;" vertex="1" parent="O1Ar2pL9u1d-SkSdmZId-28">
          <mxGeometry y="60" width="180" height="30" as="geometry" />
        </mxCell>
        <mxCell id="O1Ar2pL9u1d-SkSdmZId-33" value="" style="shape=partialRectangle;connectable=0;fillColor=none;top=0;left=0;bottom=0;right=0;editable=1;overflow=hidden;" vertex="1" parent="O1Ar2pL9u1d-SkSdmZId-32">
          <mxGeometry width="30" height="30" as="geometry" />
        </mxCell>
        <mxCell id="O1Ar2pL9u1d-SkSdmZId-34" value="Row 1" style="shape=partialRectangle;connectable=0;fillColor=none;top=0;left=0;bottom=0;right=0;align=left;spacingLeft=6;overflow=hidden;" vertex="1" parent="O1Ar2pL9u1d-SkSdmZId-32">
          <mxGeometry x="30" width="150" height="30" as="geometry" />
        </mxCell>
        <mxCell id="O1Ar2pL9u1d-SkSdmZId-35" value="" style="shape=partialRectangle;collapsible=0;dropTarget=0;pointerEvents=0;fillColor=none;top=0;left=0;bottom=0;right=0;points=[[0,0.5],[1,0.5]];portConstraint=eastwest;" vertex="1" parent="O1Ar2pL9u1d-SkSdmZId-28">
          <mxGeometry y="90" width="180" height="30" as="geometry" />
        </mxCell>
        <mxCell id="O1Ar2pL9u1d-SkSdmZId-36" value="" style="shape=partialRectangle;connectable=0;fillColor=none;top=0;left=0;bottom=0;right=0;editable=1;overflow=hidden;" vertex="1" parent="O1Ar2pL9u1d-SkSdmZId-35">
          <mxGeometry width="30" height="30" as="geometry" />
        </mxCell>
        <mxCell id="O1Ar2pL9u1d-SkSdmZId-37" value="Row 2" style="shape=partialRectangle;connectable=0;fillColor=none;top=0;left=0;bottom=0;right=0;align=left;spacingLeft=6;overflow=hidden;" vertex="1" parent="O1Ar2pL9u1d-SkSdmZId-35">
          <mxGeometry x="30" width="150" height="30" as="geometry" />
        </mxCell>
        <mxCell id="O1Ar2pL9u1d-SkSdmZId-38" value="" style="shape=partialRectangle;collapsible=0;dropTarget=0;pointerEvents=0;fillColor=none;top=0;left=0;bottom=0;right=0;points=[[0,0.5],[1,0.5]];portConstraint=eastwest;" vertex="1" parent="O1Ar2pL9u1d-SkSdmZId-28">
          <mxGeometry y="120" width="180" height="30" as="geometry" />
        </mxCell>
        <mxCell id="O1Ar2pL9u1d-SkSdmZId-39" value="" style="shape=partialRectangle;connectable=0;fillColor=none;top=0;left=0;bottom=0;right=0;editable=1;overflow=hidden;" vertex="1" parent="O1Ar2pL9u1d-SkSdmZId-38">
          <mxGeometry width="30" height="30" as="geometry" />
        </mxCell>
        <mxCell id="O1Ar2pL9u1d-SkSdmZId-40" value="Row 3" style="shape=partialRectangle;connectable=0;fillColor=none;top=0;left=0;bottom=0;right=0;align=left;spacingLeft=6;overflow=hidden;" vertex="1" parent="O1Ar2pL9u1d-SkSdmZId-38">
          <mxGeometry x="30" width="150" height="30" as="geometry" />
        </mxCell>
        <mxCell id="O1Ar2pL9u1d-SkSdmZId-41" value="AircraftCompany" style="shape=table;startSize=30;container=1;collapsible=1;childLayout=tableLayout;fixedRows=1;rowLines=0;fontStyle=1;align=center;resizeLast=1;" vertex="1" parent="O1Ar2pL9u1d-SkSdmZId-1">
          <mxGeometry x="500" y="410" width="180" height="160" as="geometry" />
        </mxCell>
        <mxCell id="O1Ar2pL9u1d-SkSdmZId-42" value="" style="shape=partialRectangle;collapsible=0;dropTarget=0;pointerEvents=0;fillColor=none;top=0;left=0;bottom=1;right=0;points=[[0,0.5],[1,0.5]];portConstraint=eastwest;" vertex="1" parent="O1Ar2pL9u1d-SkSdmZId-41">
          <mxGeometry y="30" width="180" height="30" as="geometry" />
        </mxCell>
        <mxCell id="O1Ar2pL9u1d-SkSdmZId-43" value="PK" style="shape=partialRectangle;connectable=0;fillColor=none;top=0;left=0;bottom=0;right=0;fontStyle=1;overflow=hidden;" vertex="1" parent="O1Ar2pL9u1d-SkSdmZId-42">
          <mxGeometry width="30" height="30" as="geometry" />
        </mxCell>
        <mxCell id="O1Ar2pL9u1d-SkSdmZId-44" value="UniqueID" style="shape=partialRectangle;connectable=0;fillColor=none;top=0;left=0;bottom=0;right=0;align=left;spacingLeft=6;fontStyle=5;overflow=hidden;" vertex="1" parent="O1Ar2pL9u1d-SkSdmZId-42">
          <mxGeometry x="30" width="150" height="30" as="geometry" />
        </mxCell>
        <mxCell id="O1Ar2pL9u1d-SkSdmZId-45" value="" style="shape=partialRectangle;collapsible=0;dropTarget=0;pointerEvents=0;fillColor=none;top=0;left=0;bottom=0;right=0;points=[[0,0.5],[1,0.5]];portConstraint=eastwest;" vertex="1" parent="O1Ar2pL9u1d-SkSdmZId-41">
          <mxGeometry y="60" width="180" height="30" as="geometry" />
        </mxCell>
        <mxCell id="O1Ar2pL9u1d-SkSdmZId-46" value="" style="shape=partialRectangle;connectable=0;fillColor=none;top=0;left=0;bottom=0;right=0;editable=1;overflow=hidden;" vertex="1" parent="O1Ar2pL9u1d-SkSdmZId-45">
          <mxGeometry width="30" height="30" as="geometry" />
        </mxCell>
        <mxCell id="O1Ar2pL9u1d-SkSdmZId-47" value="Row 1" style="shape=partialRectangle;connectable=0;fillColor=none;top=0;left=0;bottom=0;right=0;align=left;spacingLeft=6;overflow=hidden;" vertex="1" parent="O1Ar2pL9u1d-SkSdmZId-45">
          <mxGeometry x="30" width="150" height="30" as="geometry" />
        </mxCell>
        <mxCell id="O1Ar2pL9u1d-SkSdmZId-48" value="" style="shape=partialRectangle;collapsible=0;dropTarget=0;pointerEvents=0;fillColor=none;top=0;left=0;bottom=0;right=0;points=[[0,0.5],[1,0.5]];portConstraint=eastwest;" vertex="1" parent="O1Ar2pL9u1d-SkSdmZId-41">
          <mxGeometry y="90" width="180" height="30" as="geometry" />
        </mxCell>
        <mxCell id="O1Ar2pL9u1d-SkSdmZId-49" value="" style="shape=partialRectangle;connectable=0;fillColor=none;top=0;left=0;bottom=0;right=0;editable=1;overflow=hidden;" vertex="1" parent="O1Ar2pL9u1d-SkSdmZId-48">
          <mxGeometry width="30" height="30" as="geometry" />
        </mxCell>
        <mxCell id="O1Ar2pL9u1d-SkSdmZId-50" value="Row 2" style="shape=partialRectangle;connectable=0;fillColor=none;top=0;left=0;bottom=0;right=0;align=left;spacingLeft=6;overflow=hidden;" vertex="1" parent="O1Ar2pL9u1d-SkSdmZId-48">
          <mxGeometry x="30" width="150" height="30" as="geometry" />
        </mxCell>
        <mxCell id="O1Ar2pL9u1d-SkSdmZId-51" value="" style="shape=partialRectangle;collapsible=0;dropTarget=0;pointerEvents=0;fillColor=none;top=0;left=0;bottom=0;right=0;points=[[0,0.5],[1,0.5]];portConstraint=eastwest;" vertex="1" parent="O1Ar2pL9u1d-SkSdmZId-41">
          <mxGeometry y="120" width="180" height="30" as="geometry" />
        </mxCell>
        <mxCell id="O1Ar2pL9u1d-SkSdmZId-52" value="" style="shape=partialRectangle;connectable=0;fillColor=none;top=0;left=0;bottom=0;right=0;editable=1;overflow=hidden;" vertex="1" parent="O1Ar2pL9u1d-SkSdmZId-51">
          <mxGeometry width="30" height="30" as="geometry" />
        </mxCell>
        <mxCell id="O1Ar2pL9u1d-SkSdmZId-53" value="Row 3" style="shape=partialRectangle;connectable=0;fillColor=none;top=0;left=0;bottom=0;right=0;align=left;spacingLeft=6;overflow=hidden;" vertex="1" parent="O1Ar2pL9u1d-SkSdmZId-51">
          <mxGeometry x="30" width="150" height="30" as="geometry" />
        </mxCell>
        <mxCell id="O1Ar2pL9u1d-SkSdmZId-54" value="Passenger" style="shape=table;startSize=30;container=1;collapsible=1;childLayout=tableLayout;fixedRows=1;rowLines=0;fontStyle=1;align=center;resizeLast=1;" vertex="1" parent="O1Ar2pL9u1d-SkSdmZId-1">
          <mxGeometry x="620" y="670" width="180" height="160" as="geometry" />
        </mxCell>
        <mxCell id="O1Ar2pL9u1d-SkSdmZId-55" value="" style="shape=partialRectangle;collapsible=0;dropTarget=0;pointerEvents=0;fillColor=none;top=0;left=0;bottom=1;right=0;points=[[0,0.5],[1,0.5]];portConstraint=eastwest;" vertex="1" parent="O1Ar2pL9u1d-SkSdmZId-54">
          <mxGeometry y="30" width="180" height="30" as="geometry" />
        </mxCell>
        <mxCell id="O1Ar2pL9u1d-SkSdmZId-56" value="PK" style="shape=partialRectangle;connectable=0;fillColor=none;top=0;left=0;bottom=0;right=0;fontStyle=1;overflow=hidden;" vertex="1" parent="O1Ar2pL9u1d-SkSdmZId-55">
          <mxGeometry width="30" height="30" as="geometry" />
        </mxCell>
        <mxCell id="O1Ar2pL9u1d-SkSdmZId-57" value="UniqueID" style="shape=partialRectangle;connectable=0;fillColor=none;top=0;left=0;bottom=0;right=0;align=left;spacingLeft=6;fontStyle=5;overflow=hidden;" vertex="1" parent="O1Ar2pL9u1d-SkSdmZId-55">
          <mxGeometry x="30" width="150" height="30" as="geometry" />
        </mxCell>
        <mxCell id="O1Ar2pL9u1d-SkSdmZId-58" value="" style="shape=partialRectangle;collapsible=0;dropTarget=0;pointerEvents=0;fillColor=none;top=0;left=0;bottom=0;right=0;points=[[0,0.5],[1,0.5]];portConstraint=eastwest;" vertex="1" parent="O1Ar2pL9u1d-SkSdmZId-54">
          <mxGeometry y="60" width="180" height="30" as="geometry" />
        </mxCell>
        <mxCell id="O1Ar2pL9u1d-SkSdmZId-59" value="" style="shape=partialRectangle;connectable=0;fillColor=none;top=0;left=0;bottom=0;right=0;editable=1;overflow=hidden;" vertex="1" parent="O1Ar2pL9u1d-SkSdmZId-58">
          <mxGeometry width="30" height="30" as="geometry" />
        </mxCell>
        <mxCell id="O1Ar2pL9u1d-SkSdmZId-60" value="Row 1" style="shape=partialRectangle;connectable=0;fillColor=none;top=0;left=0;bottom=0;right=0;align=left;spacingLeft=6;overflow=hidden;" vertex="1" parent="O1Ar2pL9u1d-SkSdmZId-58">
          <mxGeometry x="30" width="150" height="30" as="geometry" />
        </mxCell>
        <mxCell id="O1Ar2pL9u1d-SkSdmZId-61" value="" style="shape=partialRectangle;collapsible=0;dropTarget=0;pointerEvents=0;fillColor=none;top=0;left=0;bottom=0;right=0;points=[[0,0.5],[1,0.5]];portConstraint=eastwest;" vertex="1" parent="O1Ar2pL9u1d-SkSdmZId-54">
          <mxGeometry y="90" width="180" height="30" as="geometry" />
        </mxCell>
        <mxCell id="O1Ar2pL9u1d-SkSdmZId-62" value="" style="shape=partialRectangle;connectable=0;fillColor=none;top=0;left=0;bottom=0;right=0;editable=1;overflow=hidden;" vertex="1" parent="O1Ar2pL9u1d-SkSdmZId-61">
          <mxGeometry width="30" height="30" as="geometry" />
        </mxCell>
        <mxCell id="O1Ar2pL9u1d-SkSdmZId-63" value="Row 2" style="shape=partialRectangle;connectable=0;fillColor=none;top=0;left=0;bottom=0;right=0;align=left;spacingLeft=6;overflow=hidden;" vertex="1" parent="O1Ar2pL9u1d-SkSdmZId-61">
          <mxGeometry x="30" width="150" height="30" as="geometry" />
        </mxCell>
        <mxCell id="O1Ar2pL9u1d-SkSdmZId-64" value="" style="shape=partialRectangle;collapsible=0;dropTarget=0;pointerEvents=0;fillColor=none;top=0;left=0;bottom=0;right=0;points=[[0,0.5],[1,0.5]];portConstraint=eastwest;" vertex="1" parent="O1Ar2pL9u1d-SkSdmZId-54">
          <mxGeometry y="120" width="180" height="30" as="geometry" />
        </mxCell>
        <mxCell id="O1Ar2pL9u1d-SkSdmZId-65" value="" style="shape=partialRectangle;connectable=0;fillColor=none;top=0;left=0;bottom=0;right=0;editable=1;overflow=hidden;" vertex="1" parent="O1Ar2pL9u1d-SkSdmZId-64">
          <mxGeometry width="30" height="30" as="geometry" />
        </mxCell>
        <mxCell id="O1Ar2pL9u1d-SkSdmZId-66" value="Row 3" style="shape=partialRectangle;connectable=0;fillColor=none;top=0;left=0;bottom=0;right=0;align=left;spacingLeft=6;overflow=hidden;" vertex="1" parent="O1Ar2pL9u1d-SkSdmZId-64">
          <mxGeometry x="30" width="150" height="30" as="geometry" />
        </mxCell>
        <mxCell id="O1Ar2pL9u1d-SkSdmZId-99" style="edgeStyle=orthogonalEdgeStyle;rounded=0;orthogonalLoop=1;jettySize=auto;html=1;startArrow=ERoneToMany;startFill=0;endArrow=ERmandOne;endFill=0;strokeWidth=3;entryX=0;entryY=0.5;entryDx=0;entryDy=0;" edge="1" parent="O1Ar2pL9u1d-SkSdmZId-1" source="O1Ar2pL9u1d-SkSdmZId-67" target="O1Ar2pL9u1d-SkSdmZId-48">
          <mxGeometry relative="1" as="geometry">
            <mxPoint x="425" y="530" as="targetPoint" />
          </mxGeometry>
        </mxCell>
        <mxCell id="O1Ar2pL9u1d-SkSdmZId-67" value="Flight" style="shape=table;startSize=30;container=1;collapsible=1;childLayout=tableLayout;fixedRows=1;rowLines=0;fontStyle=1;align=center;resizeLast=1;" vertex="1" parent="O1Ar2pL9u1d-SkSdmZId-1">
          <mxGeometry x="335" y="660" width="180" height="160" as="geometry" />
        </mxCell>
        <mxCell id="O1Ar2pL9u1d-SkSdmZId-68" value="" style="shape=partialRectangle;collapsible=0;dropTarget=0;pointerEvents=0;fillColor=none;top=0;left=0;bottom=1;right=0;points=[[0,0.5],[1,0.5]];portConstraint=eastwest;" vertex="1" parent="O1Ar2pL9u1d-SkSdmZId-67">
          <mxGeometry y="30" width="180" height="30" as="geometry" />
        </mxCell>
        <mxCell id="O1Ar2pL9u1d-SkSdmZId-69" value="PK" style="shape=partialRectangle;connectable=0;fillColor=none;top=0;left=0;bottom=0;right=0;fontStyle=1;overflow=hidden;" vertex="1" parent="O1Ar2pL9u1d-SkSdmZId-68">
          <mxGeometry width="30" height="30" as="geometry" />
        </mxCell>
        <mxCell id="O1Ar2pL9u1d-SkSdmZId-70" value="UniqueID" style="shape=partialRectangle;connectable=0;fillColor=none;top=0;left=0;bottom=0;right=0;align=left;spacingLeft=6;fontStyle=5;overflow=hidden;" vertex="1" parent="O1Ar2pL9u1d-SkSdmZId-68">
          <mxGeometry x="30" width="150" height="30" as="geometry" />
        </mxCell>
        <mxCell id="O1Ar2pL9u1d-SkSdmZId-71" value="" style="shape=partialRectangle;collapsible=0;dropTarget=0;pointerEvents=0;fillColor=none;top=0;left=0;bottom=0;right=0;points=[[0,0.5],[1,0.5]];portConstraint=eastwest;" vertex="1" parent="O1Ar2pL9u1d-SkSdmZId-67">
          <mxGeometry y="60" width="180" height="30" as="geometry" />
        </mxCell>
        <mxCell id="O1Ar2pL9u1d-SkSdmZId-72" value="" style="shape=partialRectangle;connectable=0;fillColor=none;top=0;left=0;bottom=0;right=0;editable=1;overflow=hidden;" vertex="1" parent="O1Ar2pL9u1d-SkSdmZId-71">
          <mxGeometry width="30" height="30" as="geometry" />
        </mxCell>
        <mxCell id="O1Ar2pL9u1d-SkSdmZId-73" value="Row 1" style="shape=partialRectangle;connectable=0;fillColor=none;top=0;left=0;bottom=0;right=0;align=left;spacingLeft=6;overflow=hidden;" vertex="1" parent="O1Ar2pL9u1d-SkSdmZId-71">
          <mxGeometry x="30" width="150" height="30" as="geometry" />
        </mxCell>
        <mxCell id="O1Ar2pL9u1d-SkSdmZId-74" value="" style="shape=partialRectangle;collapsible=0;dropTarget=0;pointerEvents=0;fillColor=none;top=0;left=0;bottom=0;right=0;points=[[0,0.5],[1,0.5]];portConstraint=eastwest;" vertex="1" parent="O1Ar2pL9u1d-SkSdmZId-67">
          <mxGeometry y="90" width="180" height="30" as="geometry" />
        </mxCell>
        <mxCell id="O1Ar2pL9u1d-SkSdmZId-75" value="" style="shape=partialRectangle;connectable=0;fillColor=none;top=0;left=0;bottom=0;right=0;editable=1;overflow=hidden;" vertex="1" parent="O1Ar2pL9u1d-SkSdmZId-74">
          <mxGeometry width="30" height="30" as="geometry" />
        </mxCell>
        <mxCell id="O1Ar2pL9u1d-SkSdmZId-76" value="Row 2" style="shape=partialRectangle;connectable=0;fillColor=none;top=0;left=0;bottom=0;right=0;align=left;spacingLeft=6;overflow=hidden;" vertex="1" parent="O1Ar2pL9u1d-SkSdmZId-74">
          <mxGeometry x="30" width="150" height="30" as="geometry" />
        </mxCell>
        <mxCell id="O1Ar2pL9u1d-SkSdmZId-77" value="" style="shape=partialRectangle;collapsible=0;dropTarget=0;pointerEvents=0;fillColor=none;top=0;left=0;bottom=0;right=0;points=[[0,0.5],[1,0.5]];portConstraint=eastwest;" vertex="1" parent="O1Ar2pL9u1d-SkSdmZId-67">
          <mxGeometry y="120" width="180" height="30" as="geometry" />
        </mxCell>
        <mxCell id="O1Ar2pL9u1d-SkSdmZId-78" value="" style="shape=partialRectangle;connectable=0;fillColor=none;top=0;left=0;bottom=0;right=0;editable=1;overflow=hidden;" vertex="1" parent="O1Ar2pL9u1d-SkSdmZId-77">
          <mxGeometry width="30" height="30" as="geometry" />
        </mxCell>
        <mxCell id="O1Ar2pL9u1d-SkSdmZId-79" value="Row 3" style="shape=partialRectangle;connectable=0;fillColor=none;top=0;left=0;bottom=0;right=0;align=left;spacingLeft=6;overflow=hidden;" vertex="1" parent="O1Ar2pL9u1d-SkSdmZId-77">
          <mxGeometry x="30" width="150" height="30" as="geometry" />
        </mxCell>
        <mxCell id="O1Ar2pL9u1d-SkSdmZId-96" style="edgeStyle=orthogonalEdgeStyle;rounded=0;orthogonalLoop=1;jettySize=auto;html=1;entryX=0;entryY=0.5;entryDx=0;entryDy=0;startArrow=ERmandOne;startFill=0;endArrow=ERmandOne;endFill=0;strokeWidth=3;" edge="1" parent="O1Ar2pL9u1d-SkSdmZId-1" source="O1Ar2pL9u1d-SkSdmZId-93" target="O1Ar2pL9u1d-SkSdmZId-32">
          <mxGeometry relative="1" as="geometry" />
        </mxCell>
        <mxCell id="O1Ar2pL9u1d-SkSdmZId-100" style="edgeStyle=orthogonalEdgeStyle;rounded=0;orthogonalLoop=1;jettySize=auto;html=1;entryX=1;entryY=0.5;entryDx=0;entryDy=0;startArrow=ERzeroToMany;startFill=1;endArrow=ERmandOne;endFill=0;strokeWidth=3;" edge="1" parent="O1Ar2pL9u1d-SkSdmZId-1" source="O1Ar2pL9u1d-SkSdmZId-58" target="O1Ar2pL9u1d-SkSdmZId-71">
          <mxGeometry relative="1" as="geometry" />
        </mxCell>
      </root>
    </mxGraphModel>
  </diagram>
  <diagram id="tXoYdtSdZC8T7lhJhMNU" name="Week 3 Homework 2">
    <mxGraphModel dx="1422" dy="737" grid="1" gridSize="10" guides="1" tooltips="1" connect="1" arrows="1" fold="1" page="1" pageScale="1" pageWidth="850" pageHeight="1100" math="0" shadow="0">
      <root>
        <mxCell id="BsmifIzXifoXsUti4Ax5-0" />
        <mxCell id="BsmifIzXifoXsUti4Ax5-1" parent="BsmifIzXifoXsUti4Ax5-0" />
      </root>
    </mxGraphModel>
  </diagram>
  <diagram id="dTOjCth-_R9ZPJushtNO" name="Week 3 Homework 2">
    <mxGraphModel dx="384" dy="723" grid="1" gridSize="10" guides="1" tooltips="1" connect="1" arrows="1" fold="1" page="1" pageScale="1" pageWidth="850" pageHeight="1100" math="0" shadow="0">
      <root>
        <mxCell id="ZT-GRDVOZSS87LGl0hpn-0" />
        <mxCell id="ZT-GRDVOZSS87LGl0hpn-1" parent="ZT-GRDVOZSS87LGl0hpn-0" />
      </root>
    </mxGraphModel>
  </diagram>
</mxfile>
